# Tiled2Unity generated file. Do not modify by hand.
# Wavefront file for 'PR_Center_mesh_0002.obj'

# Vertices (Count = 632)
v -1120 -1120 0
v -1152 -1120 0
v -1152 -1088 0
v -1120 -1088 0
v -1152 -1120 0
v -1184 -1120 0
v -1184 -1088 0
v -1152 -1088 0
v -1184 -1120 0
v -1216 -1120 0
v -1216 -1088 0
v -1184 -1088 0
v -1216 -1120 0
v -1248 -1120 0
v -1248 -1088 0
v -1216 -1088 0
v -1248 -1120 0
v -1280 -1120 0
v -1280 -1088 0
v -1248 -1088 0
v -1280 -1120 0
v -1312 -1120 0
v -1312 -1088 0
v -1280 -1088 0
v -1312 -1120 0
v -1344 -1120 0
v -1344 -1088 0
v -1312 -1088 0
v -1120 -1152 0
v -1152 -1152 0
v -1152 -1120 0
v -1120 -1120 0
v -1152 -1152 0
v -1184 -1152 0
v -1184 -1120 0
v -1152 -1120 0
v -1184 -1152 0
v -1216 -1152 0
v -1216 -1120 0
v -1184 -1120 0
v -1216 -1152 0
v -1248 -1152 0
v -1248 -1120 0
v -1216 -1120 0
v -1248 -1152 0
v -1280 -1152 0
v -1280 -1120 0
v -1248 -1120 0
v -1280 -1152 0
v -1312 -1152 0
v -1312 -1120 0
v -1280 -1120 0
v -1312 -1152 0
v -1344 -1152 0
v -1344 -1120 0
v -1312 -1120 0
v -1120 -1184 0
v -1152 -1184 0
v -1152 -1152 0
v -1120 -1152 0
v -1152 -1184 0
v -1184 -1184 0
v -1184 -1152 0
v -1152 -1152 0
v -1184 -1184 0
v -1216 -1184 0
v -1216 -1152 0
v -1184 -1152 0
v -1216 -1184 0
v -1248 -1184 0
v -1248 -1152 0
v -1216 -1152 0
v -1248 -1184 0
v -1280 -1184 0
v -1280 -1152 0
v -1248 -1152 0
v -1280 -1184 0
v -1312 -1184 0
v -1312 -1152 0
v -1280 -1152 0
v -1312 -1184 0
v -1344 -1184 0
v -1344 -1152 0
v -1312 -1152 0
v -1120 -1216 0
v -1152 -1216 0
v -1152 -1184 0
v -1120 -1184 0
v -1152 -1216 0
v -1184 -1216 0
v -1184 -1184 0
v -1152 -1184 0
v -1184 -1216 0
v -1216 -1216 0
v -1216 -1184 0
v -1184 -1184 0
v -1216 -1216 0
v -1248 -1216 0
v -1248 -1184 0
v -1216 -1184 0
v -1248 -1216 0
v -1280 -1216 0
v -1280 -1184 0
v -1248 -1184 0
v -1280 -1216 0
v -1312 -1216 0
v -1312 -1184 0
v -1280 -1184 0
v -1312 -1216 0
v -1344 -1216 0
v -1344 -1184 0
v -1312 -1184 0
v -1344 -1216 0
v -1376 -1216 0
v -1376 -1184 0
v -1344 -1184 0
v -1376 -1216 0
v -1408 -1216 0
v -1408 -1184 0
v -1376 -1184 0
v -1408 -1216 0
v -1440 -1216 0
v -1440 -1184 0
v -1408 -1184 0
v -1440 -1216 0
v -1472 -1216 0
v -1472 -1184 0
v -1440 -1184 0
v -96 -1248 0
v -128 -1248 0
v -128 -1216 0
v -96 -1216 0
v -128 -1248 0
v -160 -1248 0
v -160 -1216 0
v -128 -1216 0
v -160 -1248 0
v -192 -1248 0
v -192 -1216 0
v -160 -1216 0
v -192 -1248 0
v -224 -1248 0
v -224 -1216 0
v -192 -1216 0
v -224 -1248 0
v -256 -1248 0
v -256 -1216 0
v -224 -1216 0
v -256 -1248 0
v -288 -1248 0
v -288 -1216 0
v -256 -1216 0
v -288 -1248 0
v -320 -1248 0
v -320 -1216 0
v -288 -1216 0
v -320 -1248 0
v -352 -1248 0
v -352 -1216 0
v -320 -1216 0
v -352 -1248 0
v -384 -1248 0
v -384 -1216 0
v -352 -1216 0
v -384 -1248 0
v -416 -1248 0
v -416 -1216 0
v -384 -1216 0
v -416 -1248 0
v -448 -1248 0
v -448 -1216 0
v -416 -1216 0
v -448 -1248 0
v -480 -1248 0
v -480 -1216 0
v -448 -1216 0
v -1120 -1248 0
v -1152 -1248 0
v -1152 -1216 0
v -1120 -1216 0
v -1152 -1248 0
v -1184 -1248 0
v -1184 -1216 0
v -1152 -1216 0
v -1184 -1248 0
v -1216 -1248 0
v -1216 -1216 0
v -1184 -1216 0
v -1216 -1248 0
v -1248 -1248 0
v -1248 -1216 0
v -1216 -1216 0
v -1248 -1248 0
v -1280 -1248 0
v -1280 -1216 0
v -1248 -1216 0
v -1280 -1248 0
v -1312 -1248 0
v -1312 -1216 0
v -1280 -1216 0
v -1312 -1248 0
v -1344 -1248 0
v -1344 -1216 0
v -1312 -1216 0
v -1344 -1248 0
v -1376 -1248 0
v -1376 -1216 0
v -1344 -1216 0
v -1376 -1248 0
v -1408 -1248 0
v -1408 -1216 0
v -1376 -1216 0
v -1408 -1248 0
v -1440 -1248 0
v -1440 -1216 0
v -1408 -1216 0
v -1440 -1248 0
v -1472 -1248 0
v -1472 -1216 0
v -1440 -1216 0
v -96 -1280 0
v -128 -1280 0
v -128 -1248 0
v -96 -1248 0
v -128 -1280 0
v -160 -1280 0
v -160 -1248 0
v -128 -1248 0
v -160 -1280 0
v -192 -1280 0
v -192 -1248 0
v -160 -1248 0
v -192 -1280 0
v -224 -1280 0
v -224 -1248 0
v -192 -1248 0
v -224 -1280 0
v -256 -1280 0
v -256 -1248 0
v -224 -1248 0
v -256 -1280 0
v -288 -1280 0
v -288 -1248 0
v -256 -1248 0
v -288 -1280 0
v -320 -1280 0
v -320 -1248 0
v -288 -1248 0
v -320 -1280 0
v -352 -1280 0
v -352 -1248 0
v -320 -1248 0
v -352 -1280 0
v -384 -1280 0
v -384 -1248 0
v -352 -1248 0
v -384 -1280 0
v -416 -1280 0
v -416 -1248 0
v -384 -1248 0
v -416 -1280 0
v -448 -1280 0
v -448 -1248 0
v -416 -1248 0
v -448 -1280 0
v -480 -1280 0
v -480 -1248 0
v -448 -1248 0
v -1120 -1280 0
v -1152 -1280 0
v -1152 -1248 0
v -1120 -1248 0
v -1152 -1280 0
v -1184 -1280 0
v -1184 -1248 0
v -1152 -1248 0
v -1184 -1280 0
v -1216 -1280 0
v -1216 -1248 0
v -1184 -1248 0
v -1216 -1280 0
v -1248 -1280 0
v -1248 -1248 0
v -1216 -1248 0
v -1248 -1280 0
v -1280 -1280 0
v -1280 -1248 0
v -1248 -1248 0
v -1280 -1280 0
v -1312 -1280 0
v -1312 -1248 0
v -1280 -1248 0
v -1312 -1280 0
v -1344 -1280 0
v -1344 -1248 0
v -1312 -1248 0
v -1344 -1280 0
v -1376 -1280 0
v -1376 -1248 0
v -1344 -1248 0
v -1376 -1280 0
v -1408 -1280 0
v -1408 -1248 0
v -1376 -1248 0
v -1408 -1280 0
v -1440 -1280 0
v -1440 -1248 0
v -1408 -1248 0
v -1440 -1280 0
v -1472 -1280 0
v -1472 -1248 0
v -1440 -1248 0
v -1472 -1280 0
v -1504 -1280 0
v -1504 -1248 0
v -1472 -1248 0
v -1504 -1280 0
v -1536 -1280 0
v -1536 -1248 0
v -1504 -1248 0
v -1536 -1280 0
v -1568 -1280 0
v -1568 -1248 0
v -1536 -1248 0
v -1568 -1280 0
v -1600 -1280 0
v -1600 -1248 0
v -1568 -1248 0
v -96 -1312 0
v -128 -1312 0
v -128 -1280 0
v -96 -1280 0
v -128 -1312 0
v -160 -1312 0
v -160 -1280 0
v -128 -1280 0
v -160 -1312 0
v -192 -1312 0
v -192 -1280 0
v -160 -1280 0
v -192 -1312 0
v -224 -1312 0
v -224 -1280 0
v -192 -1280 0
v -224 -1312 0
v -256 -1312 0
v -256 -1280 0
v -224 -1280 0
v -256 -1312 0
v -288 -1312 0
v -288 -1280 0
v -256 -1280 0
v -288 -1312 0
v -320 -1312 0
v -320 -1280 0
v -288 -1280 0
v -320 -1312 0
v -352 -1312 0
v -352 -1280 0
v -320 -1280 0
v -352 -1312 0
v -384 -1312 0
v -384 -1280 0
v -352 -1280 0
v -384 -1312 0
v -416 -1312 0
v -416 -1280 0
v -384 -1280 0
v -416 -1312 0
v -448 -1312 0
v -448 -1280 0
v -416 -1280 0
v -448 -1312 0
v -480 -1312 0
v -480 -1280 0
v -448 -1280 0
v -1120 -1312 0
v -1152 -1312 0
v -1152 -1280 0
v -1120 -1280 0
v -1152 -1312 0
v -1184 -1312 0
v -1184 -1280 0
v -1152 -1280 0
v -1184 -1312 0
v -1216 -1312 0
v -1216 -1280 0
v -1184 -1280 0
v -1216 -1312 0
v -1248 -1312 0
v -1248 -1280 0
v -1216 -1280 0
v -1248 -1312 0
v -1280 -1312 0
v -1280 -1280 0
v -1248 -1280 0
v -1280 -1312 0
v -1312 -1312 0
v -1312 -1280 0
v -1280 -1280 0
v -1312 -1312 0
v -1344 -1312 0
v -1344 -1280 0
v -1312 -1280 0
v -1344 -1312 0
v -1376 -1312 0
v -1376 -1280 0
v -1344 -1280 0
v -1376 -1312 0
v -1408 -1312 0
v -1408 -1280 0
v -1376 -1280 0
v -1408 -1312 0
v -1440 -1312 0
v -1440 -1280 0
v -1408 -1280 0
v -1440 -1312 0
v -1472 -1312 0
v -1472 -1280 0
v -1440 -1280 0
v -1472 -1312 0
v -1504 -1312 0
v -1504 -1280 0
v -1472 -1280 0
v -1504 -1312 0
v -1536 -1312 0
v -1536 -1280 0
v -1504 -1280 0
v -1536 -1312 0
v -1568 -1312 0
v -1568 -1280 0
v -1536 -1280 0
v -1568 -1312 0
v -1600 -1312 0
v -1600 -1280 0
v -1568 -1280 0
v -192 -1344 0
v -224 -1344 0
v -224 -1312 0
v -192 -1312 0
v -224 -1344 0
v -256 -1344 0
v -256 -1312 0
v -224 -1312 0
v -256 -1344 0
v -288 -1344 0
v -288 -1312 0
v -256 -1312 0
v -288 -1344 0
v -320 -1344 0
v -320 -1312 0
v -288 -1312 0
v -320 -1344 0
v -352 -1344 0
v -352 -1312 0
v -320 -1312 0
v -352 -1344 0
v -384 -1344 0
v -384 -1312 0
v -352 -1312 0
v -384 -1344 0
v -416 -1344 0
v -416 -1312 0
v -384 -1312 0
v -416 -1344 0
v -448 -1344 0
v -448 -1312 0
v -416 -1312 0
v -448 -1344 0
v -480 -1344 0
v -480 -1312 0
v -448 -1312 0
v -192 -1376 0
v -224 -1376 0
v -224 -1344 0
v -192 -1344 0
v -224 -1376 0
v -256 -1376 0
v -256 -1344 0
v -224 -1344 0
v -256 -1376 0
v -288 -1376 0
v -288 -1344 0
v -256 -1344 0
v -288 -1376 0
v -320 -1376 0
v -320 -1344 0
v -288 -1344 0
v -320 -1376 0
v -352 -1376 0
v -352 -1344 0
v -320 -1344 0
v -352 -1376 0
v -384 -1376 0
v -384 -1344 0
v -352 -1344 0
v -384 -1376 0
v -416 -1376 0
v -416 -1344 0
v -384 -1344 0
v -416 -1376 0
v -448 -1376 0
v -448 -1344 0
v -416 -1344 0
v -192 -1408 0
v -224 -1408 0
v -224 -1376 0
v -192 -1376 0
v -224 -1408 0
v -256 -1408 0
v -256 -1376 0
v -224 -1376 0
v -256 -1408 0
v -288 -1408 0
v -288 -1376 0
v -256 -1376 0
v -288 -1408 0
v -320 -1408 0
v -320 -1376 0
v -288 -1376 0
v -320 -1408 0
v -352 -1408 0
v -352 -1376 0
v -320 -1376 0
v -352 -1408 0
v -384 -1408 0
v -384 -1376 0
v -352 -1376 0
v -384 -1408 0
v -416 -1408 0
v -416 -1376 0
v -384 -1376 0
v -416 -1408 0
v -448 -1408 0
v -448 -1376 0
v -416 -1376 0
v 0 -1440 0
v -32 -1440 0
v -32 -1408 0
v 0 -1408 0
v -32 -1440 0
v -64 -1440 0
v -64 -1408 0
v -32 -1408 0
v -64 -1440 0
v -96 -1440 0
v -96 -1408 0
v -64 -1408 0
v -96 -1440 0
v -128 -1440 0
v -128 -1408 0
v -96 -1408 0
v -128 -1440 0
v -160 -1440 0
v -160 -1408 0
v -128 -1408 0
v -160 -1440 0
v -192 -1440 0
v -192 -1408 0
v -160 -1408 0
v -192 -1440 0
v -224 -1440 0
v -224 -1408 0
v -192 -1408 0
v -224 -1440 0
v -256 -1440 0
v -256 -1408 0
v -224 -1408 0
v -256 -1440 0
v -288 -1440 0
v -288 -1408 0
v -256 -1408 0
v -288 -1440 0
v -320 -1440 0
v -320 -1408 0
v -288 -1408 0
v -320 -1440 0
v -352 -1440 0
v -352 -1408 0
v -320 -1408 0
v -352 -1440 0
v -384 -1440 0
v -384 -1408 0
v -352 -1408 0
v -384 -1440 0
v -416 -1440 0
v -416 -1408 0
v -384 -1408 0
v 0 -1472 0
v -32 -1472 0
v -32 -1440 0
v 0 -1440 0
v -32 -1472 0
v -64 -1472 0
v -64 -1440 0
v -32 -1440 0
v -64 -1472 0
v -96 -1472 0
v -96 -1440 0
v -64 -1440 0
v -96 -1472 0
v -128 -1472 0
v -128 -1440 0
v -96 -1440 0
v -128 -1472 0
v -160 -1472 0
v -160 -1440 0
v -128 -1440 0
v -160 -1472 0
v -192 -1472 0
v -192 -1440 0
v -160 -1440 0
v -192 -1472 0
v -224 -1472 0
v -224 -1440 0
v -192 -1440 0
v -224 -1472 0
v -256 -1472 0
v -256 -1440 0
v -224 -1440 0
v -256 -1472 0
v -288 -1472 0
v -288 -1440 0
v -256 -1440 0
v -288 -1472 0
v -320 -1472 0
v -320 -1440 0
v -288 -1440 0
v -320 -1472 0
v -352 -1472 0
v -352 -1440 0
v -320 -1440 0

# Texture cooridinates (Count = 22)
vt 0.6 0.9
vt 0.7 0.9
vt 0.7 1
vt 0.6 1
vt 0.8 0.9
vt 0.8 1
vt 0.9 0.9
vt 0.9 1
vt 0.6 0.8
vt 0.7 0.8
vt 0.8 0.8
vt 0.9 0.8
vt 0.6 0.5
vt 0.7 0.5
vt 0.7 0.6
vt 0.6 0.6
vt 0.6 0.7
vt 0.7 0.7
vt 0.8 0.7
vt 0.8 0.6
vt 0.9 0.7
vt 0.8 0.5

# Normal
vn 0 0 -1

# Mesh description
g PR_Center_mesh_0002

# Faces
f 1/1/1 2/2/1 3/3/1 4/4/1
f 5/2/1 6/5/1 7/6/1 8/3/1
f 9/2/1 10/5/1 11/6/1 12/3/1
f 13/2/1 14/5/1 15/6/1 16/3/1
f 17/2/1 18/5/1 19/6/1 20/3/1
f 21/2/1 22/5/1 23/6/1 24/3/1
f 25/5/1 26/7/1 27/8/1 28/6/1
f 29/9/1 30/10/1 31/2/1 32/1/1
f 33/10/1 34/11/1 35/5/1 36/2/1
f 37/10/1 38/11/1 39/5/1 40/2/1
f 41/10/1 42/11/1 43/5/1 44/2/1
f 45/10/1 46/11/1 47/5/1 48/2/1
f 49/10/1 50/11/1 51/5/1 52/2/1
f 53/11/1 54/12/1 55/7/1 56/5/1
f 57/9/1 58/10/1 59/2/1 60/1/1
f 61/10/1 62/11/1 63/5/1 64/2/1
f 65/10/1 66/11/1 67/5/1 68/2/1
f 69/10/1 70/11/1 71/5/1 72/2/1
f 73/10/1 74/11/1 75/5/1 76/2/1
f 77/10/1 78/11/1 79/5/1 80/2/1
f 81/11/1 82/12/1 83/7/1 84/5/1
f 85/9/1 86/10/1 87/2/1 88/1/1
f 89/10/1 90/11/1 91/5/1 92/2/1
f 93/10/1 94/11/1 95/5/1 96/2/1
f 97/10/1 98/11/1 99/5/1 100/2/1
f 101/10/1 102/11/1 103/5/1 104/2/1
f 105/10/1 106/11/1 107/5/1 108/2/1
f 109/13/1 110/14/1 111/15/1 112/16/1
f 113/2/1 114/5/1 115/6/1 116/3/1
f 117/2/1 118/5/1 119/6/1 120/3/1
f 121/2/1 122/5/1 123/6/1 124/3/1
f 125/5/1 126/7/1 127/8/1 128/6/1
f 129/1/1 130/2/1 131/3/1 132/4/1
f 133/2/1 134/5/1 135/6/1 136/3/1
f 137/2/1 138/5/1 139/6/1 140/3/1
f 141/2/1 142/5/1 143/6/1 144/3/1
f 145/2/1 146/5/1 147/6/1 148/3/1
f 149/2/1 150/5/1 151/6/1 152/3/1
f 153/2/1 154/5/1 155/6/1 156/3/1
f 157/2/1 158/5/1 159/6/1 160/3/1
f 161/2/1 162/5/1 163/6/1 164/3/1
f 165/2/1 166/5/1 167/6/1 168/3/1
f 169/2/1 170/5/1 171/6/1 172/3/1
f 173/5/1 174/7/1 175/8/1 176/6/1
f 177/9/1 178/10/1 179/2/1 180/1/1
f 181/10/1 182/11/1 183/5/1 184/2/1
f 185/10/1 186/11/1 187/5/1 188/2/1
f 189/10/1 190/11/1 191/5/1 192/2/1
f 193/10/1 194/11/1 195/5/1 196/2/1
f 197/10/1 198/11/1 199/5/1 200/2/1
f 201/10/1 202/11/1 203/5/1 204/2/1
f 205/10/1 206/11/1 207/5/1 208/2/1
f 209/10/1 210/11/1 211/5/1 212/2/1
f 213/10/1 214/11/1 215/5/1 216/2/1
f 217/11/1 218/12/1 219/7/1 220/5/1
f 221/9/1 222/10/1 223/2/1 224/1/1
f 225/10/1 226/11/1 227/5/1 228/2/1
f 229/10/1 230/11/1 231/5/1 232/2/1
f 233/10/1 234/11/1 235/5/1 236/2/1
f 237/10/1 238/11/1 239/5/1 240/2/1
f 241/10/1 242/11/1 243/5/1 244/2/1
f 245/10/1 246/11/1 247/5/1 248/2/1
f 249/10/1 250/11/1 251/5/1 252/2/1
f 253/10/1 254/11/1 255/5/1 256/2/1
f 257/10/1 258/11/1 259/5/1 260/2/1
f 261/10/1 262/11/1 263/5/1 264/2/1
f 265/11/1 266/12/1 267/7/1 268/5/1
f 269/9/1 270/10/1 271/2/1 272/1/1
f 273/10/1 274/11/1 275/5/1 276/2/1
f 277/10/1 278/11/1 279/5/1 280/2/1
f 281/10/1 282/11/1 283/5/1 284/2/1
f 285/10/1 286/11/1 287/5/1 288/2/1
f 289/10/1 290/11/1 291/5/1 292/2/1
f 293/10/1 294/11/1 295/5/1 296/2/1
f 297/10/1 298/11/1 299/5/1 300/2/1
f 301/10/1 302/11/1 303/5/1 304/2/1
f 305/10/1 306/11/1 307/5/1 308/2/1
f 309/13/1 310/14/1 311/15/1 312/16/1
f 313/2/1 314/5/1 315/6/1 316/3/1
f 317/2/1 318/5/1 319/6/1 320/3/1
f 321/2/1 322/5/1 323/6/1 324/3/1
f 325/5/1 326/7/1 327/8/1 328/6/1
f 329/17/1 330/18/1 331/10/1 332/9/1
f 333/18/1 334/19/1 335/11/1 336/10/1
f 337/18/1 338/19/1 339/11/1 340/10/1
f 341/15/1 342/20/1 343/19/1 344/18/1
f 345/10/1 346/11/1 347/5/1 348/2/1
f 349/10/1 350/11/1 351/5/1 352/2/1
f 353/10/1 354/11/1 355/5/1 356/2/1
f 357/10/1 358/11/1 359/5/1 360/2/1
f 361/10/1 362/11/1 363/5/1 364/2/1
f 365/10/1 366/11/1 367/5/1 368/2/1
f 369/10/1 370/11/1 371/5/1 372/2/1
f 373/11/1 374/12/1 375/7/1 376/5/1
f 377/17/1 378/18/1 379/10/1 380/9/1
f 381/18/1 382/19/1 383/11/1 384/10/1
f 385/18/1 386/19/1 387/11/1 388/10/1
f 389/18/1 390/19/1 391/11/1 392/10/1
f 393/18/1 394/19/1 395/11/1 396/10/1
f 397/18/1 398/19/1 399/11/1 400/10/1
f 401/18/1 402/19/1 403/11/1 404/10/1
f 405/18/1 406/19/1 407/11/1 408/10/1
f 409/18/1 410/19/1 411/11/1 412/10/1
f 413/18/1 414/19/1 415/11/1 416/10/1
f 417/18/1 418/19/1 419/11/1 420/10/1
f 421/18/1 422/19/1 423/11/1 424/10/1
f 425/18/1 426/19/1 427/11/1 428/10/1
f 429/18/1 430/19/1 431/11/1 432/10/1
f 433/19/1 434/21/1 435/12/1 436/11/1
f 437/9/1 438/10/1 439/2/1 440/1/1
f 441/10/1 442/11/1 443/5/1 444/2/1
f 445/10/1 446/11/1 447/5/1 448/2/1
f 449/10/1 450/11/1 451/5/1 452/2/1
f 453/10/1 454/11/1 455/5/1 456/2/1
f 457/10/1 458/11/1 459/5/1 460/2/1
f 461/10/1 462/11/1 463/5/1 464/2/1
f 465/16/1 466/15/1 467/18/1 468/17/1
f 469/19/1 470/21/1 471/12/1 472/11/1
f 473/9/1 474/10/1 475/2/1 476/1/1
f 477/10/1 478/11/1 479/5/1 480/2/1
f 481/10/1 482/11/1 483/5/1 484/2/1
f 485/10/1 486/11/1 487/5/1 488/2/1
f 489/10/1 490/11/1 491/5/1 492/2/1
f 493/10/1 494/11/1 495/5/1 496/2/1
f 497/10/1 498/11/1 499/5/1 500/2/1
f 501/11/1 502/12/1 503/7/1 504/5/1
f 505/9/1 506/10/1 507/2/1 508/1/1
f 509/10/1 510/11/1 511/5/1 512/2/1
f 513/10/1 514/11/1 515/5/1 516/2/1
f 517/10/1 518/11/1 519/5/1 520/2/1
f 521/10/1 522/11/1 523/5/1 524/2/1
f 525/10/1 526/11/1 527/5/1 528/2/1
f 529/16/1 530/15/1 531/18/1 532/17/1
f 533/19/1 534/21/1 535/12/1 536/11/1
f 537/1/1 538/2/1 539/3/1 540/4/1
f 541/2/1 542/5/1 543/6/1 544/3/1
f 545/2/1 546/5/1 547/6/1 548/3/1
f 549/2/1 550/5/1 551/6/1 552/3/1
f 553/2/1 554/5/1 555/6/1 556/3/1
f 557/2/1 558/5/1 559/6/1 560/3/1
f 561/14/1 562/22/1 563/20/1 564/15/1
f 565/10/1 566/11/1 567/5/1 568/2/1
f 569/10/1 570/11/1 571/5/1 572/2/1
f 573/10/1 574/11/1 575/5/1 576/2/1
f 577/16/1 578/15/1 579/18/1 580/17/1
f 581/18/1 582/19/1 583/11/1 584/10/1
f 585/19/1 586/21/1 587/12/1 588/11/1
f 589/17/1 590/18/1 591/10/1 592/9/1
f 593/18/1 594/19/1 595/11/1 596/10/1
f 597/18/1 598/19/1 599/11/1 600/10/1
f 601/18/1 602/19/1 603/11/1 604/10/1
f 605/18/1 606/19/1 607/11/1 608/10/1
f 609/18/1 610/19/1 611/11/1 612/10/1
f 613/18/1 614/19/1 615/11/1 616/10/1
f 617/18/1 618/19/1 619/11/1 620/10/1
f 621/18/1 622/19/1 623/11/1 624/10/1
f 625/18/1 626/19/1 627/11/1 628/10/1
f 629/19/1 630/21/1 631/12/1 632/11/1

