# Tiled2Unity generated file. Do not modify by hand.
# Wavefront file for 'PR_Center_mesh_0007.obj'

# Vertices (Count = 52)
v -1120 -1120 0
v -1152 -1120 0
v -1152 -1088 0
v -1120 -1088 0
v -1120 -1152 0
v -1152 -1152 0
v -1152 -1120 0
v -1120 -1120 0
v -1152 -1152 0
v -1184 -1152 0
v -1184 -1120 0
v -1152 -1120 0
v -1152 -1184 0
v -1184 -1184 0
v -1184 -1152 0
v -1152 -1152 0
v -1184 -1184 0
v -1216 -1184 0
v -1216 -1152 0
v -1184 -1152 0
v -1184 -1216 0
v -1216 -1216 0
v -1216 -1184 0
v -1184 -1184 0
v -1216 -1216 0
v -1248 -1216 0
v -1248 -1184 0
v -1216 -1184 0
v -1216 -1248 0
v -1248 -1248 0
v -1248 -1216 0
v -1216 -1216 0
v -1248 -1248 0
v -1280 -1248 0
v -1280 -1216 0
v -1248 -1216 0
v -1248 -1280 0
v -1280 -1280 0
v -1280 -1248 0
v -1248 -1248 0
v -1280 -1280 0
v -1312 -1280 0
v -1312 -1248 0
v -1280 -1248 0
v -1280 -1312 0
v -1312 -1312 0
v -1312 -1280 0
v -1280 -1280 0
v -1312 -1312 0
v -1344 -1312 0
v -1344 -1280 0
v -1312 -1280 0

# Texture cooridinates (Count = 6)
vt 0.7 0.7
vt 0.6 0.7
vt 0.6 0.8
vt 0.7 0.8
vt 0.8 0.7
vt 0.8 0.8

# Normal
vn 0 0 -1

# Mesh description
g PR_Center_mesh_0007

# Faces
f 1/1/1 2/2/1 3/3/1 4/4/1
f 5/5/1 6/1/1 7/4/1 8/6/1
f 9/1/1 10/2/1 11/3/1 12/4/1
f 13/5/1 14/1/1 15/4/1 16/6/1
f 17/1/1 18/2/1 19/3/1 20/4/1
f 21/5/1 22/1/1 23/4/1 24/6/1
f 25/1/1 26/2/1 27/3/1 28/4/1
f 29/5/1 30/1/1 31/4/1 32/6/1
f 33/1/1 34/2/1 35/3/1 36/4/1
f 37/5/1 38/1/1 39/4/1 40/6/1
f 41/1/1 42/2/1 43/3/1 44/4/1
f 45/5/1 46/1/1 47/4/1 48/6/1
f 49/1/1 50/2/1 51/3/1 52/4/1

