# Tiled2Unity generated file. Do not modify by hand.
# Wavefront file for 'PR_Center_mesh_0003.obj'

# Vertices (Count = 64)
v -1376 -896 0
v -1408 -896 0
v -1408 -864 0
v -1376 -864 0
v -1344 -928 0
v -1376 -928 0
v -1376 -896 0
v -1344 -896 0
v -1376 -928 0
v -1408 -928 0
v -1408 -896 0
v -1376 -896 0
v -1312 -960 0
v -1344 -960 0
v -1344 -928 0
v -1312 -928 0
v -1344 -960 0
v -1376 -960 0
v -1376 -928 0
v -1344 -928 0
v -1280 -992 0
v -1312 -992 0
v -1312 -960 0
v -1280 -960 0
v -1312 -992 0
v -1344 -992 0
v -1344 -960 0
v -1312 -960 0
v -1248 -1024 0
v -1280 -1024 0
v -1280 -992 0
v -1248 -992 0
v -1280 -1024 0
v -1312 -1024 0
v -1312 -992 0
v -1280 -992 0
v -1216 -1056 0
v -1248 -1056 0
v -1248 -1024 0
v -1216 -1024 0
v -1248 -1056 0
v -1280 -1056 0
v -1280 -1024 0
v -1248 -1024 0
v -160 -1088 0
v -192 -1088 0
v -192 -1056 0
v -160 -1056 0
v -1184 -1088 0
v -1216 -1088 0
v -1216 -1056 0
v -1184 -1056 0
v -1216 -1088 0
v -1248 -1088 0
v -1248 -1056 0
v -1216 -1056 0
v -160 -1120 0
v -192 -1120 0
v -192 -1088 0
v -160 -1088 0
v -192 -1120 0
v -224 -1120 0
v -224 -1088 0
v -192 -1088 0

# Texture cooridinates (Count = 6)
vt 0.6 0.7
vt 0.7 0.7
vt 0.7 0.8
vt 0.6 0.8
vt 0.8 0.7
vt 0.8 0.8

# Normal
vn 0 0 -1

# Mesh description
g PR_Center_mesh_0003

# Faces
f 1/1/1 2/2/1 3/3/1 4/4/1
f 5/1/1 6/2/1 7/3/1 8/4/1
f 9/2/1 10/5/1 11/6/1 12/3/1
f 13/1/1 14/2/1 15/3/1 16/4/1
f 17/2/1 18/5/1 19/6/1 20/3/1
f 21/1/1 22/2/1 23/3/1 24/4/1
f 25/2/1 26/5/1 27/6/1 28/3/1
f 29/1/1 30/2/1 31/3/1 32/4/1
f 33/2/1 34/5/1 35/6/1 36/3/1
f 37/1/1 38/2/1 39/3/1 40/4/1
f 41/2/1 42/5/1 43/6/1 44/3/1
f 45/2/1 46/1/1 47/4/1 48/3/1
f 49/1/1 50/2/1 51/3/1 52/4/1
f 53/2/1 54/5/1 55/6/1 56/3/1
f 57/5/1 58/2/1 59/3/1 60/6/1
f 61/2/1 62/1/1 63/4/1 64/3/1

