# Tiled2Unity generated file. Do not modify by hand.
# Wavefront file for 'test_forest_mesh_0002.obj'

# Vertices (Count = 464)
v -864 -1056 0
v -896 -1056 0
v -896 -1024 0
v -864 -1024 0
v -896 -1056 0
v -928 -1056 0
v -928 -1024 0
v -896 -1024 0
v -928 -1056 0
v -960 -1056 0
v -960 -1024 0
v -928 -1024 0
v -960 -1056 0
v -992 -1056 0
v -992 -1024 0
v -960 -1024 0
v -992 -1056 0
v -1024 -1056 0
v -1024 -1024 0
v -992 -1024 0
v -1024 -1056 0
v -1056 -1056 0
v -1056 -1024 0
v -1024 -1024 0
v -1056 -1056 0
v -1088 -1056 0
v -1088 -1024 0
v -1056 -1024 0
v -864 -1088 0
v -896 -1088 0
v -896 -1056 0
v -864 -1056 0
v -896 -1088 0
v -928 -1088 0
v -928 -1056 0
v -896 -1056 0
v -928 -1088 0
v -960 -1088 0
v -960 -1056 0
v -928 -1056 0
v -960 -1088 0
v -992 -1088 0
v -992 -1056 0
v -960 -1056 0
v -992 -1088 0
v -1024 -1088 0
v -1024 -1056 0
v -992 -1056 0
v -1024 -1088 0
v -1056 -1088 0
v -1056 -1056 0
v -1024 -1056 0
v -1056 -1088 0
v -1088 -1088 0
v -1088 -1056 0
v -1056 -1056 0
v -800 -1120 0
v -832 -1120 0
v -832 -1088 0
v -800 -1088 0
v -832 -1120 0
v -864 -1120 0
v -864 -1088 0
v -832 -1088 0
v -864 -1120 0
v -896 -1120 0
v -896 -1088 0
v -864 -1088 0
v -896 -1120 0
v -928 -1120 0
v -928 -1088 0
v -896 -1088 0
v -928 -1120 0
v -960 -1120 0
v -960 -1088 0
v -928 -1088 0
v -960 -1120 0
v -992 -1120 0
v -992 -1088 0
v -960 -1088 0
v -992 -1120 0
v -1024 -1120 0
v -1024 -1088 0
v -992 -1088 0
v -1024 -1120 0
v -1056 -1120 0
v -1056 -1088 0
v -1024 -1088 0
v -1056 -1120 0
v -1088 -1120 0
v -1088 -1088 0
v -1056 -1088 0
v -544 -1152 0
v -576 -1152 0
v -576 -1120 0
v -544 -1120 0
v -608 -1152 0
v -640 -1152 0
v -640 -1120 0
v -608 -1120 0
v -640 -1152 0
v -672 -1152 0
v -672 -1120 0
v -640 -1120 0
v -768 -1152 0
v -800 -1152 0
v -800 -1120 0
v -768 -1120 0
v -800 -1152 0
v -832 -1152 0
v -832 -1120 0
v -800 -1120 0
v -832 -1152 0
v -864 -1152 0
v -864 -1120 0
v -832 -1120 0
v -864 -1152 0
v -896 -1152 0
v -896 -1120 0
v -864 -1120 0
v -896 -1152 0
v -928 -1152 0
v -928 -1120 0
v -896 -1120 0
v -928 -1152 0
v -960 -1152 0
v -960 -1120 0
v -928 -1120 0
v -960 -1152 0
v -992 -1152 0
v -992 -1120 0
v -960 -1120 0
v -992 -1152 0
v -1024 -1152 0
v -1024 -1120 0
v -992 -1120 0
v -1024 -1152 0
v -1056 -1152 0
v -1056 -1120 0
v -1024 -1120 0
v -1056 -1152 0
v -1088 -1152 0
v -1088 -1120 0
v -1056 -1120 0
v -704 -1184 0
v -736 -1184 0
v -736 -1152 0
v -704 -1152 0
v -736 -1184 0
v -768 -1184 0
v -768 -1152 0
v -736 -1152 0
v -768 -1184 0
v -800 -1184 0
v -800 -1152 0
v -768 -1152 0
v -800 -1184 0
v -832 -1184 0
v -832 -1152 0
v -800 -1152 0
v -832 -1184 0
v -864 -1184 0
v -864 -1152 0
v -832 -1152 0
v -864 -1184 0
v -896 -1184 0
v -896 -1152 0
v -864 -1152 0
v -896 -1184 0
v -928 -1184 0
v -928 -1152 0
v -896 -1152 0
v -928 -1184 0
v -960 -1184 0
v -960 -1152 0
v -928 -1152 0
v -960 -1184 0
v -992 -1184 0
v -992 -1152 0
v -960 -1152 0
v -992 -1184 0
v -1024 -1184 0
v -1024 -1152 0
v -992 -1152 0
v -1024 -1184 0
v -1056 -1184 0
v -1056 -1152 0
v -1024 -1152 0
v -1056 -1184 0
v -1088 -1184 0
v -1088 -1152 0
v -1056 -1152 0
v -672 -1216 0
v -704 -1216 0
v -704 -1184 0
v -672 -1184 0
v -704 -1216 0
v -736 -1216 0
v -736 -1184 0
v -704 -1184 0
v -736 -1216 0
v -768 -1216 0
v -768 -1184 0
v -736 -1184 0
v -768 -1216 0
v -800 -1216 0
v -800 -1184 0
v -768 -1184 0
v -800 -1216 0
v -832 -1216 0
v -832 -1184 0
v -800 -1184 0
v -832 -1216 0
v -864 -1216 0
v -864 -1184 0
v -832 -1184 0
v -864 -1216 0
v -896 -1216 0
v -896 -1184 0
v -864 -1184 0
v -896 -1216 0
v -928 -1216 0
v -928 -1184 0
v -896 -1184 0
v -928 -1216 0
v -960 -1216 0
v -960 -1184 0
v -928 -1184 0
v -960 -1216 0
v -992 -1216 0
v -992 -1184 0
v -960 -1184 0
v -992 -1216 0
v -1024 -1216 0
v -1024 -1184 0
v -992 -1184 0
v -1024 -1216 0
v -1056 -1216 0
v -1056 -1184 0
v -1024 -1184 0
v -1056 -1216 0
v -1088 -1216 0
v -1088 -1184 0
v -1056 -1184 0
v -640 -1248 0
v -672 -1248 0
v -672 -1216 0
v -640 -1216 0
v -672 -1248 0
v -704 -1248 0
v -704 -1216 0
v -672 -1216 0
v -704 -1248 0
v -736 -1248 0
v -736 -1216 0
v -704 -1216 0
v -736 -1248 0
v -768 -1248 0
v -768 -1216 0
v -736 -1216 0
v -768 -1248 0
v -800 -1248 0
v -800 -1216 0
v -768 -1216 0
v -800 -1248 0
v -832 -1248 0
v -832 -1216 0
v -800 -1216 0
v -832 -1248 0
v -864 -1248 0
v -864 -1216 0
v -832 -1216 0
v -864 -1248 0
v -896 -1248 0
v -896 -1216 0
v -864 -1216 0
v -896 -1248 0
v -928 -1248 0
v -928 -1216 0
v -896 -1216 0
v -928 -1248 0
v -960 -1248 0
v -960 -1216 0
v -928 -1216 0
v -960 -1248 0
v -992 -1248 0
v -992 -1216 0
v -960 -1216 0
v -992 -1248 0
v -1024 -1248 0
v -1024 -1216 0
v -992 -1216 0
v -1024 -1248 0
v -1056 -1248 0
v -1056 -1216 0
v -1024 -1216 0
v -1056 -1248 0
v -1088 -1248 0
v -1088 -1216 0
v -1056 -1216 0
v -640 -1280 0
v -672 -1280 0
v -672 -1248 0
v -640 -1248 0
v -672 -1280 0
v -704 -1280 0
v -704 -1248 0
v -672 -1248 0
v -704 -1280 0
v -736 -1280 0
v -736 -1248 0
v -704 -1248 0
v -736 -1280 0
v -768 -1280 0
v -768 -1248 0
v -736 -1248 0
v -768 -1280 0
v -800 -1280 0
v -800 -1248 0
v -768 -1248 0
v -800 -1280 0
v -832 -1280 0
v -832 -1248 0
v -800 -1248 0
v -832 -1280 0
v -864 -1280 0
v -864 -1248 0
v -832 -1248 0
v -864 -1280 0
v -896 -1280 0
v -896 -1248 0
v -864 -1248 0
v -896 -1280 0
v -928 -1280 0
v -928 -1248 0
v -896 -1248 0
v -928 -1280 0
v -960 -1280 0
v -960 -1248 0
v -928 -1248 0
v -960 -1280 0
v -992 -1280 0
v -992 -1248 0
v -960 -1248 0
v -992 -1280 0
v -1024 -1280 0
v -1024 -1248 0
v -992 -1248 0
v -1024 -1280 0
v -1056 -1280 0
v -1056 -1248 0
v -1024 -1248 0
v -1056 -1280 0
v -1088 -1280 0
v -1088 -1248 0
v -1056 -1248 0
v -640 -1312 0
v -672 -1312 0
v -672 -1280 0
v -640 -1280 0
v -672 -1312 0
v -704 -1312 0
v -704 -1280 0
v -672 -1280 0
v -704 -1312 0
v -736 -1312 0
v -736 -1280 0
v -704 -1280 0
v -736 -1312 0
v -768 -1312 0
v -768 -1280 0
v -736 -1280 0
v -768 -1312 0
v -800 -1312 0
v -800 -1280 0
v -768 -1280 0
v -800 -1312 0
v -832 -1312 0
v -832 -1280 0
v -800 -1280 0
v -832 -1312 0
v -864 -1312 0
v -864 -1280 0
v -832 -1280 0
v -864 -1312 0
v -896 -1312 0
v -896 -1280 0
v -864 -1280 0
v -896 -1312 0
v -928 -1312 0
v -928 -1280 0
v -896 -1280 0
v -928 -1312 0
v -960 -1312 0
v -960 -1280 0
v -928 -1280 0
v -960 -1312 0
v -992 -1312 0
v -992 -1280 0
v -960 -1280 0
v -992 -1312 0
v -1024 -1312 0
v -1024 -1280 0
v -992 -1280 0
v -1024 -1312 0
v -1056 -1312 0
v -1056 -1280 0
v -1024 -1280 0
v -1056 -1312 0
v -1088 -1312 0
v -1088 -1280 0
v -1056 -1280 0
v -640 -1344 0
v -672 -1344 0
v -672 -1312 0
v -640 -1312 0
v -672 -1344 0
v -704 -1344 0
v -704 -1312 0
v -672 -1312 0
v -704 -1344 0
v -736 -1344 0
v -736 -1312 0
v -704 -1312 0
v -736 -1344 0
v -768 -1344 0
v -768 -1312 0
v -736 -1312 0
v -768 -1344 0
v -800 -1344 0
v -800 -1312 0
v -768 -1312 0
v -800 -1344 0
v -832 -1344 0
v -832 -1312 0
v -800 -1312 0
v -832 -1344 0
v -864 -1344 0
v -864 -1312 0
v -832 -1312 0
v -864 -1344 0
v -896 -1344 0
v -896 -1312 0
v -864 -1312 0
v -896 -1344 0
v -928 -1344 0
v -928 -1312 0
v -896 -1312 0
v -928 -1344 0
v -960 -1344 0
v -960 -1312 0
v -928 -1312 0
v -960 -1344 0
v -992 -1344 0
v -992 -1312 0
v -960 -1312 0
v -992 -1344 0
v -1024 -1344 0
v -1024 -1312 0
v -992 -1312 0
v -1024 -1344 0
v -1056 -1344 0
v -1056 -1312 0
v -1024 -1312 0

# Texture cooridinates (Count = 25)
vt 0.5 0.4545454
vt 0.5833333 0.4545454
vt 0.5833333 0.5454545
vt 0.5 0.5454545
vt 0.6666667 0.4545454
vt 0.6666667 0.5454545
vt 0.75 0.4545454
vt 0.75 0.5454545
vt 0.5 0.2727273
vt 0.5833333 0.2727273
vt 0.5833333 0.3636364
vt 0.5 0.3636364
vt 0.5833333 0.1818182
vt 0.6666667 0.1818182
vt 0.6666667 0.2727273
vt 0.6666667 0.3636364
vt 0.75 0.3636364
vt 0.5833333 0.09090906
vt 0.6666667 0.09090906
vt 0.8333333 0.3636364
vt 0.8333333 0.4545454
vt 0.9166667 0.3636364
vt 0.9166667 0.4545454
vt 0.5 0.1818182
vt 0.75 0.2727273

# Normal
vn 0 0 -1

# Mesh description
g test_forest_mesh_0002

# Faces
f 1/1/1 2/2/1 3/3/1 4/4/1
f 5/2/1 6/5/1 7/6/1 8/3/1
f 9/2/1 10/5/1 11/6/1 12/3/1
f 13/2/1 14/5/1 15/6/1 16/3/1
f 17/2/1 18/5/1 19/6/1 20/3/1
f 21/2/1 22/5/1 23/6/1 24/3/1
f 25/5/1 26/7/1 27/8/1 28/6/1
f 29/9/1 30/10/1 31/11/1 32/12/1
f 33/13/1 34/14/1 35/15/1 36/10/1
f 37/11/1 38/16/1 39/5/1 40/2/1
f 41/11/1 42/16/1 43/5/1 44/2/1
f 45/11/1 46/16/1 47/5/1 48/2/1
f 49/11/1 50/16/1 51/5/1 52/2/1
f 53/16/1 54/17/1 55/7/1 56/5/1
f 57/1/1 58/2/1 59/3/1 60/4/1
f 61/2/1 62/5/1 63/6/1 64/3/1
f 65/2/1 66/5/1 67/6/1 68/3/1
f 69/18/1 70/19/1 71/14/1 72/13/1
f 73/11/1 74/16/1 75/5/1 76/2/1
f 77/11/1 78/16/1 79/5/1 80/2/1
f 81/11/1 82/16/1 83/5/1 84/2/1
f 85/11/1 86/16/1 87/5/1 88/2/1
f 89/16/1 90/17/1 91/7/1 92/5/1
f 93/17/1 94/20/1 95/21/1 96/7/1
f 97/17/1 98/20/1 99/21/1 100/7/1
f 101/20/1 102/22/1 103/23/1 104/21/1
f 105/1/1 106/2/1 107/3/1 108/4/1
f 109/18/1 110/19/1 111/14/1 112/13/1
f 113/11/1 114/16/1 115/5/1 116/2/1
f 117/11/1 118/16/1 119/5/1 120/2/1
f 121/11/1 122/16/1 123/5/1 124/2/1
f 125/11/1 126/16/1 127/5/1 128/2/1
f 129/11/1 130/16/1 131/5/1 132/2/1
f 133/11/1 134/16/1 135/5/1 136/2/1
f 137/11/1 138/16/1 139/5/1 140/2/1
f 141/16/1 142/17/1 143/7/1 144/5/1
f 145/1/1 146/2/1 147/3/1 148/4/1
f 149/2/1 150/5/1 151/6/1 152/3/1
f 153/18/1 154/19/1 155/14/1 156/13/1
f 157/11/1 158/16/1 159/5/1 160/2/1
f 161/11/1 162/16/1 163/5/1 164/2/1
f 165/11/1 166/16/1 167/5/1 168/2/1
f 169/11/1 170/16/1 171/5/1 172/2/1
f 173/11/1 174/16/1 175/5/1 176/2/1
f 177/11/1 178/16/1 179/5/1 180/2/1
f 181/11/1 182/16/1 183/5/1 184/2/1
f 185/11/1 186/16/1 187/5/1 188/2/1
f 189/16/1 190/17/1 191/7/1 192/5/1
f 193/1/1 194/2/1 195/3/1 196/4/1
f 197/18/1 198/19/1 199/14/1 200/13/1
f 201/11/1 202/16/1 203/5/1 204/2/1
f 205/11/1 206/16/1 207/5/1 208/2/1
f 209/11/1 210/16/1 211/5/1 212/2/1
f 213/11/1 214/16/1 215/5/1 216/2/1
f 217/11/1 218/16/1 219/5/1 220/2/1
f 221/11/1 222/16/1 223/5/1 224/2/1
f 225/11/1 226/16/1 227/5/1 228/2/1
f 229/11/1 230/16/1 231/5/1 232/2/1
f 233/11/1 234/16/1 235/5/1 236/2/1
f 237/11/1 238/16/1 239/5/1 240/2/1
f 241/16/1 242/17/1 243/7/1 244/5/1
f 245/1/1 246/2/1 247/3/1 248/4/1
f 249/18/1 250/19/1 251/14/1 252/13/1
f 253/11/1 254/16/1 255/5/1 256/2/1
f 257/11/1 258/16/1 259/5/1 260/2/1
f 261/11/1 262/16/1 263/5/1 264/2/1
f 265/11/1 266/16/1 267/5/1 268/2/1
f 269/11/1 270/16/1 271/5/1 272/2/1
f 273/11/1 274/16/1 275/5/1 276/2/1
f 277/11/1 278/16/1 279/5/1 280/2/1
f 281/11/1 282/16/1 283/5/1 284/2/1
f 285/11/1 286/16/1 287/5/1 288/2/1
f 289/11/1 290/16/1 291/5/1 292/2/1
f 293/11/1 294/16/1 295/5/1 296/2/1
f 297/16/1 298/17/1 299/7/1 300/5/1
f 301/12/1 302/11/1 303/2/1 304/1/1
f 305/11/1 306/16/1 307/5/1 308/2/1
f 309/11/1 310/16/1 311/5/1 312/2/1
f 313/11/1 314/16/1 315/5/1 316/2/1
f 317/11/1 318/16/1 319/5/1 320/2/1
f 321/11/1 322/16/1 323/5/1 324/2/1
f 325/11/1 326/16/1 327/5/1 328/2/1
f 329/11/1 330/16/1 331/5/1 332/2/1
f 333/11/1 334/16/1 335/5/1 336/2/1
f 337/11/1 338/16/1 339/5/1 340/2/1
f 341/11/1 342/16/1 343/5/1 344/2/1
f 345/11/1 346/16/1 347/5/1 348/2/1
f 349/11/1 350/16/1 351/5/1 352/2/1
f 353/16/1 354/17/1 355/7/1 356/5/1
f 357/12/1 358/11/1 359/2/1 360/1/1
f 361/11/1 362/16/1 363/5/1 364/2/1
f 365/11/1 366/16/1 367/5/1 368/2/1
f 369/11/1 370/16/1 371/5/1 372/2/1
f 373/11/1 374/16/1 375/5/1 376/2/1
f 377/11/1 378/16/1 379/5/1 380/2/1
f 381/11/1 382/16/1 383/5/1 384/2/1
f 385/11/1 386/16/1 387/5/1 388/2/1
f 389/11/1 390/16/1 391/5/1 392/2/1
f 393/11/1 394/16/1 395/5/1 396/2/1
f 397/11/1 398/16/1 399/5/1 400/2/1
f 401/11/1 402/16/1 403/5/1 404/2/1
f 405/24/1 406/13/1 407/10/1 408/9/1
f 409/15/1 410/25/1 411/17/1 412/16/1
f 413/9/1 414/10/1 415/11/1 416/12/1
f 417/10/1 418/15/1 419/16/1 420/11/1
f 421/10/1 422/15/1 423/16/1 424/11/1
f 425/10/1 426/15/1 427/16/1 428/11/1
f 429/10/1 430/15/1 431/16/1 432/11/1
f 433/10/1 434/15/1 435/16/1 436/11/1
f 437/10/1 438/15/1 439/16/1 440/11/1
f 441/10/1 442/15/1 443/16/1 444/11/1
f 445/10/1 446/15/1 447/16/1 448/11/1
f 449/10/1 450/15/1 451/16/1 452/11/1
f 453/10/1 454/15/1 455/16/1 456/11/1
f 457/10/1 458/15/1 459/16/1 460/11/1
f 461/15/1 462/25/1 463/17/1 464/16/1

