# Tiled2Unity generated file. Do not modify by hand.
# Wavefront file for 'LB_Tower_mesh_0004.obj'

# Vertices (Count = 124)
v -672 -320 0
v -704 -320 0
v -704 -288 0
v -672 -288 0
v -1152 -352 0
v -1184 -352 0
v -1184 -320 0
v -1152 -320 0
v -1856 -640 0
v -1888 -640 0
v -1888 -608 0
v -1856 -608 0
v -1824 -672 0
v -1856 -672 0
v -1856 -640 0
v -1824 -640 0
v -1792 -704 0
v -1824 -704 0
v -1824 -672 0
v -1792 -672 0
v -1824 -704 0
v -1856 -704 0
v -1856 -672 0
v -1824 -672 0
v -1760 -736 0
v -1792 -736 0
v -1792 -704 0
v -1760 -704 0
v -1792 -736 0
v -1824 -736 0
v -1824 -704 0
v -1792 -704 0
v -1728 -768 0
v -1760 -768 0
v -1760 -736 0
v -1728 -736 0
v -1696 -800 0
v -1728 -800 0
v -1728 -768 0
v -1696 -768 0
v -1728 -800 0
v -1760 -800 0
v -1760 -768 0
v -1728 -768 0
v -1664 -832 0
v -1696 -832 0
v -1696 -800 0
v -1664 -800 0
v -1664 -864 0
v -1696 -864 0
v -1696 -832 0
v -1664 -832 0
v -1696 -864 0
v -1728 -864 0
v -1728 -832 0
v -1696 -832 0
v -1344 -896 0
v -1376 -896 0
v -1376 -864 0
v -1344 -864 0
v -1376 -896 0
v -1408 -896 0
v -1408 -864 0
v -1376 -864 0
v -1696 -896 0
v -1728 -896 0
v -1728 -864 0
v -1696 -864 0
v -1728 -896 0
v -1760 -896 0
v -1760 -864 0
v -1728 -864 0
v -1728 -928 0
v -1760 -928 0
v -1760 -896 0
v -1728 -896 0
v -1760 -928 0
v -1792 -928 0
v -1792 -896 0
v -1760 -896 0
v -1856 -960 0
v -1888 -960 0
v -1888 -928 0
v -1856 -928 0
v -1824 -992 0
v -1856 -992 0
v -1856 -960 0
v -1824 -960 0
v -1856 -992 0
v -1888 -992 0
v -1888 -960 0
v -1856 -960 0
v -1792 -1024 0
v -1824 -1024 0
v -1824 -992 0
v -1792 -992 0
v -1824 -1024 0
v -1856 -1024 0
v -1856 -992 0
v -1824 -992 0
v -1760 -1056 0
v -1792 -1056 0
v -1792 -1024 0
v -1760 -1024 0
v -1792 -1056 0
v -1824 -1056 0
v -1824 -1024 0
v -1792 -1024 0
v -1728 -1088 0
v -1760 -1088 0
v -1760 -1056 0
v -1728 -1056 0
v -1760 -1088 0
v -1792 -1088 0
v -1792 -1056 0
v -1760 -1056 0
v -1696 -1120 0
v -1728 -1120 0
v -1728 -1088 0
v -1696 -1088 0
v -1728 -1120 0
v -1760 -1120 0
v -1760 -1088 0
v -1728 -1088 0

# Texture cooridinates (Count = 15)
vt 0.7 0.8
vt 0.8 0.8
vt 0.8 0.9
vt 0.7 0.9
vt 0.5 0.6
vt 0.6 0.6
vt 0.6 0.7
vt 0.5 0.7
vt 0.7 0.7
vt 0.6 0.8
vt 0.8 0.7
vt 0.5 0.4
vt 0.6 0.4
vt 0.6 0.5
vt 0.5 0.5

# Normal
vn 0 0 -1

# Mesh description
g LB_Tower_mesh_0004

# Faces
f 1/1/1 2/2/1 3/3/1 4/4/1
f 5/5/1 6/6/1 7/7/1 8/8/1
f 9/7/1 10/9/1 11/1/1 12/10/1
f 13/7/1 14/9/1 15/1/1 16/10/1
f 17/7/1 18/9/1 19/1/1 20/10/1
f 21/9/1 22/11/1 23/2/1 24/1/1
f 25/7/1 26/9/1 27/1/1 28/10/1
f 29/9/1 30/11/1 31/2/1 32/1/1
f 33/7/1 34/9/1 35/1/1 36/10/1
f 37/7/1 38/9/1 39/1/1 40/10/1
f 41/9/1 42/11/1 43/2/1 44/1/1
f 45/9/1 46/7/1 47/10/1 48/1/1
f 49/11/1 50/9/1 51/1/1 52/2/1
f 53/9/1 54/7/1 55/10/1 56/1/1
f 57/12/1 58/13/1 59/14/1 60/15/1
f 61/12/1 62/13/1 63/14/1 64/15/1
f 65/11/1 66/9/1 67/1/1 68/2/1
f 69/9/1 70/7/1 71/10/1 72/1/1
f 73/11/1 74/9/1 75/1/1 76/2/1
f 77/9/1 78/7/1 79/10/1 80/1/1
f 81/7/1 82/9/1 83/1/1 84/10/1
f 85/7/1 86/9/1 87/1/1 88/10/1
f 89/9/1 90/11/1 91/2/1 92/1/1
f 93/7/1 94/9/1 95/1/1 96/10/1
f 97/9/1 98/11/1 99/2/1 100/1/1
f 101/7/1 102/9/1 103/1/1 104/10/1
f 105/9/1 106/11/1 107/2/1 108/1/1
f 109/7/1 110/9/1 111/1/1 112/10/1
f 113/9/1 114/11/1 115/2/1 116/1/1
f 117/7/1 118/9/1 119/1/1 120/10/1
f 121/9/1 122/11/1 123/2/1 124/1/1

