# Tiled2Unity generated file. Do not modify by hand.
# Wavefront file for 'PL_Boss_mesh_0001.obj'

# Vertices (Count = 56)
v -128 -1120 0
v -160 -1120 0
v -160 -1088 0
v -128 -1088 0
v -160 -1120 0
v -192 -1120 0
v -192 -1088 0
v -160 -1088 0
v -192 -1120 0
v -224 -1120 0
v -224 -1088 0
v -192 -1088 0
v -224 -1120 0
v -256 -1120 0
v -256 -1088 0
v -224 -1088 0
v -256 -1120 0
v -288 -1120 0
v -288 -1088 0
v -256 -1088 0
v -288 -1120 0
v -320 -1120 0
v -320 -1088 0
v -288 -1088 0
v -320 -1120 0
v -352 -1120 0
v -352 -1088 0
v -320 -1088 0
v -128 -1152 0
v -160 -1152 0
v -160 -1120 0
v -128 -1120 0
v -160 -1152 0
v -192 -1152 0
v -192 -1120 0
v -160 -1120 0
v -192 -1152 0
v -224 -1152 0
v -224 -1120 0
v -192 -1120 0
v -224 -1152 0
v -256 -1152 0
v -256 -1120 0
v -224 -1120 0
v -256 -1152 0
v -288 -1152 0
v -288 -1120 0
v -256 -1120 0
v -288 -1152 0
v -320 -1152 0
v -320 -1120 0
v -288 -1120 0
v -320 -1152 0
v -352 -1152 0
v -352 -1120 0
v -320 -1120 0

# Texture cooridinates (Count = 16)
vt 0.7 0.9
vt 0.8 0.9
vt 0.8 1
vt 0.7 1
vt 0.9 0.9
vt 0.9 1
vt 1 0.9
vt 1 1
vt 0.7 0.7
vt 0.8 0.7
vt 0.8 0.8
vt 0.7 0.8
vt 0.9 0.7
vt 0.9 0.8
vt 1 0.7
vt 1 0.8

# Normal
vn 0 0 -1

# Mesh description
g PL_Boss_mesh_0001

# Faces
f 1/1/1 2/2/1 3/3/1 4/4/1
f 5/2/1 6/5/1 7/6/1 8/3/1
f 9/2/1 10/5/1 11/6/1 12/3/1
f 13/2/1 14/5/1 15/6/1 16/3/1
f 17/2/1 18/5/1 19/6/1 20/3/1
f 21/2/1 22/5/1 23/6/1 24/3/1
f 25/5/1 26/7/1 27/8/1 28/6/1
f 29/9/1 30/10/1 31/11/1 32/12/1
f 33/10/1 34/13/1 35/14/1 36/11/1
f 37/10/1 38/13/1 39/14/1 40/11/1
f 41/10/1 42/13/1 43/14/1 44/11/1
f 45/10/1 46/13/1 47/14/1 48/11/1
f 49/10/1 50/13/1 51/14/1 52/11/1
f 53/13/1 54/15/1 55/16/1 56/14/1

