# Tiled2Unity generated file. Do not modify by hand.
# Wavefront file for 'LB_Outskirts_mesh_0002.obj'

# Vertices (Count = 688)
v -192 -224 0
v -224 -224 0
v -224 -192 0
v -192 -192 0
v -224 -224 0
v -256 -224 0
v -256 -192 0
v -224 -192 0
v -256 -224 0
v -288 -224 0
v -288 -192 0
v -256 -192 0
v -288 -224 0
v -320 -224 0
v -320 -192 0
v -288 -192 0
v -320 -224 0
v -352 -224 0
v -352 -192 0
v -320 -192 0
v -192 -256 0
v -224 -256 0
v -224 -224 0
v -192 -224 0
v -224 -256 0
v -256 -256 0
v -256 -224 0
v -224 -224 0
v -256 -256 0
v -288 -256 0
v -288 -224 0
v -256 -224 0
v -288 -256 0
v -320 -256 0
v -320 -224 0
v -288 -224 0
v -320 -256 0
v -352 -256 0
v -352 -224 0
v -320 -224 0
v -192 -288 0
v -224 -288 0
v -224 -256 0
v -192 -256 0
v -224 -288 0
v -256 -288 0
v -256 -256 0
v -224 -256 0
v -256 -288 0
v -288 -288 0
v -288 -256 0
v -256 -256 0
v -288 -288 0
v -320 -288 0
v -320 -256 0
v -288 -256 0
v -320 -288 0
v -352 -288 0
v -352 -256 0
v -320 -256 0
v -288 -320 0
v -320 -320 0
v -320 -288 0
v -288 -288 0
v -320 -320 0
v -352 -320 0
v -352 -288 0
v -320 -288 0
v -352 -320 0
v -384 -320 0
v -384 -288 0
v -352 -288 0
v -288 -352 0
v -320 -352 0
v -320 -320 0
v -288 -320 0
v -320 -352 0
v -352 -352 0
v -352 -320 0
v -320 -320 0
v -352 -352 0
v -384 -352 0
v -384 -320 0
v -352 -320 0
v -288 -384 0
v -320 -384 0
v -320 -352 0
v -288 -352 0
v -320 -384 0
v -352 -384 0
v -352 -352 0
v -320 -352 0
v -352 -384 0
v -384 -384 0
v -384 -352 0
v -352 -352 0
v -288 -416 0
v -320 -416 0
v -320 -384 0
v -288 -384 0
v -320 -416 0
v -352 -416 0
v -352 -384 0
v -320 -384 0
v -352 -416 0
v -384 -416 0
v -384 -384 0
v -352 -384 0
v -384 -416 0
v -416 -416 0
v -416 -384 0
v -384 -384 0
v -416 -416 0
v -448 -416 0
v -448 -384 0
v -416 -384 0
v -448 -416 0
v -480 -416 0
v -480 -384 0
v -448 -384 0
v -480 -416 0
v -512 -416 0
v -512 -384 0
v -480 -384 0
v -512 -416 0
v -544 -416 0
v -544 -384 0
v -512 -384 0
v -544 -416 0
v -576 -416 0
v -576 -384 0
v -544 -384 0
v -576 -416 0
v -608 -416 0
v -608 -384 0
v -576 -384 0
v -608 -416 0
v -640 -416 0
v -640 -384 0
v -608 -384 0
v -640 -416 0
v -672 -416 0
v -672 -384 0
v -640 -384 0
v -672 -416 0
v -704 -416 0
v -704 -384 0
v -672 -384 0
v -704 -416 0
v -736 -416 0
v -736 -384 0
v -704 -384 0
v -736 -416 0
v -768 -416 0
v -768 -384 0
v -736 -384 0
v -768 -416 0
v -800 -416 0
v -800 -384 0
v -768 -384 0
v -800 -416 0
v -832 -416 0
v -832 -384 0
v -800 -384 0
v -832 -416 0
v -864 -416 0
v -864 -384 0
v -832 -384 0
v -288 -448 0
v -320 -448 0
v -320 -416 0
v -288 -416 0
v -320 -448 0
v -352 -448 0
v -352 -416 0
v -320 -416 0
v -352 -448 0
v -384 -448 0
v -384 -416 0
v -352 -416 0
v -384 -448 0
v -416 -448 0
v -416 -416 0
v -384 -416 0
v -416 -448 0
v -448 -448 0
v -448 -416 0
v -416 -416 0
v -448 -448 0
v -480 -448 0
v -480 -416 0
v -448 -416 0
v -480 -448 0
v -512 -448 0
v -512 -416 0
v -480 -416 0
v -512 -448 0
v -544 -448 0
v -544 -416 0
v -512 -416 0
v -544 -448 0
v -576 -448 0
v -576 -416 0
v -544 -416 0
v -576 -448 0
v -608 -448 0
v -608 -416 0
v -576 -416 0
v -608 -448 0
v -640 -448 0
v -640 -416 0
v -608 -416 0
v -640 -448 0
v -672 -448 0
v -672 -416 0
v -640 -416 0
v -672 -448 0
v -704 -448 0
v -704 -416 0
v -672 -416 0
v -704 -448 0
v -736 -448 0
v -736 -416 0
v -704 -416 0
v -736 -448 0
v -768 -448 0
v -768 -416 0
v -736 -416 0
v -768 -448 0
v -800 -448 0
v -800 -416 0
v -768 -416 0
v -800 -448 0
v -832 -448 0
v -832 -416 0
v -800 -416 0
v -832 -448 0
v -864 -448 0
v -864 -416 0
v -832 -416 0
v -864 -448 0
v -896 -448 0
v -896 -416 0
v -864 -416 0
v 0 -480 0
v -32 -480 0
v -32 -448 0
v 0 -448 0
v -32 -480 0
v -64 -480 0
v -64 -448 0
v -32 -448 0
v -64 -480 0
v -96 -480 0
v -96 -448 0
v -64 -448 0
v -96 -480 0
v -128 -480 0
v -128 -448 0
v -96 -448 0
v -128 -480 0
v -160 -480 0
v -160 -448 0
v -128 -448 0
v -160 -480 0
v -192 -480 0
v -192 -448 0
v -160 -448 0
v -192 -480 0
v -224 -480 0
v -224 -448 0
v -192 -448 0
v -224 -480 0
v -256 -480 0
v -256 -448 0
v -224 -448 0
v -256 -480 0
v -288 -480 0
v -288 -448 0
v -256 -448 0
v -288 -480 0
v -320 -480 0
v -320 -448 0
v -288 -448 0
v -320 -480 0
v -352 -480 0
v -352 -448 0
v -320 -448 0
v -352 -480 0
v -384 -480 0
v -384 -448 0
v -352 -448 0
v -384 -480 0
v -416 -480 0
v -416 -448 0
v -384 -448 0
v -416 -480 0
v -448 -480 0
v -448 -448 0
v -416 -448 0
v -448 -480 0
v -480 -480 0
v -480 -448 0
v -448 -448 0
v -480 -480 0
v -512 -480 0
v -512 -448 0
v -480 -448 0
v -512 -480 0
v -544 -480 0
v -544 -448 0
v -512 -448 0
v -544 -480 0
v -576 -480 0
v -576 -448 0
v -544 -448 0
v -576 -480 0
v -608 -480 0
v -608 -448 0
v -576 -448 0
v -608 -480 0
v -640 -480 0
v -640 -448 0
v -608 -448 0
v -640 -480 0
v -672 -480 0
v -672 -448 0
v -640 -448 0
v -672 -480 0
v -704 -480 0
v -704 -448 0
v -672 -448 0
v -704 -480 0
v -736 -480 0
v -736 -448 0
v -704 -448 0
v -736 -480 0
v -768 -480 0
v -768 -448 0
v -736 -448 0
v -768 -480 0
v -800 -480 0
v -800 -448 0
v -768 -448 0
v -800 -480 0
v -832 -480 0
v -832 -448 0
v -800 -448 0
v -832 -480 0
v -864 -480 0
v -864 -448 0
v -832 -448 0
v -864 -480 0
v -896 -480 0
v -896 -448 0
v -864 -448 0
v 0 -512 0
v -32 -512 0
v -32 -480 0
v 0 -480 0
v -32 -512 0
v -64 -512 0
v -64 -480 0
v -32 -480 0
v -64 -512 0
v -96 -512 0
v -96 -480 0
v -64 -480 0
v -96 -512 0
v -128 -512 0
v -128 -480 0
v -96 -480 0
v -128 -512 0
v -160 -512 0
v -160 -480 0
v -128 -480 0
v -160 -512 0
v -192 -512 0
v -192 -480 0
v -160 -480 0
v -192 -512 0
v -224 -512 0
v -224 -480 0
v -192 -480 0
v -224 -512 0
v -256 -512 0
v -256 -480 0
v -224 -480 0
v -256 -512 0
v -288 -512 0
v -288 -480 0
v -256 -480 0
v -288 -512 0
v -320 -512 0
v -320 -480 0
v -288 -480 0
v -320 -512 0
v -352 -512 0
v -352 -480 0
v -320 -480 0
v -352 -512 0
v -384 -512 0
v -384 -480 0
v -352 -480 0
v -384 -512 0
v -416 -512 0
v -416 -480 0
v -384 -480 0
v -448 -512 0
v -480 -512 0
v -480 -480 0
v -448 -480 0
v -480 -512 0
v -512 -512 0
v -512 -480 0
v -480 -480 0
v -512 -512 0
v -544 -512 0
v -544 -480 0
v -512 -480 0
v -544 -512 0
v -576 -512 0
v -576 -480 0
v -544 -480 0
v -576 -512 0
v -608 -512 0
v -608 -480 0
v -576 -480 0
v -608 -512 0
v -640 -512 0
v -640 -480 0
v -608 -480 0
v -640 -512 0
v -672 -512 0
v -672 -480 0
v -640 -480 0
v -672 -512 0
v -704 -512 0
v -704 -480 0
v -672 -480 0
v -704 -512 0
v -736 -512 0
v -736 -480 0
v -704 -480 0
v -736 -512 0
v -768 -512 0
v -768 -480 0
v -736 -480 0
v -768 -512 0
v -800 -512 0
v -800 -480 0
v -768 -480 0
v -800 -512 0
v -832 -512 0
v -832 -480 0
v -800 -480 0
v -832 -512 0
v -864 -512 0
v -864 -480 0
v -832 -480 0
v -864 -512 0
v -896 -512 0
v -896 -480 0
v -864 -480 0
v 0 -544 0
v -32 -544 0
v -32 -512 0
v 0 -512 0
v -32 -544 0
v -64 -544 0
v -64 -512 0
v -32 -512 0
v -64 -544 0
v -96 -544 0
v -96 -512 0
v -64 -512 0
v -96 -544 0
v -128 -544 0
v -128 -512 0
v -96 -512 0
v -128 -544 0
v -160 -544 0
v -160 -512 0
v -128 -512 0
v -160 -544 0
v -192 -544 0
v -192 -512 0
v -160 -512 0
v -192 -544 0
v -224 -544 0
v -224 -512 0
v -192 -512 0
v -224 -544 0
v -256 -544 0
v -256 -512 0
v -224 -512 0
v -256 -544 0
v -288 -544 0
v -288 -512 0
v -256 -512 0
v -288 -544 0
v -320 -544 0
v -320 -512 0
v -288 -512 0
v -320 -544 0
v -352 -544 0
v -352 -512 0
v -320 -512 0
v -352 -544 0
v -384 -544 0
v -384 -512 0
v -352 -512 0
v -384 -544 0
v -416 -544 0
v -416 -512 0
v -384 -512 0
v -512 -544 0
v -544 -544 0
v -544 -512 0
v -512 -512 0
v -544 -544 0
v -576 -544 0
v -576 -512 0
v -544 -512 0
v -576 -544 0
v -608 -544 0
v -608 -512 0
v -576 -512 0
v -608 -544 0
v -640 -544 0
v -640 -512 0
v -608 -512 0
v -640 -544 0
v -672 -544 0
v -672 -512 0
v -640 -512 0
v -672 -544 0
v -704 -544 0
v -704 -512 0
v -672 -512 0
v -704 -544 0
v -736 -544 0
v -736 -512 0
v -704 -512 0
v -736 -544 0
v -768 -544 0
v -768 -512 0
v -736 -512 0
v -768 -544 0
v -800 -544 0
v -800 -512 0
v -768 -512 0
v -800 -544 0
v -832 -544 0
v -832 -512 0
v -800 -512 0
v -832 -544 0
v -864 -544 0
v -864 -512 0
v -832 -512 0
v -864 -544 0
v -896 -544 0
v -896 -512 0
v -864 -512 0
v -896 -544 0
v -928 -544 0
v -928 -512 0
v -896 -512 0
v -928 -544 0
v -960 -544 0
v -960 -512 0
v -928 -512 0
v -960 -544 0
v -992 -544 0
v -992 -512 0
v -960 -512 0
v -544 -576 0
v -576 -576 0
v -576 -544 0
v -544 -544 0
v -576 -576 0
v -608 -576 0
v -608 -544 0
v -576 -544 0
v -608 -576 0
v -640 -576 0
v -640 -544 0
v -608 -544 0
v -640 -576 0
v -672 -576 0
v -672 -544 0
v -640 -544 0
v -672 -576 0
v -704 -576 0
v -704 -544 0
v -672 -544 0
v -704 -576 0
v -736 -576 0
v -736 -544 0
v -704 -544 0
v -736 -576 0
v -768 -576 0
v -768 -544 0
v -736 -544 0
v -768 -576 0
v -800 -576 0
v -800 -544 0
v -768 -544 0
v -800 -576 0
v -832 -576 0
v -832 -544 0
v -800 -544 0
v -832 -576 0
v -864 -576 0
v -864 -544 0
v -832 -544 0
v -864 -576 0
v -896 -576 0
v -896 -544 0
v -864 -544 0
v -896 -576 0
v -928 -576 0
v -928 -544 0
v -896 -544 0
v -928 -576 0
v -960 -576 0
v -960 -544 0
v -928 -544 0
v -960 -576 0
v -992 -576 0
v -992 -544 0
v -960 -544 0
v -544 -608 0
v -576 -608 0
v -576 -576 0
v -544 -576 0
v -576 -608 0
v -608 -608 0
v -608 -576 0
v -576 -576 0
v -608 -608 0
v -640 -608 0
v -640 -576 0
v -608 -576 0
v -640 -608 0
v -672 -608 0
v -672 -576 0
v -640 -576 0
v -672 -608 0
v -704 -608 0
v -704 -576 0
v -672 -576 0
v -704 -608 0
v -736 -608 0
v -736 -576 0
v -704 -576 0
v -736 -608 0
v -768 -608 0
v -768 -576 0
v -736 -576 0
v -768 -608 0
v -800 -608 0
v -800 -576 0
v -768 -576 0
v -800 -608 0
v -832 -608 0
v -832 -576 0
v -800 -576 0
v -832 -608 0
v -864 -608 0
v -864 -576 0
v -832 -576 0
v -864 -608 0
v -896 -608 0
v -896 -576 0
v -864 -576 0
v -896 -608 0
v -928 -608 0
v -928 -576 0
v -896 -576 0
v -928 -608 0
v -960 -608 0
v -960 -576 0
v -928 -576 0
v -960 -608 0
v -992 -608 0
v -992 -576 0
v -960 -576 0

# Texture cooridinates (Count = 26)
vt 0 0.4
vt 0.1 0.4
vt 0.1 0.5
vt 0 0.5
vt 0.2 0.4
vt 0.2 0.5
vt 0.3 0.4
vt 0.3 0.5
vt 0 0.3
vt 0.1 0.3
vt 0.3 0.3
vt 0.4 0.3
vt 0.4 0.4
vt 0.4 0.5
vt 0.2 0.3
vt 0 0.2
vt 0.1 0.2
vt 0.2 0.2
vt 0.3 0.2
vt 0.4 0.2
vt 0 0
vt 0.1 0
vt 0.1 0.1
vt 0 0.1
vt 0.2 0
vt 0.2 0.1

# Normal
vn 0 0 -1

# Mesh description
g LB_Outskirts_mesh_0002

# Faces
f 1/1/1 2/2/1 3/3/1 4/4/1
f 5/2/1 6/5/1 7/6/1 8/3/1
f 9/2/1 10/5/1 11/6/1 12/3/1
f 13/2/1 14/5/1 15/6/1 16/3/1
f 17/5/1 18/7/1 19/8/1 20/6/1
f 21/9/1 22/10/1 23/2/1 24/1/1
f 25/11/1 26/12/1 27/13/1 28/7/1
f 29/7/1 30/13/1 31/14/1 32/8/1
f 33/7/1 34/13/1 35/14/1 36/8/1
f 37/15/1 38/11/1 39/7/1 40/5/1
f 41/16/1 42/17/1 43/10/1 44/9/1
f 45/17/1 46/18/1 47/15/1 48/10/1
f 49/17/1 50/18/1 51/15/1 52/10/1
f 53/17/1 54/18/1 55/15/1 56/10/1
f 57/18/1 58/19/1 59/11/1 60/15/1
f 61/1/1 62/2/1 63/3/1 64/4/1
f 65/2/1 66/5/1 67/6/1 68/3/1
f 69/5/1 70/7/1 71/8/1 72/6/1
f 73/9/1 74/10/1 75/2/1 76/1/1
f 77/10/1 78/15/1 79/5/1 80/2/1
f 81/15/1 82/11/1 83/7/1 84/5/1
f 85/16/1 86/17/1 87/10/1 88/9/1
f 89/17/1 90/18/1 91/15/1 92/10/1
f 93/18/1 94/19/1 95/11/1 96/15/1
f 97/1/1 98/2/1 99/3/1 100/4/1
f 101/2/1 102/5/1 103/6/1 104/3/1
f 105/2/1 106/5/1 107/6/1 108/3/1
f 109/2/1 110/5/1 111/6/1 112/3/1
f 113/2/1 114/5/1 115/6/1 116/3/1
f 117/2/1 118/5/1 119/6/1 120/3/1
f 121/2/1 122/5/1 123/6/1 124/3/1
f 125/2/1 126/5/1 127/6/1 128/3/1
f 129/2/1 130/5/1 131/6/1 132/3/1
f 133/2/1 134/5/1 135/6/1 136/3/1
f 137/2/1 138/5/1 139/6/1 140/3/1
f 141/2/1 142/5/1 143/6/1 144/3/1
f 145/2/1 146/5/1 147/6/1 148/3/1
f 149/5/1 150/7/1 151/8/1 152/6/1
f 153/1/1 154/2/1 155/3/1 156/4/1
f 157/2/1 158/5/1 159/6/1 160/3/1
f 161/2/1 162/5/1 163/6/1 164/3/1
f 165/5/1 166/7/1 167/8/1 168/6/1
f 169/9/1 170/10/1 171/2/1 172/1/1
f 173/19/1 174/20/1 175/12/1 176/11/1
f 177/10/1 178/15/1 179/5/1 180/2/1
f 181/7/1 182/13/1 183/14/1 184/8/1
f 185/7/1 186/13/1 187/14/1 188/8/1
f 189/10/1 190/15/1 191/5/1 192/2/1
f 193/10/1 194/15/1 195/5/1 196/2/1
f 197/11/1 198/12/1 199/13/1 200/7/1
f 201/7/1 202/13/1 203/14/1 204/8/1
f 205/11/1 206/12/1 207/13/1 208/7/1
f 209/7/1 210/13/1 211/14/1 212/8/1
f 213/19/1 214/20/1 215/12/1 216/11/1
f 217/10/1 218/15/1 219/5/1 220/2/1
f 221/15/1 222/11/1 223/7/1 224/5/1
f 225/9/1 226/10/1 227/2/1 228/1/1
f 229/19/1 230/20/1 231/12/1 232/11/1
f 233/10/1 234/15/1 235/5/1 236/2/1
f 237/21/1 238/22/1 239/23/1 240/24/1
f 241/5/1 242/7/1 243/8/1 244/6/1
f 245/1/1 246/2/1 247/3/1 248/4/1
f 249/2/1 250/5/1 251/6/1 252/3/1
f 253/2/1 254/5/1 255/6/1 256/3/1
f 257/2/1 258/5/1 259/6/1 260/3/1
f 261/2/1 262/5/1 263/6/1 264/3/1
f 265/2/1 266/5/1 267/6/1 268/3/1
f 269/2/1 270/5/1 271/6/1 272/3/1
f 273/2/1 274/5/1 275/6/1 276/3/1
f 277/2/1 278/5/1 279/6/1 280/3/1
f 281/22/1 282/25/1 283/26/1 284/23/1
f 285/10/1 286/15/1 287/5/1 288/2/1
f 289/19/1 290/20/1 291/12/1 292/11/1
f 293/24/1 294/23/1 295/17/1 296/16/1
f 297/17/1 298/18/1 299/15/1 300/10/1
f 301/23/1 302/26/1 303/18/1 304/17/1
f 305/11/1 306/12/1 307/13/1 308/7/1
f 309/19/1 310/20/1 311/12/1 312/11/1
f 313/19/1 314/20/1 315/12/1 316/11/1
f 317/7/1 318/13/1 319/14/1 320/8/1
f 321/10/1 322/15/1 323/5/1 324/2/1
f 325/10/1 326/15/1 327/5/1 328/2/1
f 329/7/1 330/13/1 331/14/1 332/8/1
f 333/15/1 334/11/1 335/7/1 336/5/1
f 337/9/1 338/10/1 339/2/1 340/1/1
f 341/19/1 342/20/1 343/12/1 344/11/1
f 345/10/1 346/15/1 347/5/1 348/2/1
f 349/7/1 350/13/1 351/14/1 352/8/1
f 353/15/1 354/11/1 355/7/1 356/5/1
f 357/9/1 358/10/1 359/2/1 360/1/1
f 361/19/1 362/20/1 363/12/1 364/11/1
f 365/10/1 366/15/1 367/5/1 368/2/1
f 369/11/1 370/12/1 371/13/1 372/7/1
f 373/10/1 374/15/1 375/5/1 376/2/1
f 377/19/1 378/20/1 379/12/1 380/11/1
f 381/7/1 382/13/1 383/14/1 384/8/1
f 385/11/1 386/12/1 387/13/1 388/7/1
f 389/10/1 390/15/1 391/5/1 392/2/1
f 393/7/1 394/13/1 395/14/1 396/8/1
f 397/7/1 398/13/1 399/14/1 400/8/1
f 401/10/1 402/15/1 403/5/1 404/2/1
f 405/15/1 406/11/1 407/7/1 408/5/1
f 409/16/1 410/17/1 411/10/1 412/9/1
f 413/17/1 414/18/1 415/15/1 416/10/1
f 417/23/1 418/26/1 419/18/1 420/17/1
f 421/19/1 422/20/1 423/12/1 424/11/1
f 425/19/1 426/20/1 427/12/1 428/11/1
f 429/10/1 430/15/1 431/5/1 432/2/1
f 433/11/1 434/12/1 435/13/1 436/7/1
f 437/11/1 438/12/1 439/13/1 440/7/1
f 441/15/1 442/11/1 443/7/1 444/5/1
f 445/9/1 446/10/1 447/2/1 448/1/1
f 449/7/1 450/13/1 451/14/1 452/8/1
f 453/19/1 454/20/1 455/12/1 456/11/1
f 457/7/1 458/13/1 459/14/1 460/8/1
f 461/15/1 462/11/1 463/7/1 464/5/1
f 465/16/1 466/17/1 467/10/1 468/9/1
f 469/17/1 470/18/1 471/15/1 472/10/1
f 473/17/1 474/18/1 475/15/1 476/10/1
f 477/17/1 478/18/1 479/15/1 480/10/1
f 481/17/1 482/18/1 483/15/1 484/10/1
f 485/17/1 486/18/1 487/15/1 488/10/1
f 489/17/1 490/18/1 491/15/1 492/10/1
f 493/17/1 494/18/1 495/15/1 496/10/1
f 497/17/1 498/18/1 499/15/1 500/10/1
f 501/17/1 502/18/1 503/15/1 504/10/1
f 505/17/1 506/18/1 507/15/1 508/10/1
f 509/17/1 510/18/1 511/15/1 512/10/1
f 513/18/1 514/19/1 515/11/1 516/15/1
f 517/16/1 518/17/1 519/10/1 520/9/1
f 521/23/1 522/26/1 523/18/1 524/17/1
f 525/10/1 526/15/1 527/5/1 528/2/1
f 529/19/1 530/20/1 531/12/1 532/11/1
f 533/10/1 534/15/1 535/5/1 536/2/1
f 537/7/1 538/13/1 539/14/1 540/8/1
f 541/21/1 542/22/1 543/23/1 544/24/1
f 545/22/1 546/25/1 547/26/1 548/23/1
f 549/19/1 550/20/1 551/12/1 552/11/1
f 553/7/1 554/13/1 555/14/1 556/8/1
f 557/19/1 558/20/1 559/12/1 560/11/1
f 561/15/1 562/11/1 563/7/1 564/5/1
f 565/1/1 566/2/1 567/3/1 568/4/1
f 569/2/1 570/5/1 571/6/1 572/3/1
f 573/5/1 574/7/1 575/8/1 576/6/1
f 577/9/1 578/10/1 579/2/1 580/1/1
f 581/7/1 582/13/1 583/14/1 584/8/1
f 585/10/1 586/15/1 587/5/1 588/2/1
f 589/19/1 590/20/1 591/12/1 592/11/1
f 593/19/1 594/20/1 595/12/1 596/11/1
f 597/19/1 598/20/1 599/12/1 600/11/1
f 601/10/1 602/15/1 603/5/1 604/2/1
f 605/19/1 606/20/1 607/12/1 608/11/1
f 609/7/1 610/13/1 611/14/1 612/8/1
f 613/19/1 614/20/1 615/12/1 616/11/1
f 617/15/1 618/11/1 619/7/1 620/5/1
f 621/9/1 622/10/1 623/2/1 624/1/1
f 625/10/1 626/15/1 627/5/1 628/2/1
f 629/15/1 630/11/1 631/7/1 632/5/1
f 633/16/1 634/17/1 635/10/1 636/9/1
f 637/17/1 638/18/1 639/15/1 640/10/1
f 641/17/1 642/18/1 643/15/1 644/10/1
f 645/17/1 646/18/1 647/15/1 648/10/1
f 649/17/1 650/18/1 651/15/1 652/10/1
f 653/17/1 654/18/1 655/15/1 656/10/1
f 657/17/1 658/18/1 659/15/1 660/10/1
f 661/17/1 662/18/1 663/15/1 664/10/1
f 665/17/1 666/18/1 667/15/1 668/10/1
f 669/17/1 670/18/1 671/15/1 672/10/1
f 673/18/1 674/19/1 675/11/1 676/15/1
f 677/16/1 678/17/1 679/10/1 680/9/1
f 681/17/1 682/18/1 683/15/1 684/10/1
f 685/18/1 686/19/1 687/11/1 688/15/1

