# Tiled2Unity generated file. Do not modify by hand.
# Wavefront file for 'CT_Start_mesh_0006.obj'

# Vertices (Count = 20)
v -640 -640 0
v -672 -640 0
v -672 -608 0
v -640 -608 0
v -672 -640 0
v -704 -640 0
v -704 -608 0
v -672 -608 0
v -928 -640 0
v -960 -640 0
v -960 -608 0
v -928 -608 0
v -672 -1024 0
v -704 -1024 0
v -704 -992 0
v -672 -992 0
v -672 -1056 0
v -704 -1056 0
v -704 -1024 0
v -672 -1024 0

# Texture cooridinates (Count = 8)
vt 0.7 0.6
vt 0.6 0.6
vt 0.6 0.5
vt 0.7 0.5
vt 0.6 0.7
vt 0.7 0.7
vt 0.7 0.8
vt 0.6 0.8

# Normal
vn 0 0 -1

# Mesh description
g CT_Start_mesh_0006

# Faces
f 1/1/1 2/2/1 3/3/1 4/4/1
f 5/1/1 6/2/1 7/3/1 8/4/1
f 9/1/1 10/2/1 11/3/1 12/4/1
f 13/5/1 14/6/1 15/7/1 16/8/1
f 17/6/1 18/5/1 19/8/1 20/7/1

