# Tiled2Unity generated file. Do not modify by hand.
# Wavefront file for 'CT_Start_mesh_0004.obj'

# Vertices (Count = 104)
v -800 -672 0
v -832 -672 0
v -832 -640 0
v -800 -640 0
v -832 -704 0
v -864 -704 0
v -864 -672 0
v -832 -672 0
v -864 -736 0
v -896 -736 0
v -896 -704 0
v -864 -704 0
v -896 -768 0
v -928 -768 0
v -928 -736 0
v -896 -736 0
v -896 -800 0
v -928 -800 0
v -928 -768 0
v -896 -768 0
v -864 -832 0
v -896 -832 0
v -896 -800 0
v -864 -800 0
v -832 -864 0
v -864 -864 0
v -864 -832 0
v -832 -832 0
v -800 -896 0
v -832 -896 0
v -832 -864 0
v -800 -864 0
v -768 -928 0
v -800 -928 0
v -800 -896 0
v -768 -896 0
v -736 -960 0
v -768 -960 0
v -768 -928 0
v -736 -928 0
v -704 -992 0
v -736 -992 0
v -736 -960 0
v -704 -960 0
v -704 -1088 0
v -736 -1088 0
v -736 -1056 0
v -704 -1056 0
v -736 -1120 0
v -768 -1120 0
v -768 -1088 0
v -736 -1088 0
v -768 -1152 0
v -800 -1152 0
v -800 -1120 0
v -768 -1120 0
v -800 -1184 0
v -832 -1184 0
v -832 -1152 0
v -800 -1152 0
v -832 -1216 0
v -864 -1216 0
v -864 -1184 0
v -832 -1184 0
v -864 -1248 0
v -896 -1248 0
v -896 -1216 0
v -864 -1216 0
v -896 -1280 0
v -928 -1280 0
v -928 -1248 0
v -896 -1248 0
v -896 -1312 0
v -928 -1312 0
v -928 -1280 0
v -896 -1280 0
v -864 -1344 0
v -896 -1344 0
v -896 -1312 0
v -864 -1312 0
v -832 -1376 0
v -864 -1376 0
v -864 -1344 0
v -832 -1344 0
v -800 -1408 0
v -832 -1408 0
v -832 -1376 0
v -800 -1376 0
v -768 -1440 0
v -800 -1440 0
v -800 -1408 0
v -768 -1408 0
v -736 -1472 0
v -768 -1472 0
v -768 -1440 0
v -736 -1440 0
v -704 -1504 0
v -736 -1504 0
v -736 -1472 0
v -704 -1472 0
v -672 -1536 0
v -704 -1536 0
v -704 -1504 0
v -672 -1504 0

# Texture cooridinates (Count = 4)
vt 0.7 0.7
vt 0.6 0.7
vt 0.6 0.8
vt 0.7 0.8

# Normal
vn 0 0 -1

# Mesh description
g CT_Start_mesh_0004

# Faces
f 1/1/1 2/2/1 3/3/1 4/4/1
f 5/1/1 6/2/1 7/3/1 8/4/1
f 9/1/1 10/2/1 11/3/1 12/4/1
f 13/1/1 14/2/1 15/3/1 16/4/1
f 17/2/1 18/1/1 19/4/1 20/3/1
f 21/2/1 22/1/1 23/4/1 24/3/1
f 25/2/1 26/1/1 27/4/1 28/3/1
f 29/2/1 30/1/1 31/4/1 32/3/1
f 33/2/1 34/1/1 35/4/1 36/3/1
f 37/2/1 38/1/1 39/4/1 40/3/1
f 41/2/1 42/1/1 43/4/1 44/3/1
f 45/1/1 46/2/1 47/3/1 48/4/1
f 49/1/1 50/2/1 51/3/1 52/4/1
f 53/1/1 54/2/1 55/3/1 56/4/1
f 57/1/1 58/2/1 59/3/1 60/4/1
f 61/1/1 62/2/1 63/3/1 64/4/1
f 65/1/1 66/2/1 67/3/1 68/4/1
f 69/1/1 70/2/1 71/3/1 72/4/1
f 73/2/1 74/1/1 75/4/1 76/3/1
f 77/2/1 78/1/1 79/4/1 80/3/1
f 81/2/1 82/1/1 83/4/1 84/3/1
f 85/2/1 86/1/1 87/4/1 88/3/1
f 89/2/1 90/1/1 91/4/1 92/3/1
f 93/2/1 94/1/1 95/4/1 96/3/1
f 97/2/1 98/1/1 99/4/1 100/3/1
f 101/2/1 102/1/1 103/4/1 104/3/1

