# Tiled2Unity generated file. Do not modify by hand.
# Wavefront file for 'VikramTest_mesh_0002.obj'

# Vertices (Count = 436)
v -1184 -512 0
v -1216 -512 0
v -1216 -480 0
v -1184 -480 0
v -1216 -512 0
v -1248 -512 0
v -1248 -480 0
v -1216 -480 0
v -1248 -512 0
v -1280 -512 0
v -1280 -480 0
v -1248 -480 0
v -1184 -544 0
v -1216 -544 0
v -1216 -512 0
v -1184 -512 0
v -1216 -544 0
v -1248 -544 0
v -1248 -512 0
v -1216 -512 0
v -1248 -544 0
v -1280 -544 0
v -1280 -512 0
v -1248 -512 0
v -1184 -576 0
v -1216 -576 0
v -1216 -544 0
v -1184 -544 0
v -1216 -576 0
v -1248 -576 0
v -1248 -544 0
v -1216 -544 0
v -1248 -576 0
v -1280 -576 0
v -1280 -544 0
v -1248 -544 0
v -1184 -608 0
v -1216 -608 0
v -1216 -576 0
v -1184 -576 0
v -1216 -608 0
v -1248 -608 0
v -1248 -576 0
v -1216 -576 0
v -1248 -608 0
v -1280 -608 0
v -1280 -576 0
v -1248 -576 0
v -1184 -640 0
v -1216 -640 0
v -1216 -608 0
v -1184 -608 0
v -1216 -640 0
v -1248 -640 0
v -1248 -608 0
v -1216 -608 0
v -1248 -640 0
v -1280 -640 0
v -1280 -608 0
v -1248 -608 0
v -1280 -640 0
v -1312 -640 0
v -1312 -608 0
v -1280 -608 0
v -1184 -672 0
v -1216 -672 0
v -1216 -640 0
v -1184 -640 0
v -1216 -672 0
v -1248 -672 0
v -1248 -640 0
v -1216 -640 0
v -1248 -672 0
v -1280 -672 0
v -1280 -640 0
v -1248 -640 0
v -1280 -672 0
v -1312 -672 0
v -1312 -640 0
v -1280 -640 0
v -1184 -704 0
v -1216 -704 0
v -1216 -672 0
v -1184 -672 0
v -1216 -704 0
v -1248 -704 0
v -1248 -672 0
v -1216 -672 0
v -1248 -704 0
v -1280 -704 0
v -1280 -672 0
v -1248 -672 0
v -1280 -704 0
v -1312 -704 0
v -1312 -672 0
v -1280 -672 0
v -1184 -736 0
v -1216 -736 0
v -1216 -704 0
v -1184 -704 0
v -1216 -736 0
v -1248 -736 0
v -1248 -704 0
v -1216 -704 0
v -1248 -736 0
v -1280 -736 0
v -1280 -704 0
v -1248 -704 0
v -1280 -736 0
v -1312 -736 0
v -1312 -704 0
v -1280 -704 0
v -704 -768 0
v -736 -768 0
v -736 -736 0
v -704 -736 0
v -736 -768 0
v -768 -768 0
v -768 -736 0
v -736 -736 0
v -768 -768 0
v -800 -768 0
v -800 -736 0
v -768 -736 0
v -800 -768 0
v -832 -768 0
v -832 -736 0
v -800 -736 0
v -832 -768 0
v -864 -768 0
v -864 -736 0
v -832 -736 0
v -1184 -768 0
v -1216 -768 0
v -1216 -736 0
v -1184 -736 0
v -1216 -768 0
v -1248 -768 0
v -1248 -736 0
v -1216 -736 0
v -1248 -768 0
v -1280 -768 0
v -1280 -736 0
v -1248 -736 0
v -1280 -768 0
v -1312 -768 0
v -1312 -736 0
v -1280 -736 0
v -1184 -800 0
v -1216 -800 0
v -1216 -768 0
v -1184 -768 0
v -1216 -800 0
v -1248 -800 0
v -1248 -768 0
v -1216 -768 0
v -1248 -800 0
v -1280 -800 0
v -1280 -768 0
v -1248 -768 0
v -1280 -800 0
v -1312 -800 0
v -1312 -768 0
v -1280 -768 0
v -1184 -832 0
v -1216 -832 0
v -1216 -800 0
v -1184 -800 0
v -1216 -832 0
v -1248 -832 0
v -1248 -800 0
v -1216 -800 0
v -1248 -832 0
v -1280 -832 0
v -1280 -800 0
v -1248 -800 0
v -1280 -832 0
v -1312 -832 0
v -1312 -800 0
v -1280 -800 0
v -1152 -864 0
v -1184 -864 0
v -1184 -832 0
v -1152 -832 0
v -1184 -864 0
v -1216 -864 0
v -1216 -832 0
v -1184 -832 0
v -1216 -864 0
v -1248 -864 0
v -1248 -832 0
v -1216 -832 0
v -1248 -864 0
v -1280 -864 0
v -1280 -832 0
v -1248 -832 0
v -1152 -896 0
v -1184 -896 0
v -1184 -864 0
v -1152 -864 0
v -1184 -896 0
v -1216 -896 0
v -1216 -864 0
v -1184 -864 0
v -1216 -896 0
v -1248 -896 0
v -1248 -864 0
v -1216 -864 0
v -1248 -896 0
v -1280 -896 0
v -1280 -864 0
v -1248 -864 0
v -800 -928 0
v -832 -928 0
v -832 -896 0
v -800 -896 0
v -832 -928 0
v -864 -928 0
v -864 -896 0
v -832 -896 0
v -864 -928 0
v -896 -928 0
v -896 -896 0
v -864 -896 0
v -896 -928 0
v -928 -928 0
v -928 -896 0
v -896 -896 0
v -928 -928 0
v -960 -928 0
v -960 -896 0
v -928 -896 0
v -992 -928 0
v -1024 -928 0
v -1024 -896 0
v -992 -896 0
v -1024 -928 0
v -1056 -928 0
v -1056 -896 0
v -1024 -896 0
v -1056 -928 0
v -1088 -928 0
v -1088 -896 0
v -1056 -896 0
v -1088 -928 0
v -1120 -928 0
v -1120 -896 0
v -1088 -896 0
v -1120 -928 0
v -1152 -928 0
v -1152 -896 0
v -1120 -896 0
v -1152 -928 0
v -1184 -928 0
v -1184 -896 0
v -1152 -896 0
v -1184 -928 0
v -1216 -928 0
v -1216 -896 0
v -1184 -896 0
v -1216 -928 0
v -1248 -928 0
v -1248 -896 0
v -1216 -896 0
v -1248 -928 0
v -1280 -928 0
v -1280 -896 0
v -1248 -896 0
v -800 -960 0
v -832 -960 0
v -832 -928 0
v -800 -928 0
v -832 -960 0
v -864 -960 0
v -864 -928 0
v -832 -928 0
v -864 -960 0
v -896 -960 0
v -896 -928 0
v -864 -928 0
v -896 -960 0
v -928 -960 0
v -928 -928 0
v -896 -928 0
v -928 -960 0
v -960 -960 0
v -960 -928 0
v -928 -928 0
v -960 -960 0
v -992 -960 0
v -992 -928 0
v -960 -928 0
v -992 -960 0
v -1024 -960 0
v -1024 -928 0
v -992 -928 0
v -1024 -960 0
v -1056 -960 0
v -1056 -928 0
v -1024 -928 0
v -1056 -960 0
v -1088 -960 0
v -1088 -928 0
v -1056 -928 0
v -1088 -960 0
v -1120 -960 0
v -1120 -928 0
v -1088 -928 0
v -1120 -960 0
v -1152 -960 0
v -1152 -928 0
v -1120 -928 0
v -1152 -960 0
v -1184 -960 0
v -1184 -928 0
v -1152 -928 0
v -1184 -960 0
v -1216 -960 0
v -1216 -928 0
v -1184 -928 0
v -1216 -960 0
v -1248 -960 0
v -1248 -928 0
v -1216 -928 0
v -1248 -960 0
v -1280 -960 0
v -1280 -928 0
v -1248 -928 0
v -800 -992 0
v -832 -992 0
v -832 -960 0
v -800 -960 0
v -832 -992 0
v -864 -992 0
v -864 -960 0
v -832 -960 0
v -864 -992 0
v -896 -992 0
v -896 -960 0
v -864 -960 0
v -896 -992 0
v -928 -992 0
v -928 -960 0
v -896 -960 0
v -928 -992 0
v -960 -992 0
v -960 -960 0
v -928 -960 0
v -960 -992 0
v -992 -992 0
v -992 -960 0
v -960 -960 0
v -992 -992 0
v -1024 -992 0
v -1024 -960 0
v -992 -960 0
v -1024 -992 0
v -1056 -992 0
v -1056 -960 0
v -1024 -960 0
v -1056 -992 0
v -1088 -992 0
v -1088 -960 0
v -1056 -960 0
v -1088 -992 0
v -1120 -992 0
v -1120 -960 0
v -1088 -960 0
v -1120 -992 0
v -1152 -992 0
v -1152 -960 0
v -1120 -960 0
v -1152 -992 0
v -1184 -992 0
v -1184 -960 0
v -1152 -960 0
v -1184 -992 0
v -1216 -992 0
v -1216 -960 0
v -1184 -960 0
v -1216 -992 0
v -1248 -992 0
v -1248 -960 0
v -1216 -960 0
v -1248 -992 0
v -1280 -992 0
v -1280 -960 0
v -1248 -960 0
v -864 -1024 0
v -896 -1024 0
v -896 -992 0
v -864 -992 0
v -896 -1024 0
v -928 -1024 0
v -928 -992 0
v -896 -992 0
v -928 -1024 0
v -960 -1024 0
v -960 -992 0
v -928 -992 0
v -960 -1024 0
v -992 -1024 0
v -992 -992 0
v -960 -992 0
v -992 -1024 0
v -1024 -1024 0
v -1024 -992 0
v -992 -992 0
v -1024 -1024 0
v -1056 -1024 0
v -1056 -992 0
v -1024 -992 0
v -1056 -1024 0
v -1088 -1024 0
v -1088 -992 0
v -1056 -992 0
v -1088 -1024 0
v -1120 -1024 0
v -1120 -992 0
v -1088 -992 0
v -1120 -1024 0
v -1152 -1024 0
v -1152 -992 0
v -1120 -992 0
v -1152 -1024 0
v -1184 -1024 0
v -1184 -992 0
v -1152 -992 0
v -1184 -1024 0
v -1216 -1024 0
v -1216 -992 0
v -1184 -992 0
v -1216 -1024 0
v -1248 -1024 0
v -1248 -992 0
v -1216 -992 0

# Texture cooridinates (Count = 24)
vt 0.6 0.6666666
vt 0.7 0.6666666
vt 0.7 1
vt 0.6 1
vt 0.8 0.6666666
vt 0.8 1
vt 0.9 0.6666666
vt 0.9 1
vt 0.6 0.3333333
vt 0.7 0.3333333
vt 0.8 0.3333333
vt 0.9 0.3333333
vt 0.4 0
vt 0.5 0
vt 0.5 0.3333333
vt 0.4 0.3333333
vt 1 0.6666666
vt 1 1
vt 0.5 0.6666666
vt 0.4 0.6666666
vt 0.8 0
vt 0.9 0
vt 0.6 0
vt 0.7 0

# Normal
vn 0 0 -1

# Mesh description
g VikramTest_mesh_0002

# Faces
f 1/1/1 2/2/1 3/3/1 4/4/1
f 5/2/1 6/5/1 7/6/1 8/3/1
f 9/5/1 10/7/1 11/8/1 12/6/1
f 13/9/1 14/10/1 15/2/1 16/1/1
f 17/10/1 18/11/1 19/5/1 20/2/1
f 21/11/1 22/12/1 23/7/1 24/5/1
f 25/9/1 26/10/1 27/2/1 28/1/1
f 29/10/1 30/11/1 31/5/1 32/2/1
f 33/11/1 34/12/1 35/7/1 36/5/1
f 37/9/1 38/10/1 39/2/1 40/1/1
f 41/10/1 42/11/1 43/5/1 44/2/1
f 45/11/1 46/12/1 47/7/1 48/5/1
f 49/9/1 50/10/1 51/2/1 52/1/1
f 53/10/1 54/11/1 55/5/1 56/2/1
f 57/13/1 58/14/1 59/15/1 60/16/1
f 61/5/1 62/7/1 63/8/1 64/6/1
f 65/9/1 66/10/1 67/2/1 68/1/1
f 69/10/1 70/11/1 71/5/1 72/2/1
f 73/10/1 74/11/1 75/5/1 76/2/1
f 77/11/1 78/12/1 79/7/1 80/5/1
f 81/9/1 82/10/1 83/2/1 84/1/1
f 85/10/1 86/11/1 87/5/1 88/2/1
f 89/10/1 90/11/1 91/5/1 92/2/1
f 93/11/1 94/12/1 95/7/1 96/5/1
f 97/9/1 98/10/1 99/2/1 100/1/1
f 101/10/1 102/11/1 103/5/1 104/2/1
f 105/10/1 106/11/1 107/5/1 108/2/1
f 109/11/1 110/12/1 111/7/1 112/5/1
f 113/7/1 114/17/1 115/18/1 116/8/1
f 117/7/1 118/17/1 119/18/1 120/8/1
f 121/7/1 122/17/1 123/18/1 124/8/1
f 125/7/1 126/17/1 127/18/1 128/8/1
f 129/7/1 130/17/1 131/18/1 132/8/1
f 133/9/1 134/10/1 135/2/1 136/1/1
f 137/10/1 138/11/1 139/5/1 140/2/1
f 141/10/1 142/11/1 143/5/1 144/2/1
f 145/11/1 146/12/1 147/7/1 148/5/1
f 149/9/1 150/10/1 151/2/1 152/1/1
f 153/10/1 154/11/1 155/5/1 156/2/1
f 157/10/1 158/11/1 159/5/1 160/2/1
f 161/11/1 162/12/1 163/7/1 164/5/1
f 165/9/1 166/10/1 167/2/1 168/1/1
f 169/10/1 170/11/1 171/5/1 172/2/1
f 173/16/1 174/15/1 175/19/1 176/20/1
f 177/21/1 178/22/1 179/12/1 180/11/1
f 181/1/1 182/2/1 183/3/1 184/4/1
f 185/14/1 186/23/1 187/9/1 188/15/1
f 189/10/1 190/11/1 191/5/1 192/2/1
f 193/11/1 194/12/1 195/7/1 196/5/1
f 197/9/1 198/10/1 199/2/1 200/1/1
f 201/10/1 202/11/1 203/5/1 204/2/1
f 205/10/1 206/11/1 207/5/1 208/2/1
f 209/11/1 210/12/1 211/7/1 212/5/1
f 213/1/1 214/2/1 215/3/1 216/4/1
f 217/2/1 218/5/1 219/6/1 220/3/1
f 221/2/1 222/5/1 223/6/1 224/3/1
f 225/2/1 226/5/1 227/6/1 228/3/1
f 229/5/1 230/7/1 231/8/1 232/6/1
f 233/1/1 234/2/1 235/3/1 236/4/1
f 237/2/1 238/5/1 239/6/1 240/3/1
f 241/2/1 242/5/1 243/6/1 244/3/1
f 245/2/1 246/5/1 247/6/1 248/3/1
f 249/2/1 250/5/1 251/6/1 252/3/1
f 253/14/1 254/23/1 255/9/1 256/15/1
f 257/10/1 258/11/1 259/5/1 260/2/1
f 261/10/1 262/11/1 263/5/1 264/2/1
f 265/11/1 266/12/1 267/7/1 268/5/1
f 269/9/1 270/10/1 271/2/1 272/1/1
f 273/10/1 274/11/1 275/5/1 276/2/1
f 277/10/1 278/11/1 279/5/1 280/2/1
f 281/10/1 282/11/1 283/5/1 284/2/1
f 285/13/1 286/14/1 287/15/1 288/16/1
f 289/2/1 290/5/1 291/6/1 292/3/1
f 293/14/1 294/23/1 295/9/1 296/15/1
f 297/10/1 298/11/1 299/5/1 300/2/1
f 301/10/1 302/11/1 303/5/1 304/2/1
f 305/10/1 306/11/1 307/5/1 308/2/1
f 309/10/1 310/11/1 311/5/1 312/2/1
f 313/10/1 314/11/1 315/5/1 316/2/1
f 317/10/1 318/11/1 319/5/1 320/2/1
f 321/10/1 322/11/1 323/5/1 324/2/1
f 325/11/1 326/12/1 327/7/1 328/5/1
f 329/23/1 330/24/1 331/10/1 332/9/1
f 333/24/1 334/21/1 335/11/1 336/10/1
f 337/15/1 338/9/1 339/1/1 340/19/1
f 341/10/1 342/11/1 343/5/1 344/2/1
f 345/10/1 346/11/1 347/5/1 348/2/1
f 349/10/1 350/11/1 351/5/1 352/2/1
f 353/10/1 354/11/1 355/5/1 356/2/1
f 357/16/1 358/15/1 359/19/1 360/20/1
f 361/15/1 362/9/1 363/1/1 364/19/1
f 365/10/1 366/11/1 367/5/1 368/2/1
f 369/10/1 370/11/1 371/5/1 372/2/1
f 373/10/1 374/11/1 375/5/1 376/2/1
f 377/10/1 378/11/1 379/5/1 380/2/1
f 381/16/1 382/15/1 383/19/1 384/20/1
f 385/21/1 386/22/1 387/12/1 388/11/1
f 389/23/1 390/24/1 391/10/1 392/9/1
f 393/24/1 394/21/1 395/11/1 396/10/1
f 397/24/1 398/21/1 399/11/1 400/10/1
f 401/24/1 402/21/1 403/11/1 404/10/1
f 405/24/1 406/21/1 407/11/1 408/10/1
f 409/21/1 410/22/1 411/12/1 412/11/1
f 413/23/1 414/24/1 415/10/1 416/9/1
f 417/24/1 418/21/1 419/11/1 420/10/1
f 421/24/1 422/21/1 423/11/1 424/10/1
f 425/24/1 426/21/1 427/11/1 428/10/1
f 429/24/1 430/21/1 431/11/1 432/10/1
f 433/21/1 434/22/1 435/12/1 436/11/1

