# Tiled2Unity generated file. Do not modify by hand.
# Wavefront file for 'test_jump_mesh_0001.obj'

# Vertices (Count = 12)
v -1600 -928 0
v -1632 -928 0
v -1632 -896 0
v -1600 -896 0
v -1504 -960 0
v -1536 -960 0
v -1536 -928 0
v -1504 -928 0
v -1536 -960 0
v -1568 -960 0
v -1568 -928 0
v -1536 -928 0

# Texture cooridinates (Count = 6)
vt 0.9166667 0.4545454
vt 1 0.4545454
vt 1 0.5454545
vt 0.9166667 0.5454545
vt 0.8333333 0.4545454
vt 0.8333333 0.5454545

# Normal
vn 0 0 -1

# Mesh description
g test_jump_mesh_0001

# Faces
f 1/1/1 2/2/1 3/3/1 4/4/1
f 5/5/1 6/1/1 7/4/1 8/6/1
f 9/1/1 10/2/1 11/3/1 12/4/1

