# Tiled2Unity generated file. Do not modify by hand.
# Wavefront file for 'LB_Elevator_mesh_0004.obj'

# Vertices (Count = 724)
v -608 -768 0
v -640 -768 0
v -640 -736 0
v -608 -736 0
v -640 -768 0
v -672 -768 0
v -672 -736 0
v -640 -736 0
v -672 -768 0
v -704 -768 0
v -704 -736 0
v -672 -736 0
v -704 -768 0
v -736 -768 0
v -736 -736 0
v -704 -736 0
v -736 -768 0
v -768 -768 0
v -768 -736 0
v -736 -736 0
v -768 -768 0
v -800 -768 0
v -800 -736 0
v -768 -736 0
v -1312 -768 0
v -1344 -768 0
v -1344 -736 0
v -1312 -736 0
v -1344 -768 0
v -1376 -768 0
v -1376 -736 0
v -1344 -736 0
v -1376 -768 0
v -1408 -768 0
v -1408 -736 0
v -1376 -736 0
v -1408 -768 0
v -1440 -768 0
v -1440 -736 0
v -1408 -736 0
v -1440 -768 0
v -1472 -768 0
v -1472 -736 0
v -1440 -736 0
v -1632 -768 0
v -1664 -768 0
v -1664 -736 0
v -1632 -736 0
v -608 -800 0
v -640 -800 0
v -640 -768 0
v -608 -768 0
v -640 -800 0
v -672 -800 0
v -672 -768 0
v -640 -768 0
v -672 -800 0
v -704 -800 0
v -704 -768 0
v -672 -768 0
v -704 -800 0
v -736 -800 0
v -736 -768 0
v -704 -768 0
v -736 -800 0
v -768 -800 0
v -768 -768 0
v -736 -768 0
v -768 -800 0
v -800 -800 0
v -800 -768 0
v -768 -768 0
v -800 -800 0
v -832 -800 0
v -832 -768 0
v -800 -768 0
v -960 -800 0
v -992 -800 0
v -992 -768 0
v -960 -768 0
v -992 -800 0
v -1024 -800 0
v -1024 -768 0
v -992 -768 0
v -1024 -800 0
v -1056 -800 0
v -1056 -768 0
v -1024 -768 0
v -1056 -800 0
v -1088 -800 0
v -1088 -768 0
v -1056 -768 0
v -1088 -800 0
v -1120 -800 0
v -1120 -768 0
v -1088 -768 0
v -1120 -800 0
v -1152 -800 0
v -1152 -768 0
v -1120 -768 0
v -1280 -800 0
v -1312 -800 0
v -1312 -768 0
v -1280 -768 0
v -1312 -800 0
v -1344 -800 0
v -1344 -768 0
v -1312 -768 0
v -1344 -800 0
v -1376 -800 0
v -1376 -768 0
v -1344 -768 0
v -1376 -800 0
v -1408 -800 0
v -1408 -768 0
v -1376 -768 0
v -1408 -800 0
v -1440 -800 0
v -1440 -768 0
v -1408 -768 0
v -1440 -800 0
v -1472 -800 0
v -1472 -768 0
v -1440 -768 0
v -608 -832 0
v -640 -832 0
v -640 -800 0
v -608 -800 0
v -640 -832 0
v -672 -832 0
v -672 -800 0
v -640 -800 0
v -672 -832 0
v -704 -832 0
v -704 -800 0
v -672 -800 0
v -704 -832 0
v -736 -832 0
v -736 -800 0
v -704 -800 0
v -736 -832 0
v -768 -832 0
v -768 -800 0
v -736 -800 0
v -768 -832 0
v -800 -832 0
v -800 -800 0
v -768 -800 0
v -800 -832 0
v -832 -832 0
v -832 -800 0
v -800 -800 0
v -832 -832 0
v -864 -832 0
v -864 -800 0
v -832 -800 0
v -960 -832 0
v -992 -832 0
v -992 -800 0
v -960 -800 0
v -992 -832 0
v -1024 -832 0
v -1024 -800 0
v -992 -800 0
v -1024 -832 0
v -1056 -832 0
v -1056 -800 0
v -1024 -800 0
v -1056 -832 0
v -1088 -832 0
v -1088 -800 0
v -1056 -800 0
v -1088 -832 0
v -1120 -832 0
v -1120 -800 0
v -1088 -800 0
v -1120 -832 0
v -1152 -832 0
v -1152 -800 0
v -1120 -800 0
v -1248 -832 0
v -1280 -832 0
v -1280 -800 0
v -1248 -800 0
v -1280 -832 0
v -1312 -832 0
v -1312 -800 0
v -1280 -800 0
v -1312 -832 0
v -1344 -832 0
v -1344 -800 0
v -1312 -800 0
v -1344 -832 0
v -1376 -832 0
v -1376 -800 0
v -1344 -800 0
v -1376 -832 0
v -1408 -832 0
v -1408 -800 0
v -1376 -800 0
v -1408 -832 0
v -1440 -832 0
v -1440 -800 0
v -1408 -800 0
v -1440 -832 0
v -1472 -832 0
v -1472 -800 0
v -1440 -800 0
v -1472 -832 0
v -1504 -832 0
v -1504 -800 0
v -1472 -800 0
v -1504 -832 0
v -1536 -832 0
v -1536 -800 0
v -1504 -800 0
v -1536 -832 0
v -1568 -832 0
v -1568 -800 0
v -1536 -800 0
v -1568 -832 0
v -1600 -832 0
v -1600 -800 0
v -1568 -800 0
v -1600 -832 0
v -1632 -832 0
v -1632 -800 0
v -1600 -800 0
v -1632 -832 0
v -1664 -832 0
v -1664 -800 0
v -1632 -800 0
v -1664 -832 0
v -1696 -832 0
v -1696 -800 0
v -1664 -800 0
v -1696 -832 0
v -1728 -832 0
v -1728 -800 0
v -1696 -800 0
v -1728 -832 0
v -1760 -832 0
v -1760 -800 0
v -1728 -800 0
v -608 -864 0
v -640 -864 0
v -640 -832 0
v -608 -832 0
v -640 -864 0
v -672 -864 0
v -672 -832 0
v -640 -832 0
v -672 -864 0
v -704 -864 0
v -704 -832 0
v -672 -832 0
v -704 -864 0
v -736 -864 0
v -736 -832 0
v -704 -832 0
v -736 -864 0
v -768 -864 0
v -768 -832 0
v -736 -832 0
v -768 -864 0
v -800 -864 0
v -800 -832 0
v -768 -832 0
v -800 -864 0
v -832 -864 0
v -832 -832 0
v -800 -832 0
v -832 -864 0
v -864 -864 0
v -864 -832 0
v -832 -832 0
v -864 -864 0
v -896 -864 0
v -896 -832 0
v -864 -832 0
v -960 -864 0
v -992 -864 0
v -992 -832 0
v -960 -832 0
v -992 -864 0
v -1024 -864 0
v -1024 -832 0
v -992 -832 0
v -1024 -864 0
v -1056 -864 0
v -1056 -832 0
v -1024 -832 0
v -1056 -864 0
v -1088 -864 0
v -1088 -832 0
v -1056 -832 0
v -1088 -864 0
v -1120 -864 0
v -1120 -832 0
v -1088 -832 0
v -1120 -864 0
v -1152 -864 0
v -1152 -832 0
v -1120 -832 0
v -1216 -864 0
v -1248 -864 0
v -1248 -832 0
v -1216 -832 0
v -1248 -864 0
v -1280 -864 0
v -1280 -832 0
v -1248 -832 0
v -1280 -864 0
v -1312 -864 0
v -1312 -832 0
v -1280 -832 0
v -1312 -864 0
v -1344 -864 0
v -1344 -832 0
v -1312 -832 0
v -1344 -864 0
v -1376 -864 0
v -1376 -832 0
v -1344 -832 0
v -1376 -864 0
v -1408 -864 0
v -1408 -832 0
v -1376 -832 0
v -1408 -864 0
v -1440 -864 0
v -1440 -832 0
v -1408 -832 0
v -1440 -864 0
v -1472 -864 0
v -1472 -832 0
v -1440 -832 0
v -1472 -864 0
v -1504 -864 0
v -1504 -832 0
v -1472 -832 0
v -1504 -864 0
v -1536 -864 0
v -1536 -832 0
v -1504 -832 0
v -1536 -864 0
v -1568 -864 0
v -1568 -832 0
v -1536 -832 0
v -1568 -864 0
v -1600 -864 0
v -1600 -832 0
v -1568 -832 0
v -1600 -864 0
v -1632 -864 0
v -1632 -832 0
v -1600 -832 0
v -1632 -864 0
v -1664 -864 0
v -1664 -832 0
v -1632 -832 0
v -1664 -864 0
v -1696 -864 0
v -1696 -832 0
v -1664 -832 0
v -1696 -864 0
v -1728 -864 0
v -1728 -832 0
v -1696 -832 0
v -1728 -864 0
v -1760 -864 0
v -1760 -832 0
v -1728 -832 0
v -608 -896 0
v -640 -896 0
v -640 -864 0
v -608 -864 0
v -640 -896 0
v -672 -896 0
v -672 -864 0
v -640 -864 0
v -672 -896 0
v -704 -896 0
v -704 -864 0
v -672 -864 0
v -704 -896 0
v -736 -896 0
v -736 -864 0
v -704 -864 0
v -736 -896 0
v -768 -896 0
v -768 -864 0
v -736 -864 0
v -768 -896 0
v -800 -896 0
v -800 -864 0
v -768 -864 0
v -800 -896 0
v -832 -896 0
v -832 -864 0
v -800 -864 0
v -832 -896 0
v -864 -896 0
v -864 -864 0
v -832 -864 0
v -864 -896 0
v -896 -896 0
v -896 -864 0
v -864 -864 0
v -896 -896 0
v -928 -896 0
v -928 -864 0
v -896 -864 0
v -928 -896 0
v -960 -896 0
v -960 -864 0
v -928 -864 0
v -1152 -896 0
v -1184 -896 0
v -1184 -864 0
v -1152 -864 0
v -1184 -896 0
v -1216 -896 0
v -1216 -864 0
v -1184 -864 0
v -1216 -896 0
v -1248 -896 0
v -1248 -864 0
v -1216 -864 0
v -1248 -896 0
v -1280 -896 0
v -1280 -864 0
v -1248 -864 0
v -1280 -896 0
v -1312 -896 0
v -1312 -864 0
v -1280 -864 0
v -1312 -896 0
v -1344 -896 0
v -1344 -864 0
v -1312 -864 0
v -1344 -896 0
v -1376 -896 0
v -1376 -864 0
v -1344 -864 0
v -1376 -896 0
v -1408 -896 0
v -1408 -864 0
v -1376 -864 0
v -1408 -896 0
v -1440 -896 0
v -1440 -864 0
v -1408 -864 0
v -1440 -896 0
v -1472 -896 0
v -1472 -864 0
v -1440 -864 0
v -1472 -896 0
v -1504 -896 0
v -1504 -864 0
v -1472 -864 0
v -1504 -896 0
v -1536 -896 0
v -1536 -864 0
v -1504 -864 0
v -1536 -896 0
v -1568 -896 0
v -1568 -864 0
v -1536 -864 0
v -1568 -896 0
v -1600 -896 0
v -1600 -864 0
v -1568 -864 0
v -1600 -896 0
v -1632 -896 0
v -1632 -864 0
v -1600 -864 0
v -1632 -896 0
v -1664 -896 0
v -1664 -864 0
v -1632 -864 0
v -1664 -896 0
v -1696 -896 0
v -1696 -864 0
v -1664 -864 0
v -1696 -896 0
v -1728 -896 0
v -1728 -864 0
v -1696 -864 0
v -1728 -896 0
v -1760 -896 0
v -1760 -864 0
v -1728 -864 0
v -608 -928 0
v -640 -928 0
v -640 -896 0
v -608 -896 0
v -640 -928 0
v -672 -928 0
v -672 -896 0
v -640 -896 0
v -672 -928 0
v -704 -928 0
v -704 -896 0
v -672 -896 0
v -704 -928 0
v -736 -928 0
v -736 -896 0
v -704 -896 0
v -736 -928 0
v -768 -928 0
v -768 -896 0
v -736 -896 0
v -768 -928 0
v -800 -928 0
v -800 -896 0
v -768 -896 0
v -800 -928 0
v -832 -928 0
v -832 -896 0
v -800 -896 0
v -832 -928 0
v -864 -928 0
v -864 -896 0
v -832 -896 0
v -864 -928 0
v -896 -928 0
v -896 -896 0
v -864 -896 0
v -896 -928 0
v -928 -928 0
v -928 -896 0
v -896 -896 0
v -928 -928 0
v -960 -928 0
v -960 -896 0
v -928 -896 0
v -1152 -928 0
v -1184 -928 0
v -1184 -896 0
v -1152 -896 0
v -1184 -928 0
v -1216 -928 0
v -1216 -896 0
v -1184 -896 0
v -1216 -928 0
v -1248 -928 0
v -1248 -896 0
v -1216 -896 0
v -1248 -928 0
v -1280 -928 0
v -1280 -896 0
v -1248 -896 0
v -1280 -928 0
v -1312 -928 0
v -1312 -896 0
v -1280 -896 0
v -1312 -928 0
v -1344 -928 0
v -1344 -896 0
v -1312 -896 0
v -1344 -928 0
v -1376 -928 0
v -1376 -896 0
v -1344 -896 0
v -1376 -928 0
v -1408 -928 0
v -1408 -896 0
v -1376 -896 0
v -1408 -928 0
v -1440 -928 0
v -1440 -896 0
v -1408 -896 0
v -1440 -928 0
v -1472 -928 0
v -1472 -896 0
v -1440 -896 0
v -1472 -928 0
v -1504 -928 0
v -1504 -896 0
v -1472 -896 0
v -1504 -928 0
v -1536 -928 0
v -1536 -896 0
v -1504 -896 0
v -1536 -928 0
v -1568 -928 0
v -1568 -896 0
v -1536 -896 0
v -1568 -928 0
v -1600 -928 0
v -1600 -896 0
v -1568 -896 0
v -1600 -928 0
v -1632 -928 0
v -1632 -896 0
v -1600 -896 0
v -1632 -928 0
v -1664 -928 0
v -1664 -896 0
v -1632 -896 0
v -1664 -928 0
v -1696 -928 0
v -1696 -896 0
v -1664 -896 0
v -1696 -928 0
v -1728 -928 0
v -1728 -896 0
v -1696 -896 0
v -608 -960 0
v -640 -960 0
v -640 -928 0
v -608 -928 0
v -640 -960 0
v -672 -960 0
v -672 -928 0
v -640 -928 0
v -672 -960 0
v -704 -960 0
v -704 -928 0
v -672 -928 0
v -704 -960 0
v -736 -960 0
v -736 -928 0
v -704 -928 0
v -736 -960 0
v -768 -960 0
v -768 -928 0
v -736 -928 0
v -768 -960 0
v -800 -960 0
v -800 -928 0
v -768 -928 0
v -800 -960 0
v -832 -960 0
v -832 -928 0
v -800 -928 0
v -832 -960 0
v -864 -960 0
v -864 -928 0
v -832 -928 0
v -864 -960 0
v -896 -960 0
v -896 -928 0
v -864 -928 0
v -896 -960 0
v -928 -960 0
v -928 -928 0
v -896 -928 0
v -928 -960 0
v -960 -960 0
v -960 -928 0
v -928 -928 0
v -1152 -960 0
v -1184 -960 0
v -1184 -928 0
v -1152 -928 0
v -1184 -960 0
v -1216 -960 0
v -1216 -928 0
v -1184 -928 0
v -1216 -960 0
v -1248 -960 0
v -1248 -928 0
v -1216 -928 0
v -1248 -960 0
v -1280 -960 0
v -1280 -928 0
v -1248 -928 0
v -1280 -960 0
v -1312 -960 0
v -1312 -928 0
v -1280 -928 0
v -1312 -960 0
v -1344 -960 0
v -1344 -928 0
v -1312 -928 0
v -1344 -960 0
v -1376 -960 0
v -1376 -928 0
v -1344 -928 0
v -1376 -960 0
v -1408 -960 0
v -1408 -928 0
v -1376 -928 0
v -1408 -960 0
v -1440 -960 0
v -1440 -928 0
v -1408 -928 0
v -1440 -960 0
v -1472 -960 0
v -1472 -928 0
v -1440 -928 0
v -1472 -960 0
v -1504 -960 0
v -1504 -928 0
v -1472 -928 0
v -1504 -960 0
v -1536 -960 0
v -1536 -928 0
v -1504 -928 0
v -1536 -960 0
v -1568 -960 0
v -1568 -928 0
v -1536 -928 0
v -1568 -960 0
v -1600 -960 0
v -1600 -928 0
v -1568 -928 0
v -1600 -960 0
v -1632 -960 0
v -1632 -928 0
v -1600 -928 0
v -1632 -960 0
v -1664 -960 0
v -1664 -928 0
v -1632 -928 0
v -1664 -960 0
v -1696 -960 0
v -1696 -928 0
v -1664 -928 0
v -1696 -960 0
v -1728 -960 0
v -1728 -928 0
v -1696 -928 0

# Texture cooridinates (Count = 59)
vt 0.3 0.9
vt 0.4 0.9
vt 0.4 1
vt 0.3 1
vt 0.5 0.9
vt 0.5 1
vt 0.6 0.9
vt 0.6 1
vt 0.9 0.6
vt 1 0.6
vt 1 0.7
vt 0.9 0.7
vt 0.3 0.8
vt 0.4 0.8
vt 0.5 0.8
vt 0.6 0.8
vt 0.7 0.8
vt 0.7 0.9
vt 0.3 0.5
vt 0.4 0.5
vt 0.4 0.6
vt 0.3 0.6
vt 0 0.4
vt 0.1 0.4
vt 0.1 0.5
vt 0 0.5
vt 0.3 0.4
vt 0.4 0.4
vt 0.2 0.4
vt 0.2 0.5
vt 0.5 0.5
vt 0.5 0.6
vt 0.7 1
vt 0.1 0.3
vt 0.2 0.3
vt 0.3 0.3
vt 0 0.9
vt 0.1 0.9
vt 0.1 1
vt 0 1
vt 0.2 0.9
vt 0.2 1
vt 0 0.2
vt 0.1 0.2
vt 0 0.3
vt 0.2 0.2
vt 0.3 0.2
vt 0 0.8
vt 0.1 0.8
vt 0.2 0.8
vt 0 0.6
vt 0.1 0.6
vt 0.1 0.7
vt 0 0.7
vt 0.2 0.7
vt 0.3 0.7
vt 0.4 0.7
vt 0.5 0.7
vt 0.6 0.7

# Normal
vn 0 0 -1

# Mesh description
g LB_Elevator_mesh_0004

# Faces
f 1/1/1 2/2/1 3/3/1 4/4/1
f 5/2/1 6/5/1 7/6/1 8/3/1
f 9/2/1 10/5/1 11/6/1 12/3/1
f 13/2/1 14/5/1 15/6/1 16/3/1
f 17/2/1 18/5/1 19/6/1 20/3/1
f 21/5/1 22/7/1 23/8/1 24/6/1
f 25/1/1 26/2/1 27/3/1 28/4/1
f 29/2/1 30/5/1 31/6/1 32/3/1
f 33/2/1 34/5/1 35/6/1 36/3/1
f 37/2/1 38/5/1 39/6/1 40/3/1
f 41/5/1 42/7/1 43/8/1 44/6/1
f 45/9/1 46/10/1 47/11/1 48/12/1
f 49/13/1 50/14/1 51/2/1 52/1/1
f 53/14/1 54/15/1 55/5/1 56/2/1
f 57/14/1 58/15/1 59/5/1 60/2/1
f 61/16/1 62/17/1 63/18/1 64/7/1
f 65/14/1 66/15/1 67/5/1 68/2/1
f 69/19/1 70/20/1 71/21/1 72/22/1
f 73/5/1 74/7/1 75/8/1 76/6/1
f 77/23/1 78/24/1 79/25/1 80/26/1
f 81/27/1 82/28/1 83/20/1 84/19/1
f 85/24/1 86/29/1 87/30/1 88/25/1
f 89/27/1 90/28/1 91/20/1 92/19/1
f 93/24/1 94/29/1 95/30/1 96/25/1
f 97/29/1 98/27/1 99/19/1 100/30/1
f 101/1/1 102/2/1 103/3/1 104/4/1
f 105/20/1 106/31/1 107/32/1 108/21/1
f 109/16/1 110/17/1 111/18/1 112/7/1
f 113/7/1 114/18/1 115/33/1 116/8/1
f 117/16/1 118/17/1 119/18/1 120/7/1
f 121/15/1 122/16/1 123/7/1 124/5/1
f 125/13/1 126/14/1 127/2/1 128/1/1
f 129/16/1 130/17/1 131/18/1 132/7/1
f 133/14/1 134/15/1 135/5/1 136/2/1
f 137/7/1 138/18/1 139/33/1 140/8/1
f 141/14/1 142/15/1 143/5/1 144/2/1
f 145/14/1 146/15/1 147/5/1 148/2/1
f 149/19/1 150/20/1 151/21/1 152/22/1
f 153/5/1 154/7/1 155/8/1 156/6/1
f 157/9/1 158/10/1 159/11/1 160/12/1
f 161/27/1 162/28/1 163/20/1 164/19/1
f 165/34/1 166/35/1 167/29/1 168/24/1
f 169/27/1 170/28/1 171/20/1 172/19/1
f 173/27/1 174/28/1 175/20/1 176/19/1
f 177/35/1 178/36/1 179/27/1 180/29/1
f 181/1/1 182/2/1 183/3/1 184/4/1
f 185/20/1 186/31/1 187/32/1 188/21/1
f 189/14/1 190/15/1 191/5/1 192/2/1
f 193/14/1 194/15/1 195/5/1 196/2/1
f 197/16/1 198/17/1 199/18/1 200/7/1
f 201/7/1 202/18/1 203/33/1 204/8/1
f 205/15/1 206/16/1 207/7/1 208/5/1
f 209/37/1 210/38/1 211/39/1 212/40/1
f 213/38/1 214/41/1 215/42/1 216/39/1
f 217/38/1 218/41/1 219/42/1 220/39/1
f 221/38/1 222/41/1 223/42/1 224/39/1
f 225/38/1 226/41/1 227/42/1 228/39/1
f 229/38/1 230/41/1 231/42/1 232/39/1
f 233/38/1 234/41/1 235/42/1 236/39/1
f 237/38/1 238/41/1 239/42/1 240/39/1
f 241/41/1 242/1/1 243/4/1 244/42/1
f 245/13/1 246/14/1 247/2/1 248/1/1
f 249/7/1 250/18/1 251/33/1 252/8/1
f 253/14/1 254/15/1 255/5/1 256/2/1
f 257/16/1 258/17/1 259/18/1 260/7/1
f 261/14/1 262/15/1 263/5/1 264/2/1
f 265/16/1 266/17/1 267/18/1 268/7/1
f 269/14/1 270/15/1 271/5/1 272/2/1
f 273/19/1 274/20/1 275/21/1 276/22/1
f 277/5/1 278/7/1 279/8/1 280/6/1
f 281/43/1 282/44/1 283/34/1 284/45/1
f 285/44/1 286/46/1 287/35/1 288/34/1
f 289/44/1 290/46/1 291/35/1 292/34/1
f 293/27/1 294/28/1 295/20/1 296/19/1
f 297/44/1 298/46/1 299/35/1 300/34/1
f 301/46/1 302/47/1 303/36/1 304/35/1
f 305/1/1 306/2/1 307/3/1 308/4/1
f 309/20/1 310/31/1 311/32/1 312/21/1
f 313/14/1 314/15/1 315/5/1 316/2/1
f 317/7/1 318/18/1 319/33/1 320/8/1
f 321/14/1 322/15/1 323/5/1 324/2/1
f 325/14/1 326/15/1 327/5/1 328/2/1
f 329/14/1 330/15/1 331/5/1 332/2/1
f 333/15/1 334/16/1 335/7/1 336/5/1
f 337/48/1 338/49/1 339/38/1 340/37/1
f 341/49/1 342/50/1 343/41/1 344/38/1
f 345/49/1 346/50/1 347/41/1 348/38/1
f 349/49/1 350/50/1 351/41/1 352/38/1
f 353/49/1 354/50/1 355/41/1 356/38/1
f 357/49/1 358/50/1 359/41/1 360/38/1
f 361/49/1 362/50/1 363/41/1 364/38/1
f 365/49/1 366/50/1 367/41/1 368/38/1
f 369/50/1 370/13/1 371/1/1 372/41/1
f 373/13/1 374/14/1 375/2/1 376/1/1
f 377/16/1 378/17/1 379/18/1 380/7/1
f 381/7/1 382/18/1 383/33/1 384/8/1
f 385/7/1 386/18/1 387/33/1 388/8/1
f 389/7/1 390/18/1 391/33/1 392/8/1
f 393/16/1 394/17/1 395/18/1 396/7/1
f 397/16/1 398/17/1 399/18/1 400/7/1
f 401/14/1 402/15/1 403/5/1 404/2/1
f 405/19/1 406/20/1 407/21/1 408/22/1
f 409/2/1 410/5/1 411/6/1 412/3/1
f 413/5/1 414/7/1 415/8/1 416/6/1
f 417/1/1 418/2/1 419/3/1 420/4/1
f 421/2/1 422/5/1 423/6/1 424/3/1
f 425/20/1 426/31/1 427/32/1 428/21/1
f 429/7/1 430/18/1 431/33/1 432/8/1
f 433/16/1 434/17/1 435/18/1 436/7/1
f 437/16/1 438/17/1 439/18/1 440/7/1
f 441/7/1 442/18/1 443/33/1 444/8/1
f 445/16/1 446/17/1 447/18/1 448/7/1
f 449/7/1 450/18/1 451/33/1 452/8/1
f 453/15/1 454/16/1 455/7/1 456/5/1
f 457/48/1 458/49/1 459/38/1 460/37/1
f 461/49/1 462/50/1 463/41/1 464/38/1
f 465/49/1 466/50/1 467/41/1 468/38/1
f 469/49/1 470/50/1 471/41/1 472/38/1
f 473/49/1 474/50/1 475/41/1 476/38/1
f 477/49/1 478/50/1 479/41/1 480/38/1
f 481/49/1 482/50/1 483/41/1 484/38/1
f 485/51/1 486/52/1 487/53/1 488/54/1
f 489/55/1 490/56/1 491/13/1 492/50/1
f 493/13/1 494/14/1 495/2/1 496/1/1
f 497/14/1 498/15/1 499/5/1 500/2/1
f 501/14/1 502/15/1 503/5/1 504/2/1
f 505/16/1 506/17/1 507/18/1 508/7/1
f 509/16/1 510/17/1 511/18/1 512/7/1
f 513/7/1 514/18/1 515/33/1 516/8/1
f 517/7/1 518/18/1 519/33/1 520/8/1
f 521/14/1 522/15/1 523/5/1 524/2/1
f 525/7/1 526/18/1 527/33/1 528/8/1
f 529/7/1 530/18/1 531/33/1 532/8/1
f 533/15/1 534/16/1 535/7/1 536/5/1
f 537/13/1 538/14/1 539/2/1 540/1/1
f 541/14/1 542/15/1 543/5/1 544/2/1
f 545/16/1 546/17/1 547/18/1 548/7/1
f 549/16/1 550/17/1 551/18/1 552/7/1
f 553/14/1 554/15/1 555/5/1 556/2/1
f 557/14/1 558/15/1 559/5/1 560/2/1
f 561/7/1 562/18/1 563/33/1 564/8/1
f 565/16/1 566/17/1 567/18/1 568/7/1
f 569/16/1 570/17/1 571/18/1 572/7/1
f 573/15/1 574/16/1 575/7/1 576/5/1
f 577/48/1 578/49/1 579/38/1 580/37/1
f 581/49/1 582/50/1 583/41/1 584/38/1
f 585/49/1 586/50/1 587/41/1 588/38/1
f 589/49/1 590/50/1 591/41/1 592/38/1
f 593/49/1 594/50/1 595/41/1 596/38/1
f 597/49/1 598/50/1 599/41/1 600/38/1
f 601/49/1 602/50/1 603/41/1 604/38/1
f 605/50/1 606/13/1 607/1/1 608/41/1
f 609/56/1 610/57/1 611/14/1 612/13/1
f 613/57/1 614/58/1 615/15/1 616/14/1
f 617/57/1 618/58/1 619/15/1 620/14/1
f 621/57/1 622/58/1 623/15/1 624/14/1
f 625/57/1 626/58/1 627/15/1 628/14/1
f 629/57/1 630/58/1 631/15/1 632/14/1
f 633/57/1 634/58/1 635/15/1 636/14/1
f 637/57/1 638/58/1 639/15/1 640/14/1
f 641/57/1 642/58/1 643/15/1 644/14/1
f 645/57/1 646/58/1 647/15/1 648/14/1
f 649/58/1 650/59/1 651/16/1 652/15/1
f 653/56/1 654/57/1 655/14/1 656/13/1
f 657/57/1 658/58/1 659/15/1 660/14/1
f 661/57/1 662/58/1 663/15/1 664/14/1
f 665/57/1 666/58/1 667/15/1 668/14/1
f 669/57/1 670/58/1 671/15/1 672/14/1
f 673/57/1 674/58/1 675/15/1 676/14/1
f 677/57/1 678/58/1 679/15/1 680/14/1
f 681/57/1 682/58/1 683/15/1 684/14/1
f 685/57/1 686/58/1 687/15/1 688/14/1
f 689/58/1 690/59/1 691/16/1 692/15/1
f 693/54/1 694/53/1 695/49/1 696/48/1
f 697/53/1 698/55/1 699/50/1 700/49/1
f 701/53/1 702/55/1 703/50/1 704/49/1
f 705/53/1 706/55/1 707/50/1 708/49/1
f 709/53/1 710/55/1 711/50/1 712/49/1
f 713/53/1 714/55/1 715/50/1 716/49/1
f 717/53/1 718/55/1 719/50/1 720/49/1
f 721/55/1 722/56/1 723/13/1 724/50/1

