# Tiled2Unity generated file. Do not modify by hand.
# Wavefront file for 'CT_WaterMaze_mesh_0001.obj'

# Vertices (Count = 272)
v -1120 -1088 0
v -1152 -1088 0
v -1152 -1056 0
v -1120 -1056 0
v -1152 -1088 0
v -1184 -1088 0
v -1184 -1056 0
v -1152 -1056 0
v -1184 -1088 0
v -1216 -1088 0
v -1216 -1056 0
v -1184 -1056 0
v -1216 -1088 0
v -1248 -1088 0
v -1248 -1056 0
v -1216 -1056 0
v -1248 -1088 0
v -1280 -1088 0
v -1280 -1056 0
v -1248 -1056 0
v -1472 -1088 0
v -1504 -1088 0
v -1504 -1056 0
v -1472 -1056 0
v -1504 -1088 0
v -1536 -1088 0
v -1536 -1056 0
v -1504 -1056 0
v -1536 -1088 0
v -1568 -1088 0
v -1568 -1056 0
v -1536 -1056 0
v -1568 -1088 0
v -1600 -1088 0
v -1600 -1056 0
v -1568 -1056 0
v -1600 -1088 0
v -1632 -1088 0
v -1632 -1056 0
v -1600 -1056 0
v -1632 -1088 0
v -1664 -1088 0
v -1664 -1056 0
v -1632 -1056 0
v -1664 -1088 0
v -1696 -1088 0
v -1696 -1056 0
v -1664 -1056 0
v -1696 -1088 0
v -1728 -1088 0
v -1728 -1056 0
v -1696 -1056 0
v -1728 -1088 0
v -1760 -1088 0
v -1760 -1056 0
v -1728 -1056 0
v -1120 -1120 0
v -1152 -1120 0
v -1152 -1088 0
v -1120 -1088 0
v -1152 -1120 0
v -1184 -1120 0
v -1184 -1088 0
v -1152 -1088 0
v -1184 -1120 0
v -1216 -1120 0
v -1216 -1088 0
v -1184 -1088 0
v -1216 -1120 0
v -1248 -1120 0
v -1248 -1088 0
v -1216 -1088 0
v -1248 -1120 0
v -1280 -1120 0
v -1280 -1088 0
v -1248 -1088 0
v -1472 -1120 0
v -1504 -1120 0
v -1504 -1088 0
v -1472 -1088 0
v -1504 -1120 0
v -1536 -1120 0
v -1536 -1088 0
v -1504 -1088 0
v -1536 -1120 0
v -1568 -1120 0
v -1568 -1088 0
v -1536 -1088 0
v -1568 -1120 0
v -1600 -1120 0
v -1600 -1088 0
v -1568 -1088 0
v -1600 -1120 0
v -1632 -1120 0
v -1632 -1088 0
v -1600 -1088 0
v -1632 -1120 0
v -1664 -1120 0
v -1664 -1088 0
v -1632 -1088 0
v -1664 -1120 0
v -1696 -1120 0
v -1696 -1088 0
v -1664 -1088 0
v -1696 -1120 0
v -1728 -1120 0
v -1728 -1088 0
v -1696 -1088 0
v -1728 -1120 0
v -1760 -1120 0
v -1760 -1088 0
v -1728 -1088 0
v -1120 -1152 0
v -1152 -1152 0
v -1152 -1120 0
v -1120 -1120 0
v -1152 -1152 0
v -1184 -1152 0
v -1184 -1120 0
v -1152 -1120 0
v -1184 -1152 0
v -1216 -1152 0
v -1216 -1120 0
v -1184 -1120 0
v -1216 -1152 0
v -1248 -1152 0
v -1248 -1120 0
v -1216 -1120 0
v -1248 -1152 0
v -1280 -1152 0
v -1280 -1120 0
v -1248 -1120 0
v -1472 -1152 0
v -1504 -1152 0
v -1504 -1120 0
v -1472 -1120 0
v -1504 -1152 0
v -1536 -1152 0
v -1536 -1120 0
v -1504 -1120 0
v -1536 -1152 0
v -1568 -1152 0
v -1568 -1120 0
v -1536 -1120 0
v -1568 -1152 0
v -1600 -1152 0
v -1600 -1120 0
v -1568 -1120 0
v -1600 -1152 0
v -1632 -1152 0
v -1632 -1120 0
v -1600 -1120 0
v -1632 -1152 0
v -1664 -1152 0
v -1664 -1120 0
v -1632 -1120 0
v -1664 -1152 0
v -1696 -1152 0
v -1696 -1120 0
v -1664 -1120 0
v -1696 -1152 0
v -1728 -1152 0
v -1728 -1120 0
v -1696 -1120 0
v -1728 -1152 0
v -1760 -1152 0
v -1760 -1120 0
v -1728 -1120 0
v -1120 -1184 0
v -1152 -1184 0
v -1152 -1152 0
v -1120 -1152 0
v -1152 -1184 0
v -1184 -1184 0
v -1184 -1152 0
v -1152 -1152 0
v -1184 -1184 0
v -1216 -1184 0
v -1216 -1152 0
v -1184 -1152 0
v -1216 -1184 0
v -1248 -1184 0
v -1248 -1152 0
v -1216 -1152 0
v -1248 -1184 0
v -1280 -1184 0
v -1280 -1152 0
v -1248 -1152 0
v -1472 -1184 0
v -1504 -1184 0
v -1504 -1152 0
v -1472 -1152 0
v -1504 -1184 0
v -1536 -1184 0
v -1536 -1152 0
v -1504 -1152 0
v -1536 -1184 0
v -1568 -1184 0
v -1568 -1152 0
v -1536 -1152 0
v -1568 -1184 0
v -1600 -1184 0
v -1600 -1152 0
v -1568 -1152 0
v -1600 -1184 0
v -1632 -1184 0
v -1632 -1152 0
v -1600 -1152 0
v -1632 -1184 0
v -1664 -1184 0
v -1664 -1152 0
v -1632 -1152 0
v -1664 -1184 0
v -1696 -1184 0
v -1696 -1152 0
v -1664 -1152 0
v -1696 -1184 0
v -1728 -1184 0
v -1728 -1152 0
v -1696 -1152 0
v -1728 -1184 0
v -1760 -1184 0
v -1760 -1152 0
v -1728 -1152 0
v -928 -1216 0
v -960 -1216 0
v -960 -1184 0
v -928 -1184 0
v -960 -1216 0
v -992 -1216 0
v -992 -1184 0
v -960 -1184 0
v -992 -1216 0
v -1024 -1216 0
v -1024 -1184 0
v -992 -1184 0
v -1024 -1216 0
v -1056 -1216 0
v -1056 -1184 0
v -1024 -1184 0
v -928 -1248 0
v -960 -1248 0
v -960 -1216 0
v -928 -1216 0
v -960 -1248 0
v -992 -1248 0
v -992 -1216 0
v -960 -1216 0
v -992 -1248 0
v -1024 -1248 0
v -1024 -1216 0
v -992 -1216 0
v -1024 -1248 0
v -1056 -1248 0
v -1056 -1216 0
v -1024 -1216 0
v -928 -1280 0
v -960 -1280 0
v -960 -1248 0
v -928 -1248 0
v -960 -1280 0
v -992 -1280 0
v -992 -1248 0
v -960 -1248 0
v -992 -1280 0
v -1024 -1280 0
v -1024 -1248 0
v -992 -1248 0
v -1024 -1280 0
v -1056 -1280 0
v -1056 -1248 0
v -1024 -1248 0

# Texture cooridinates (Count = 16)
vt 0.6 0.9
vt 0.7 0.9
vt 0.7 1
vt 0.6 1
vt 0.8 0.9
vt 0.8 1
vt 0.9 0.9
vt 0.9 1
vt 0.6 0.8
vt 0.7 0.8
vt 0.8 0.8
vt 0.9 0.8
vt 0.6 0.7
vt 0.7 0.7
vt 0.8 0.7
vt 0.9 0.7

# Normal
vn 0 0 -1

# Mesh description
g CT_WaterMaze_mesh_0001

# Faces
f 1/1/1 2/2/1 3/3/1 4/4/1
f 5/2/1 6/5/1 7/6/1 8/3/1
f 9/2/1 10/5/1 11/6/1 12/3/1
f 13/2/1 14/5/1 15/6/1 16/3/1
f 17/5/1 18/7/1 19/8/1 20/6/1
f 21/1/1 22/2/1 23/3/1 24/4/1
f 25/2/1 26/5/1 27/6/1 28/3/1
f 29/2/1 30/5/1 31/6/1 32/3/1
f 33/2/1 34/5/1 35/6/1 36/3/1
f 37/2/1 38/5/1 39/6/1 40/3/1
f 41/2/1 42/5/1 43/6/1 44/3/1
f 45/2/1 46/5/1 47/6/1 48/3/1
f 49/2/1 50/5/1 51/6/1 52/3/1
f 53/5/1 54/7/1 55/8/1 56/6/1
f 57/9/1 58/10/1 59/2/1 60/1/1
f 61/10/1 62/11/1 63/5/1 64/2/1
f 65/10/1 66/11/1 67/5/1 68/2/1
f 69/10/1 70/11/1 71/5/1 72/2/1
f 73/11/1 74/12/1 75/7/1 76/5/1
f 77/9/1 78/10/1 79/2/1 80/1/1
f 81/10/1 82/11/1 83/5/1 84/2/1
f 85/10/1 86/11/1 87/5/1 88/2/1
f 89/10/1 90/11/1 91/5/1 92/2/1
f 93/10/1 94/11/1 95/5/1 96/2/1
f 97/10/1 98/11/1 99/5/1 100/2/1
f 101/10/1 102/11/1 103/5/1 104/2/1
f 105/10/1 106/11/1 107/5/1 108/2/1
f 109/11/1 110/12/1 111/7/1 112/5/1
f 113/9/1 114/10/1 115/2/1 116/1/1
f 117/10/1 118/11/1 119/5/1 120/2/1
f 121/10/1 122/11/1 123/5/1 124/2/1
f 125/10/1 126/11/1 127/5/1 128/2/1
f 129/11/1 130/12/1 131/7/1 132/5/1
f 133/9/1 134/10/1 135/2/1 136/1/1
f 137/10/1 138/11/1 139/5/1 140/2/1
f 141/10/1 142/11/1 143/5/1 144/2/1
f 145/10/1 146/11/1 147/5/1 148/2/1
f 149/10/1 150/11/1 151/5/1 152/2/1
f 153/10/1 154/11/1 155/5/1 156/2/1
f 157/10/1 158/11/1 159/5/1 160/2/1
f 161/10/1 162/11/1 163/5/1 164/2/1
f 165/11/1 166/12/1 167/7/1 168/5/1
f 169/13/1 170/14/1 171/10/1 172/9/1
f 173/14/1 174/15/1 175/11/1 176/10/1
f 177/14/1 178/15/1 179/11/1 180/10/1
f 181/14/1 182/15/1 183/11/1 184/10/1
f 185/15/1 186/16/1 187/12/1 188/11/1
f 189/13/1 190/14/1 191/10/1 192/9/1
f 193/14/1 194/15/1 195/11/1 196/10/1
f 197/14/1 198/15/1 199/11/1 200/10/1
f 201/14/1 202/15/1 203/11/1 204/10/1
f 205/14/1 206/15/1 207/11/1 208/10/1
f 209/14/1 210/15/1 211/11/1 212/10/1
f 213/14/1 214/15/1 215/11/1 216/10/1
f 217/14/1 218/15/1 219/11/1 220/10/1
f 221/15/1 222/16/1 223/12/1 224/11/1
f 225/1/1 226/2/1 227/3/1 228/4/1
f 229/2/1 230/5/1 231/6/1 232/3/1
f 233/2/1 234/5/1 235/6/1 236/3/1
f 237/5/1 238/7/1 239/8/1 240/6/1
f 241/9/1 242/10/1 243/2/1 244/1/1
f 245/10/1 246/11/1 247/5/1 248/2/1
f 249/10/1 250/11/1 251/5/1 252/2/1
f 253/11/1 254/12/1 255/7/1 256/5/1
f 257/13/1 258/14/1 259/10/1 260/9/1
f 261/14/1 262/15/1 263/11/1 264/10/1
f 265/14/1 266/15/1 267/11/1 268/10/1
f 269/15/1 270/16/1 271/12/1 272/11/1

