# Tiled2Unity generated file. Do not modify by hand.
# Wavefront file for 'CT_WaterMaze_mesh_0006.obj'

# Vertices (Count = 12)
v -928 -1216 0
v -960 -1216 0
v -960 -1184 0
v -928 -1184 0
v -928 -1248 0
v -960 -1248 0
v -960 -1216 0
v -928 -1216 0
v -928 -1280 0
v -960 -1280 0
v -960 -1248 0
v -928 -1248 0

# Texture cooridinates (Count = 4)
vt 0.25 0
vt 0.5 0
vt 0.5 0.25
vt 0.25 0.25

# Normal
vn 0 0 -1

# Mesh description
g CT_WaterMaze_mesh_0006

# Faces
f 1/1/1 2/2/1 3/3/1 4/4/1
f 5/1/1 6/2/1 7/3/1 8/4/1
f 9/1/1 10/2/1 11/3/1 12/4/1

