# Tiled2Unity generated file. Do not modify by hand.
# Wavefront file for 'CT_WaterMaze_mesh_0007.obj'

# Vertices (Count = 20)
v -640 -1120 0
v -672 -1120 0
v -672 -1088 0
v -640 -1088 0
v -672 -1120 0
v -704 -1120 0
v -704 -1088 0
v -672 -1088 0
v -704 -1120 0
v -736 -1120 0
v -736 -1088 0
v -704 -1088 0
v -736 -1120 0
v -768 -1120 0
v -768 -1088 0
v -736 -1088 0
v -768 -1120 0
v -800 -1120 0
v -800 -1088 0
v -768 -1088 0

# Texture cooridinates (Count = 4)
vt 0.6 0.5
vt 0.7 0.5
vt 0.7 0.6
vt 0.6 0.6

# Normal
vn 0 0 -1

# Mesh description
g CT_WaterMaze_mesh_0007

# Faces
f 1/1/1 2/2/1 3/3/1 4/4/1
f 5/1/1 6/2/1 7/3/1 8/4/1
f 9/1/1 10/2/1 11/3/1 12/4/1
f 13/1/1 14/2/1 15/3/1 16/4/1
f 17/1/1 18/2/1 19/3/1 20/4/1

