# Tiled2Unity generated file. Do not modify by hand.
# Wavefront file for 'LB_Armory_mesh_0003.obj'

# Vertices (Count = 44)
v -1280 -640 0
v -1312 -640 0
v -1312 -608 0
v -1280 -608 0
v -1312 -640 0
v -1344 -640 0
v -1344 -608 0
v -1312 -608 0
v -1344 -640 0
v -1376 -640 0
v -1376 -608 0
v -1344 -608 0
v -1376 -640 0
v -1408 -640 0
v -1408 -608 0
v -1376 -608 0
v -1408 -640 0
v -1440 -640 0
v -1440 -608 0
v -1408 -608 0
v -1440 -640 0
v -1472 -640 0
v -1472 -608 0
v -1440 -608 0
v -1280 -704 0
v -1312 -704 0
v -1312 -672 0
v -1280 -672 0
v -1280 -736 0
v -1312 -736 0
v -1312 -704 0
v -1280 -704 0
v -1312 -736 0
v -1344 -736 0
v -1344 -704 0
v -1312 -704 0
v -1472 -768 0
v -1504 -768 0
v -1504 -736 0
v -1472 -736 0
v -1504 -768 0
v -1536 -768 0
v -1536 -736 0
v -1504 -736 0

# Texture cooridinates (Count = 8)
vt 0.9 0.6666666
vt 1 0.6666666
vt 1 1
vt 0.9 1
vt 0 0.6666666
vt 0.1 0.6666666
vt 0.1 1
vt 0 1

# Normal
vn 0 0 -1

# Mesh description
g LB_Armory_mesh_0003

# Faces
f 1/1/1 2/2/1 3/3/1 4/4/1
f 5/1/1 6/2/1 7/3/1 8/4/1
f 9/1/1 10/2/1 11/3/1 12/4/1
f 13/1/1 14/2/1 15/3/1 16/4/1
f 17/1/1 18/2/1 19/3/1 20/4/1
f 21/1/1 22/2/1 23/3/1 24/4/1
f 25/5/1 26/6/1 27/7/1 28/8/1
f 29/5/1 30/6/1 31/7/1 32/8/1
f 33/5/1 34/6/1 35/7/1 36/8/1
f 37/1/1 38/2/1 39/3/1 40/4/1
f 41/1/1 42/2/1 43/3/1 44/4/1

