# Tiled2Unity generated file. Do not modify by hand.
# Wavefront file for 'LB_Armory_mesh_0004.obj'

# Vertices (Count = 48)
v -736 -352 0
v -768 -352 0
v -768 -320 0
v -736 -320 0
v -768 -352 0
v -800 -352 0
v -800 -320 0
v -768 -320 0
v -800 -352 0
v -832 -352 0
v -832 -320 0
v -800 -320 0
v -832 -352 0
v -864 -352 0
v -864 -320 0
v -832 -320 0
v -736 -384 0
v -768 -384 0
v -768 -352 0
v -736 -352 0
v -768 -384 0
v -800 -384 0
v -800 -352 0
v -768 -352 0
v -800 -384 0
v -832 -384 0
v -832 -352 0
v -800 -352 0
v -832 -384 0
v -864 -384 0
v -864 -352 0
v -832 -352 0
v -736 -416 0
v -768 -416 0
v -768 -384 0
v -736 -384 0
v -768 -416 0
v -800 -416 0
v -800 -384 0
v -768 -384 0
v -736 -448 0
v -768 -448 0
v -768 -416 0
v -736 -416 0
v -768 -448 0
v -800 -448 0
v -800 -416 0
v -768 -416 0

# Texture cooridinates (Count = 12)
vt 0.3 0.3
vt 0.4 0.3
vt 0.4 0.4
vt 0.3 0.4
vt 0.1 0.3
vt 0.2 0.3
vt 0.2 0.4
vt 0.1 0.4
vt 0.4 0.5
vt 0.3 0.5
vt 0.3 0.2
vt 0.4 0.2

# Normal
vn 0 0 -1

# Mesh description
g LB_Armory_mesh_0004

# Faces
f 1/1/1 2/2/1 3/3/1 4/4/1
f 5/1/1 6/2/1 7/3/1 8/4/1
f 9/5/1 10/6/1 11/7/1 12/8/1
f 13/4/1 14/3/1 15/9/1 16/10/1
f 17/11/1 18/12/1 19/2/1 20/1/1
f 21/11/1 22/12/1 23/2/1 24/1/1
f 25/4/1 26/3/1 27/9/1 28/10/1
f 29/5/1 30/6/1 31/7/1 32/8/1
f 33/11/1 34/12/1 35/2/1 36/1/1
f 37/4/1 38/3/1 39/9/1 40/10/1
f 41/11/1 42/12/1 43/2/1 44/1/1
f 45/5/1 46/6/1 47/7/1 48/8/1

