# Tiled2Unity generated file. Do not modify by hand.
# Wavefront file for 'LB_Armory_mesh_0001.obj'

# Vertices (Count = 20)
v -1184 -864 0
v -1216 -864 0
v -1216 -832 0
v -1184 -832 0
v -1216 -864 0
v -1248 -864 0
v -1248 -832 0
v -1216 -832 0
v -1248 -864 0
v -1280 -864 0
v -1280 -832 0
v -1248 -832 0
v -1664 -928 0
v -1696 -928 0
v -1696 -896 0
v -1664 -896 0
v -1696 -928 0
v -1728 -928 0
v -1728 -896 0
v -1696 -896 0

# Texture cooridinates (Count = 4)
vt 0 0.6666666
vt 0.1 0.6666666
vt 0.1 1
vt 0 1

# Normal
vn 0 0 -1

# Mesh description
g LB_Armory_mesh_0001

# Faces
f 1/1/1 2/2/1 3/3/1 4/4/1
f 5/1/1 6/2/1 7/3/1 8/4/1
f 9/1/1 10/2/1 11/3/1 12/4/1
f 13/1/1 14/2/1 15/3/1 16/4/1
f 17/1/1 18/2/1 19/3/1 20/4/1

