# Tiled2Unity generated file. Do not modify by hand.
# Wavefront file for 'PR_Puzzle_mesh_0010.obj'

# Vertices (Count = 180)
v -928 -384 0
v -960 -384 0
v -960 -352 0
v -928 -352 0
v -1024 -384 0
v -1056 -384 0
v -1056 -352 0
v -1024 -352 0
v -928 -416 0
v -960 -416 0
v -960 -384 0
v -928 -384 0
v -1024 -416 0
v -1056 -416 0
v -1056 -384 0
v -1024 -384 0
v -1056 -480 0
v -1088 -480 0
v -1088 -448 0
v -1056 -448 0
v -1088 -480 0
v -1120 -480 0
v -1120 -448 0
v -1088 -448 0
v -1056 -544 0
v -1088 -544 0
v -1088 -512 0
v -1056 -512 0
v -1088 -544 0
v -1120 -544 0
v -1120 -512 0
v -1088 -512 0
v -1248 -608 0
v -1280 -608 0
v -1280 -576 0
v -1248 -576 0
v -1280 -608 0
v -1312 -608 0
v -1312 -576 0
v -1280 -576 0
v -1280 -640 0
v -1312 -640 0
v -1312 -608 0
v -1280 -608 0
v -1312 -672 0
v -1344 -672 0
v -1344 -640 0
v -1312 -640 0
v -1440 -672 0
v -1472 -672 0
v -1472 -640 0
v -1440 -640 0
v -768 -704 0
v -800 -704 0
v -800 -672 0
v -768 -672 0
v -800 -704 0
v -832 -704 0
v -832 -672 0
v -800 -672 0
v -800 -736 0
v -832 -736 0
v -832 -704 0
v -800 -704 0
v -800 -768 0
v -832 -768 0
v -832 -736 0
v -800 -736 0
v -800 -800 0
v -832 -800 0
v -832 -768 0
v -800 -768 0
v -800 -832 0
v -832 -832 0
v -832 -800 0
v -800 -800 0
v -1472 -832 0
v -1504 -832 0
v -1504 -800 0
v -1472 -800 0
v -1504 -832 0
v -1536 -832 0
v -1536 -800 0
v -1504 -800 0
v -1536 -832 0
v -1568 -832 0
v -1568 -800 0
v -1536 -800 0
v -1568 -832 0
v -1600 -832 0
v -1600 -800 0
v -1568 -800 0
v -1600 -832 0
v -1632 -832 0
v -1632 -800 0
v -1600 -800 0
v -1632 -832 0
v -1664 -832 0
v -1664 -800 0
v -1632 -800 0
v -1664 -832 0
v -1696 -832 0
v -1696 -800 0
v -1664 -800 0
v -1696 -832 0
v -1728 -832 0
v -1728 -800 0
v -1696 -800 0
v -800 -864 0
v -832 -864 0
v -832 -832 0
v -800 -832 0
v -768 -896 0
v -800 -896 0
v -800 -864 0
v -768 -864 0
v -800 -896 0
v -832 -896 0
v -832 -864 0
v -800 -864 0
v -832 -896 0
v -864 -896 0
v -864 -864 0
v -832 -864 0
v -864 -896 0
v -896 -896 0
v -896 -864 0
v -864 -864 0
v -1568 -896 0
v -1600 -896 0
v -1600 -864 0
v -1568 -864 0
v -768 -928 0
v -800 -928 0
v -800 -896 0
v -768 -896 0
v -864 -928 0
v -896 -928 0
v -896 -896 0
v -864 -896 0
v -1536 -928 0
v -1568 -928 0
v -1568 -896 0
v -1536 -896 0
v -1568 -928 0
v -1600 -928 0
v -1600 -896 0
v -1568 -896 0
v -768 -960 0
v -800 -960 0
v -800 -928 0
v -768 -928 0
v -864 -960 0
v -896 -960 0
v -896 -928 0
v -864 -928 0
v -1504 -960 0
v -1536 -960 0
v -1536 -928 0
v -1504 -928 0
v -1536 -960 0
v -1568 -960 0
v -1568 -928 0
v -1536 -928 0
v -768 -992 0
v -800 -992 0
v -800 -960 0
v -768 -960 0
v -864 -992 0
v -896 -992 0
v -896 -960 0
v -864 -960 0
v -1472 -992 0
v -1504 -992 0
v -1504 -960 0
v -1472 -960 0
v -1504 -992 0
v -1536 -992 0
v -1536 -960 0
v -1504 -960 0

# Texture cooridinates (Count = 15)
vt 0.5 0.6
vt 0.6 0.6
vt 0.6 0.7
vt 0.5 0.7
vt 0.5 0.4
vt 0.6 0.4
vt 0.6 0.5
vt 0.5 0.5
vt 0.7 0.5
vt 0.7 0.6
vt 0.8 0.7
vt 0.7 0.7
vt 0.7 0.8
vt 0.8 0.8
vt 0.6 0.8

# Normal
vn 0 0 -1

# Mesh description
g PR_Puzzle_mesh_0010

# Faces
f 1/1/1 2/2/1 3/3/1 4/4/1
f 5/1/1 6/2/1 7/3/1 8/4/1
f 9/5/1 10/6/1 11/7/1 12/8/1
f 13/5/1 14/6/1 15/7/1 16/8/1
f 17/7/1 18/9/1 19/10/1 20/2/1
f 21/7/1 22/9/1 23/10/1 24/2/1
f 25/7/1 26/9/1 27/10/1 28/2/1
f 29/7/1 30/9/1 31/10/1 32/2/1
f 33/11/1 34/12/1 35/13/1 36/14/1
f 37/12/1 38/3/1 39/15/1 40/13/1
f 41/11/1 42/12/1 43/13/1 44/14/1
f 45/11/1 46/12/1 47/13/1 48/14/1
f 49/12/1 50/3/1 51/15/1 52/13/1
f 53/7/1 54/9/1 55/10/1 56/2/1
f 57/1/1 58/2/1 59/3/1 60/4/1
f 61/5/1 62/6/1 63/7/1 64/8/1
f 65/1/1 66/2/1 67/3/1 68/4/1
f 69/5/1 70/6/1 71/7/1 72/8/1
f 73/1/1 74/2/1 75/3/1 76/4/1
f 77/7/1 78/9/1 79/10/1 80/2/1
f 81/7/1 82/9/1 83/10/1 84/2/1
f 85/7/1 86/9/1 87/10/1 88/2/1
f 89/7/1 90/9/1 91/10/1 92/2/1
f 93/7/1 94/9/1 95/10/1 96/2/1
f 97/7/1 98/9/1 99/10/1 100/2/1
f 101/7/1 102/9/1 103/10/1 104/2/1
f 105/7/1 106/9/1 107/10/1 108/2/1
f 109/5/1 110/6/1 111/7/1 112/8/1
f 113/7/1 114/9/1 115/10/1 116/2/1
f 117/7/1 118/9/1 119/10/1 120/2/1
f 121/7/1 122/9/1 123/10/1 124/2/1
f 125/7/1 126/9/1 127/10/1 128/2/1
f 129/3/1 130/12/1 131/13/1 132/15/1
f 133/8/1 134/7/1 135/2/1 136/1/1
f 137/8/1 138/7/1 139/2/1 140/1/1
f 141/3/1 142/12/1 143/13/1 144/15/1
f 145/12/1 146/11/1 147/14/1 148/13/1
f 149/8/1 150/7/1 151/2/1 152/1/1
f 153/8/1 154/7/1 155/2/1 156/1/1
f 157/3/1 158/12/1 159/13/1 160/15/1
f 161/12/1 162/11/1 163/14/1 164/13/1
f 165/5/1 166/6/1 167/7/1 168/8/1
f 169/5/1 170/6/1 171/7/1 172/8/1
f 173/3/1 174/12/1 175/13/1 176/15/1
f 177/12/1 178/11/1 179/14/1 180/13/1

