# Tiled2Unity generated file. Do not modify by hand.
# Wavefront file for 'PR_Puzzle_mesh_0004.obj'

# Vertices (Count = 16)
v -1408 -704 0
v -1440 -704 0
v -1440 -672 0
v -1408 -672 0
v -1408 -736 0
v -1440 -736 0
v -1440 -704 0
v -1408 -704 0
v -608 -768 0
v -640 -768 0
v -640 -736 0
v -608 -736 0
v -608 -800 0
v -640 -800 0
v -640 -768 0
v -608 -768 0

# Texture cooridinates (Count = 6)
vt 0.2 0.6
vt 0.3 0.6
vt 0.3 0.7
vt 0.2 0.7
vt 0.2 0.5
vt 0.3 0.5

# Normal
vn 0 0 -1

# Mesh description
g PR_Puzzle_mesh_0004

# Faces
f 1/1/1 2/2/1 3/3/1 4/4/1
f 5/5/1 6/6/1 7/2/1 8/1/1
f 9/1/1 10/2/1 11/3/1 12/4/1
f 13/5/1 14/6/1 15/2/1 16/1/1

