# Tiled2Unity generated file. Do not modify by hand.
# Wavefront file for 'PR_Puzzle_mesh_0007.obj'

# Vertices (Count = 52)
v -1248 -352 0
v -1280 -352 0
v -1280 -320 0
v -1248 -320 0
v -1280 -352 0
v -1312 -352 0
v -1312 -320 0
v -1280 -320 0
v -1312 -352 0
v -1344 -352 0
v -1344 -320 0
v -1312 -320 0
v -1248 -384 0
v -1280 -384 0
v -1280 -352 0
v -1248 -352 0
v -1280 -384 0
v -1312 -384 0
v -1312 -352 0
v -1280 -352 0
v -1312 -384 0
v -1344 -384 0
v -1344 -352 0
v -1312 -352 0
v -1344 -384 0
v -1376 -384 0
v -1376 -352 0
v -1344 -352 0
v -1376 -384 0
v -1408 -384 0
v -1408 -352 0
v -1376 -352 0
v -1248 -416 0
v -1280 -416 0
v -1280 -384 0
v -1248 -384 0
v -1280 -416 0
v -1312 -416 0
v -1312 -384 0
v -1280 -384 0
v -1312 -416 0
v -1344 -416 0
v -1344 -384 0
v -1312 -384 0
v -1344 -416 0
v -1376 -416 0
v -1376 -384 0
v -1344 -384 0
v -1376 -416 0
v -1408 -416 0
v -1408 -384 0
v -1376 -384 0

# Texture cooridinates (Count = 20)
vt 0 0.9
vt 0.1 0.9
vt 0.1 1
vt 0 1
vt 0.2 0.9
vt 0.2 1
vt 0.3 0.9
vt 0.3 1
vt 0 0.8
vt 0.1 0.8
vt 0.2 0.8
vt 0 0.5
vt 0.1 0.5
vt 0.1 0.6
vt 0 0.6
vt 0 0.7
vt 0.1 0.7
vt 0.2 0.7
vt 0.3 0.7
vt 0.3 0.8

# Normal
vn 0 0 -1

# Mesh description
g PR_Puzzle_mesh_0007

# Faces
f 1/1/1 2/2/1 3/3/1 4/4/1
f 5/2/1 6/5/1 7/6/1 8/3/1
f 9/5/1 10/7/1 11/8/1 12/6/1
f 13/9/1 14/10/1 15/2/1 16/1/1
f 17/10/1 18/11/1 19/5/1 20/2/1
f 21/12/1 22/13/1 23/14/1 24/15/1
f 25/2/1 26/5/1 27/6/1 28/3/1
f 29/5/1 30/7/1 31/8/1 32/6/1
f 33/16/1 34/17/1 35/10/1 36/9/1
f 37/17/1 38/18/1 39/11/1 40/10/1
f 41/17/1 42/18/1 43/11/1 44/10/1
f 45/17/1 46/18/1 47/11/1 48/10/1
f 49/18/1 50/19/1 51/20/1 52/11/1

