# Tiled2Unity generated file. Do not modify by hand.
# Wavefront file for 'minigame_mesh_0002.obj'

# Vertices (Count = 352)
v -1856 -448 0
v -1888 -448 0
v -1888 -416 0
v -1856 -416 0
v -1888 -448 0
v -1920 -448 0
v -1920 -416 0
v -1888 -416 0
v -1920 -448 0
v -1952 -448 0
v -1952 -416 0
v -1920 -416 0
v -1952 -448 0
v -1984 -448 0
v -1984 -416 0
v -1952 -416 0
v -1856 -480 0
v -1888 -480 0
v -1888 -448 0
v -1856 -448 0
v -1888 -480 0
v -1920 -480 0
v -1920 -448 0
v -1888 -448 0
v -1920 -480 0
v -1952 -480 0
v -1952 -448 0
v -1920 -448 0
v -1952 -480 0
v -1984 -480 0
v -1984 -448 0
v -1952 -448 0
v -1856 -512 0
v -1888 -512 0
v -1888 -480 0
v -1856 -480 0
v -1888 -512 0
v -1920 -512 0
v -1920 -480 0
v -1888 -480 0
v -1920 -512 0
v -1952 -512 0
v -1952 -480 0
v -1920 -480 0
v -1952 -512 0
v -1984 -512 0
v -1984 -480 0
v -1952 -480 0
v -1856 -544 0
v -1888 -544 0
v -1888 -512 0
v -1856 -512 0
v -1888 -544 0
v -1920 -544 0
v -1920 -512 0
v -1888 -512 0
v -1920 -544 0
v -1952 -544 0
v -1952 -512 0
v -1920 -512 0
v -1952 -544 0
v -1984 -544 0
v -1984 -512 0
v -1952 -512 0
v -896 -704 0
v -928 -704 0
v -928 -672 0
v -896 -672 0
v -928 -704 0
v -960 -704 0
v -960 -672 0
v -928 -672 0
v -960 -704 0
v -992 -704 0
v -992 -672 0
v -960 -672 0
v -2848 -704 0
v -2880 -704 0
v -2880 -672 0
v -2848 -672 0
v -2880 -704 0
v -2912 -704 0
v -2912 -672 0
v -2880 -672 0
v -2912 -704 0
v -2944 -704 0
v -2944 -672 0
v -2912 -672 0
v -896 -736 0
v -928 -736 0
v -928 -704 0
v -896 -704 0
v -928 -736 0
v -960 -736 0
v -960 -704 0
v -928 -704 0
v -960 -736 0
v -992 -736 0
v -992 -704 0
v -960 -704 0
v -2848 -736 0
v -2880 -736 0
v -2880 -704 0
v -2848 -704 0
v -2880 -736 0
v -2912 -736 0
v -2912 -704 0
v -2880 -704 0
v -2912 -736 0
v -2944 -736 0
v -2944 -704 0
v -2912 -704 0
v -896 -768 0
v -928 -768 0
v -928 -736 0
v -896 -736 0
v -928 -768 0
v -960 -768 0
v -960 -736 0
v -928 -736 0
v -960 -768 0
v -992 -768 0
v -992 -736 0
v -960 -736 0
v -2848 -768 0
v -2880 -768 0
v -2880 -736 0
v -2848 -736 0
v -2880 -768 0
v -2912 -768 0
v -2912 -736 0
v -2880 -736 0
v -2912 -768 0
v -2944 -768 0
v -2944 -736 0
v -2912 -736 0
v -864 -896 0
v -896 -896 0
v -896 -864 0
v -864 -864 0
v -896 -896 0
v -928 -896 0
v -928 -864 0
v -896 -864 0
v -928 -896 0
v -960 -896 0
v -960 -864 0
v -928 -864 0
v -992 -896 0
v -1024 -896 0
v -1024 -864 0
v -992 -864 0
v -1024 -896 0
v -1056 -896 0
v -1056 -864 0
v -1024 -864 0
v -1056 -896 0
v -1088 -896 0
v -1088 -864 0
v -1056 -864 0
v -1088 -896 0
v -1120 -896 0
v -1120 -864 0
v -1088 -864 0
v -1120 -896 0
v -1152 -896 0
v -1152 -864 0
v -1120 -864 0
v -1152 -896 0
v -1184 -896 0
v -1184 -864 0
v -1152 -864 0
v -2656 -896 0
v -2688 -896 0
v -2688 -864 0
v -2656 -864 0
v -2688 -896 0
v -2720 -896 0
v -2720 -864 0
v -2688 -864 0
v -2720 -896 0
v -2752 -896 0
v -2752 -864 0
v -2720 -864 0
v -2752 -896 0
v -2784 -896 0
v -2784 -864 0
v -2752 -864 0
v -2784 -896 0
v -2816 -896 0
v -2816 -864 0
v -2784 -864 0
v -2816 -896 0
v -2848 -896 0
v -2848 -864 0
v -2816 -864 0
v -2880 -896 0
v -2912 -896 0
v -2912 -864 0
v -2880 -864 0
v -2912 -896 0
v -2944 -896 0
v -2944 -864 0
v -2912 -864 0
v -2944 -896 0
v -2976 -896 0
v -2976 -864 0
v -2944 -864 0
v -864 -928 0
v -896 -928 0
v -896 -896 0
v -864 -896 0
v -896 -928 0
v -928 -928 0
v -928 -896 0
v -896 -896 0
v -928 -928 0
v -960 -928 0
v -960 -896 0
v -928 -896 0
v -992 -928 0
v -1024 -928 0
v -1024 -896 0
v -992 -896 0
v -1024 -928 0
v -1056 -928 0
v -1056 -896 0
v -1024 -896 0
v -1056 -928 0
v -1088 -928 0
v -1088 -896 0
v -1056 -896 0
v -1088 -928 0
v -1120 -928 0
v -1120 -896 0
v -1088 -896 0
v -1120 -928 0
v -1152 -928 0
v -1152 -896 0
v -1120 -896 0
v -1152 -928 0
v -1184 -928 0
v -1184 -896 0
v -1152 -896 0
v -2656 -928 0
v -2688 -928 0
v -2688 -896 0
v -2656 -896 0
v -2688 -928 0
v -2720 -928 0
v -2720 -896 0
v -2688 -896 0
v -2720 -928 0
v -2752 -928 0
v -2752 -896 0
v -2720 -896 0
v -2752 -928 0
v -2784 -928 0
v -2784 -896 0
v -2752 -896 0
v -2784 -928 0
v -2816 -928 0
v -2816 -896 0
v -2784 -896 0
v -2816 -928 0
v -2848 -928 0
v -2848 -896 0
v -2816 -896 0
v -2880 -928 0
v -2912 -928 0
v -2912 -896 0
v -2880 -896 0
v -2912 -928 0
v -2944 -928 0
v -2944 -896 0
v -2912 -896 0
v -2944 -928 0
v -2976 -928 0
v -2976 -896 0
v -2944 -896 0
v -864 -960 0
v -896 -960 0
v -896 -928 0
v -864 -928 0
v -896 -960 0
v -928 -960 0
v -928 -928 0
v -896 -928 0
v -928 -960 0
v -960 -960 0
v -960 -928 0
v -928 -928 0
v -992 -960 0
v -1024 -960 0
v -1024 -928 0
v -992 -928 0
v -1024 -960 0
v -1056 -960 0
v -1056 -928 0
v -1024 -928 0
v -1056 -960 0
v -1088 -960 0
v -1088 -928 0
v -1056 -928 0
v -1088 -960 0
v -1120 -960 0
v -1120 -928 0
v -1088 -928 0
v -1120 -960 0
v -1152 -960 0
v -1152 -928 0
v -1120 -928 0
v -1152 -960 0
v -1184 -960 0
v -1184 -928 0
v -1152 -928 0
v -2656 -960 0
v -2688 -960 0
v -2688 -928 0
v -2656 -928 0
v -2688 -960 0
v -2720 -960 0
v -2720 -928 0
v -2688 -928 0
v -2720 -960 0
v -2752 -960 0
v -2752 -928 0
v -2720 -928 0
v -2752 -960 0
v -2784 -960 0
v -2784 -928 0
v -2752 -928 0
v -2784 -960 0
v -2816 -960 0
v -2816 -928 0
v -2784 -928 0
v -2816 -960 0
v -2848 -960 0
v -2848 -928 0
v -2816 -928 0
v -2880 -960 0
v -2912 -960 0
v -2912 -928 0
v -2880 -928 0
v -2912 -960 0
v -2944 -960 0
v -2944 -928 0
v -2912 -928 0
v -2944 -960 0
v -2976 -960 0
v -2976 -928 0
v -2944 -928 0

# Texture cooridinates (Count = 20)
vt 0 0.4
vt 0.1 0.4
vt 0.1 0.5
vt 0 0.5
vt 0.2 0.4
vt 0.2 0.5
vt 0.3 0.4
vt 0.3 0.5
vt 0 0.3
vt 0.1 0.3
vt 0.4 0.4
vt 0.4 0.5
vt 0.2 0.3
vt 0.3 0.3
vt 0.3 0.2
vt 0.4 0.2
vt 0.4 0.3
vt 0 0.2
vt 0.1 0.2
vt 0.2 0.2

# Normal
vn 0 0 -1

# Mesh description
g minigame_mesh_0002

# Faces
f 1/1/1 2/2/1 3/3/1 4/4/1
f 5/2/1 6/5/1 7/6/1 8/3/1
f 9/2/1 10/5/1 11/6/1 12/3/1
f 13/5/1 14/7/1 15/8/1 16/6/1
f 17/9/1 18/10/1 19/2/1 20/1/1
f 21/7/1 22/11/1 23/12/1 24/8/1
f 25/10/1 26/13/1 27/5/1 28/2/1
f 29/13/1 30/14/1 31/7/1 32/5/1
f 33/9/1 34/10/1 35/2/1 36/1/1
f 37/15/1 38/16/1 39/17/1 40/14/1
f 41/7/1 42/11/1 43/12/1 44/8/1
f 45/13/1 46/14/1 47/7/1 48/5/1
f 49/18/1 50/19/1 51/10/1 52/9/1
f 53/19/1 54/20/1 55/13/1 56/10/1
f 57/19/1 58/20/1 59/13/1 60/10/1
f 61/20/1 62/15/1 63/14/1 64/13/1
f 65/1/1 66/2/1 67/3/1 68/4/1
f 69/2/1 70/5/1 71/6/1 72/3/1
f 73/5/1 74/7/1 75/8/1 76/6/1
f 77/7/1 78/5/1 79/6/1 80/8/1
f 81/5/1 82/2/1 83/3/1 84/6/1
f 85/2/1 86/1/1 87/4/1 88/3/1
f 89/9/1 90/10/1 91/2/1 92/1/1
f 93/7/1 94/11/1 95/12/1 96/8/1
f 97/13/1 98/14/1 99/7/1 100/5/1
f 101/14/1 102/13/1 103/5/1 104/7/1
f 105/11/1 106/7/1 107/8/1 108/12/1
f 109/10/1 110/9/1 111/1/1 112/2/1
f 113/18/1 114/19/1 115/10/1 116/9/1
f 117/19/1 118/20/1 119/13/1 120/10/1
f 121/20/1 122/15/1 123/14/1 124/13/1
f 125/15/1 126/20/1 127/13/1 128/14/1
f 129/20/1 130/19/1 131/10/1 132/13/1
f 133/19/1 134/18/1 135/9/1 136/10/1
f 137/1/1 138/2/1 139/3/1 140/4/1
f 141/2/1 142/5/1 143/6/1 144/3/1
f 145/5/1 146/7/1 147/8/1 148/6/1
f 149/1/1 150/2/1 151/3/1 152/4/1
f 153/2/1 154/5/1 155/6/1 156/3/1
f 157/5/1 158/7/1 159/8/1 160/6/1
f 161/1/1 162/2/1 163/3/1 164/4/1
f 165/2/1 166/5/1 167/6/1 168/3/1
f 169/5/1 170/7/1 171/8/1 172/6/1
f 173/7/1 174/5/1 175/6/1 176/8/1
f 177/5/1 178/2/1 179/3/1 180/6/1
f 181/2/1 182/1/1 183/4/1 184/3/1
f 185/7/1 186/5/1 187/6/1 188/8/1
f 189/5/1 190/2/1 191/3/1 192/6/1
f 193/2/1 194/1/1 195/4/1 196/3/1
f 197/7/1 198/5/1 199/6/1 200/8/1
f 201/5/1 202/2/1 203/3/1 204/6/1
f 205/2/1 206/1/1 207/4/1 208/3/1
f 209/9/1 210/10/1 211/2/1 212/1/1
f 213/10/1 214/13/1 215/5/1 216/2/1
f 217/13/1 218/14/1 219/7/1 220/5/1
f 221/9/1 222/10/1 223/2/1 224/1/1
f 225/15/1 226/16/1 227/17/1 228/14/1
f 229/13/1 230/14/1 231/7/1 232/5/1
f 233/9/1 234/10/1 235/2/1 236/1/1
f 237/10/1 238/13/1 239/5/1 240/2/1
f 241/13/1 242/14/1 243/7/1 244/5/1
f 245/14/1 246/13/1 247/5/1 248/7/1
f 249/13/1 250/10/1 251/2/1 252/5/1
f 253/10/1 254/9/1 255/1/1 256/2/1
f 257/14/1 258/13/1 259/5/1 260/7/1
f 261/16/1 262/15/1 263/14/1 264/17/1
f 265/10/1 266/9/1 267/1/1 268/2/1
f 269/14/1 270/13/1 271/5/1 272/7/1
f 273/13/1 274/10/1 275/2/1 276/5/1
f 277/10/1 278/9/1 279/1/1 280/2/1
f 281/18/1 282/19/1 283/10/1 284/9/1
f 285/19/1 286/20/1 287/13/1 288/10/1
f 289/20/1 290/15/1 291/14/1 292/13/1
f 293/18/1 294/19/1 295/10/1 296/9/1
f 297/19/1 298/20/1 299/13/1 300/10/1
f 301/20/1 302/15/1 303/14/1 304/13/1
f 305/18/1 306/19/1 307/10/1 308/9/1
f 309/19/1 310/20/1 311/13/1 312/10/1
f 313/20/1 314/15/1 315/14/1 316/13/1
f 317/15/1 318/20/1 319/13/1 320/14/1
f 321/20/1 322/19/1 323/10/1 324/13/1
f 325/19/1 326/18/1 327/9/1 328/10/1
f 329/15/1 330/20/1 331/13/1 332/14/1
f 333/20/1 334/19/1 335/10/1 336/13/1
f 337/19/1 338/18/1 339/9/1 340/10/1
f 341/15/1 342/20/1 343/13/1 344/14/1
f 345/20/1 346/19/1 347/10/1 348/13/1
f 349/19/1 350/18/1 351/9/1 352/10/1

