# Tiled2Unity generated file. Do not modify by hand.
# Wavefront file for 'minigame_mesh_0004.obj'

# Vertices (Count = 24)
v -832 -672 0
v -864 -672 0
v -864 -640 0
v -832 -640 0
v -2976 -672 0
v -3008 -672 0
v -3008 -640 0
v -2976 -640 0
v -832 -736 0
v -864 -736 0
v -864 -704 0
v -832 -704 0
v -2976 -736 0
v -3008 -736 0
v -3008 -704 0
v -2976 -704 0
v -832 -800 0
v -864 -800 0
v -864 -768 0
v -832 -768 0
v -2976 -800 0
v -3008 -800 0
v -3008 -768 0
v -2976 -768 0

# Texture cooridinates (Count = 4)
vt 0.5 0.6
vt 0.6 0.6
vt 0.6 0.7
vt 0.5 0.7

# Normal
vn 0 0 -1

# Mesh description
g minigame_mesh_0004

# Faces
f 1/1/1 2/2/1 3/3/1 4/4/1
f 5/1/1 6/2/1 7/3/1 8/4/1
f 9/1/1 10/2/1 11/3/1 12/4/1
f 13/1/1 14/2/1 15/3/1 16/4/1
f 17/1/1 18/2/1 19/3/1 20/4/1
f 21/1/1 22/2/1 23/3/1 24/4/1

