# Tiled2Unity generated file. Do not modify by hand.
# Wavefront file for 'CT_Entryway_mesh_0004.obj'

# Vertices (Count = 96)
v -2208 -224 0
v -2240 -224 0
v -2240 -192 0
v -2208 -192 0
v -2176 -256 0
v -2208 -256 0
v -2208 -224 0
v -2176 -224 0
v -2144 -288 0
v -2176 -288 0
v -2176 -256 0
v -2144 -256 0
v -2112 -320 0
v -2144 -320 0
v -2144 -288 0
v -2112 -288 0
v -2080 -352 0
v -2112 -352 0
v -2112 -320 0
v -2080 -320 0
v -1120 -384 0
v -1152 -384 0
v -1152 -352 0
v -1120 -352 0
v -1152 -384 0
v -1184 -384 0
v -1184 -352 0
v -1152 -352 0
v -2048 -384 0
v -2080 -384 0
v -2080 -352 0
v -2048 -352 0
v -1088 -416 0
v -1120 -416 0
v -1120 -384 0
v -1088 -384 0
v -1120 -416 0
v -1152 -416 0
v -1152 -384 0
v -1120 -384 0
v -1056 -448 0
v -1088 -448 0
v -1088 -416 0
v -1056 -416 0
v -1088 -448 0
v -1120 -448 0
v -1120 -416 0
v -1088 -416 0
v -1024 -480 0
v -1056 -480 0
v -1056 -448 0
v -1024 -448 0
v -1056 -480 0
v -1088 -480 0
v -1088 -448 0
v -1056 -448 0
v -1056 -512 0
v -1088 -512 0
v -1088 -480 0
v -1056 -480 0
v -1088 -512 0
v -1120 -512 0
v -1120 -480 0
v -1088 -480 0
v -1088 -544 0
v -1120 -544 0
v -1120 -512 0
v -1088 -512 0
v -1120 -544 0
v -1152 -544 0
v -1152 -512 0
v -1120 -512 0
v -1120 -576 0
v -1152 -576 0
v -1152 -544 0
v -1120 -544 0
v -1152 -576 0
v -1184 -576 0
v -1184 -544 0
v -1152 -544 0
v -1088 -608 0
v -1120 -608 0
v -1120 -576 0
v -1088 -576 0
v -1120 -608 0
v -1152 -608 0
v -1152 -576 0
v -1120 -576 0
v -1056 -640 0
v -1088 -640 0
v -1088 -608 0
v -1056 -608 0
v -1088 -640 0
v -1120 -640 0
v -1120 -608 0
v -1088 -608 0

# Texture cooridinates (Count = 10)
vt 0.6 0.7
vt 0.7 0.7
vt 0.7 0.8
vt 0.6 0.8
vt 0.8 0.5
vt 0.7 0.5
vt 0.7 0.6
vt 0.8 0.6
vt 0.8 0.7
vt 0.8 0.8

# Normal
vn 0 0 -1

# Mesh description
g CT_Entryway_mesh_0004

# Faces
f 1/1/1 2/2/1 3/3/1 4/4/1
f 5/1/1 6/2/1 7/3/1 8/4/1
f 9/1/1 10/2/1 11/3/1 12/4/1
f 13/1/1 14/2/1 15/3/1 16/4/1
f 17/1/1 18/2/1 19/3/1 20/4/1
f 21/1/1 22/2/1 23/3/1 24/4/1
f 25/5/1 26/6/1 27/7/1 28/8/1
f 29/1/1 30/2/1 31/3/1 32/4/1
f 33/1/1 34/2/1 35/3/1 36/4/1
f 37/2/1 38/9/1 39/10/1 40/3/1
f 41/1/1 42/2/1 43/3/1 44/4/1
f 45/2/1 46/9/1 47/10/1 48/3/1
f 49/6/1 50/5/1 51/8/1 52/7/1
f 53/2/1 54/1/1 55/4/1 56/3/1
f 57/9/1 58/2/1 59/3/1 60/10/1
f 61/2/1 62/1/1 63/4/1 64/3/1
f 65/9/1 66/2/1 67/3/1 68/10/1
f 69/2/1 70/1/1 71/4/1 72/3/1
f 73/1/1 74/2/1 75/3/1 76/4/1
f 77/5/1 78/6/1 79/7/1 80/8/1
f 81/1/1 82/2/1 83/3/1 84/4/1
f 85/2/1 86/9/1 87/10/1 88/3/1
f 89/1/1 90/2/1 91/3/1 92/4/1
f 93/2/1 94/9/1 95/10/1 96/3/1

