# Tiled2Unity generated file. Do not modify by hand.
# Wavefront file for 'CT_Entryway_mesh_0002.obj'

# Vertices (Count = 592)
v -1888 -288 0
v -1920 -288 0
v -1920 -256 0
v -1888 -256 0
v -1920 -288 0
v -1952 -288 0
v -1952 -256 0
v -1920 -256 0
v -1952 -288 0
v -1984 -288 0
v -1984 -256 0
v -1952 -256 0
v -1984 -288 0
v -2016 -288 0
v -2016 -256 0
v -1984 -256 0
v -1184 -320 0
v -1216 -320 0
v -1216 -288 0
v -1184 -288 0
v -1216 -320 0
v -1248 -320 0
v -1248 -288 0
v -1216 -288 0
v -1248 -320 0
v -1280 -320 0
v -1280 -288 0
v -1248 -288 0
v -1280 -320 0
v -1312 -320 0
v -1312 -288 0
v -1280 -288 0
v -1312 -320 0
v -1344 -320 0
v -1344 -288 0
v -1312 -288 0
v -1344 -320 0
v -1376 -320 0
v -1376 -288 0
v -1344 -288 0
v -1376 -320 0
v -1408 -320 0
v -1408 -288 0
v -1376 -288 0
v -1408 -320 0
v -1440 -320 0
v -1440 -288 0
v -1408 -288 0
v -1440 -320 0
v -1472 -320 0
v -1472 -288 0
v -1440 -288 0
v -1472 -320 0
v -1504 -320 0
v -1504 -288 0
v -1472 -288 0
v -1504 -320 0
v -1536 -320 0
v -1536 -288 0
v -1504 -288 0
v -1536 -320 0
v -1568 -320 0
v -1568 -288 0
v -1536 -288 0
v -1568 -320 0
v -1600 -320 0
v -1600 -288 0
v -1568 -288 0
v -1600 -320 0
v -1632 -320 0
v -1632 -288 0
v -1600 -288 0
v -1632 -320 0
v -1664 -320 0
v -1664 -288 0
v -1632 -288 0
v -1664 -320 0
v -1696 -320 0
v -1696 -288 0
v -1664 -288 0
v -1696 -320 0
v -1728 -320 0
v -1728 -288 0
v -1696 -288 0
v -1728 -320 0
v -1760 -320 0
v -1760 -288 0
v -1728 -288 0
v -1760 -320 0
v -1792 -320 0
v -1792 -288 0
v -1760 -288 0
v -1792 -320 0
v -1824 -320 0
v -1824 -288 0
v -1792 -288 0
v -1824 -320 0
v -1856 -320 0
v -1856 -288 0
v -1824 -288 0
v -1856 -320 0
v -1888 -320 0
v -1888 -288 0
v -1856 -288 0
v -1888 -320 0
v -1920 -320 0
v -1920 -288 0
v -1888 -288 0
v -1920 -320 0
v -1952 -320 0
v -1952 -288 0
v -1920 -288 0
v -1952 -320 0
v -1984 -320 0
v -1984 -288 0
v -1952 -288 0
v -1984 -320 0
v -2016 -320 0
v -2016 -288 0
v -1984 -288 0
v -1184 -352 0
v -1216 -352 0
v -1216 -320 0
v -1184 -320 0
v -1216 -352 0
v -1248 -352 0
v -1248 -320 0
v -1216 -320 0
v -1248 -352 0
v -1280 -352 0
v -1280 -320 0
v -1248 -320 0
v -1280 -352 0
v -1312 -352 0
v -1312 -320 0
v -1280 -320 0
v -1312 -352 0
v -1344 -352 0
v -1344 -320 0
v -1312 -320 0
v -1344 -352 0
v -1376 -352 0
v -1376 -320 0
v -1344 -320 0
v -1376 -352 0
v -1408 -352 0
v -1408 -320 0
v -1376 -320 0
v -1408 -352 0
v -1440 -352 0
v -1440 -320 0
v -1408 -320 0
v -1440 -352 0
v -1472 -352 0
v -1472 -320 0
v -1440 -320 0
v -1472 -352 0
v -1504 -352 0
v -1504 -320 0
v -1472 -320 0
v -1504 -352 0
v -1536 -352 0
v -1536 -320 0
v -1504 -320 0
v -1536 -352 0
v -1568 -352 0
v -1568 -320 0
v -1536 -320 0
v -1568 -352 0
v -1600 -352 0
v -1600 -320 0
v -1568 -320 0
v -1600 -352 0
v -1632 -352 0
v -1632 -320 0
v -1600 -320 0
v -1632 -352 0
v -1664 -352 0
v -1664 -320 0
v -1632 -320 0
v -1664 -352 0
v -1696 -352 0
v -1696 -320 0
v -1664 -320 0
v -1696 -352 0
v -1728 -352 0
v -1728 -320 0
v -1696 -320 0
v -1728 -352 0
v -1760 -352 0
v -1760 -320 0
v -1728 -320 0
v -1760 -352 0
v -1792 -352 0
v -1792 -320 0
v -1760 -320 0
v -1792 -352 0
v -1824 -352 0
v -1824 -320 0
v -1792 -320 0
v -1824 -352 0
v -1856 -352 0
v -1856 -320 0
v -1824 -320 0
v -1856 -352 0
v -1888 -352 0
v -1888 -320 0
v -1856 -320 0
v -1888 -352 0
v -1920 -352 0
v -1920 -320 0
v -1888 -320 0
v -1920 -352 0
v -1952 -352 0
v -1952 -320 0
v -1920 -320 0
v -1952 -352 0
v -1984 -352 0
v -1984 -320 0
v -1952 -320 0
v -1984 -352 0
v -2016 -352 0
v -2016 -320 0
v -1984 -320 0
v -1184 -384 0
v -1216 -384 0
v -1216 -352 0
v -1184 -352 0
v -1216 -384 0
v -1248 -384 0
v -1248 -352 0
v -1216 -352 0
v -1248 -384 0
v -1280 -384 0
v -1280 -352 0
v -1248 -352 0
v -1280 -384 0
v -1312 -384 0
v -1312 -352 0
v -1280 -352 0
v -1312 -384 0
v -1344 -384 0
v -1344 -352 0
v -1312 -352 0
v -1344 -384 0
v -1376 -384 0
v -1376 -352 0
v -1344 -352 0
v -1376 -384 0
v -1408 -384 0
v -1408 -352 0
v -1376 -352 0
v -1408 -384 0
v -1440 -384 0
v -1440 -352 0
v -1408 -352 0
v -1440 -384 0
v -1472 -384 0
v -1472 -352 0
v -1440 -352 0
v -1472 -384 0
v -1504 -384 0
v -1504 -352 0
v -1472 -352 0
v -1504 -384 0
v -1536 -384 0
v -1536 -352 0
v -1504 -352 0
v -1536 -384 0
v -1568 -384 0
v -1568 -352 0
v -1536 -352 0
v -1568 -384 0
v -1600 -384 0
v -1600 -352 0
v -1568 -352 0
v -1600 -384 0
v -1632 -384 0
v -1632 -352 0
v -1600 -352 0
v -1632 -384 0
v -1664 -384 0
v -1664 -352 0
v -1632 -352 0
v -1664 -384 0
v -1696 -384 0
v -1696 -352 0
v -1664 -352 0
v -1696 -384 0
v -1728 -384 0
v -1728 -352 0
v -1696 -352 0
v -1728 -384 0
v -1760 -384 0
v -1760 -352 0
v -1728 -352 0
v -1760 -384 0
v -1792 -384 0
v -1792 -352 0
v -1760 -352 0
v -1792 -384 0
v -1824 -384 0
v -1824 -352 0
v -1792 -352 0
v -1824 -384 0
v -1856 -384 0
v -1856 -352 0
v -1824 -352 0
v -1856 -384 0
v -1888 -384 0
v -1888 -352 0
v -1856 -352 0
v -1888 -384 0
v -1920 -384 0
v -1920 -352 0
v -1888 -352 0
v -1920 -384 0
v -1952 -384 0
v -1952 -352 0
v -1920 -352 0
v -1952 -384 0
v -1984 -384 0
v -1984 -352 0
v -1952 -352 0
v -1280 -416 0
v -1312 -416 0
v -1312 -384 0
v -1280 -384 0
v -1312 -416 0
v -1344 -416 0
v -1344 -384 0
v -1312 -384 0
v -1344 -416 0
v -1376 -416 0
v -1376 -384 0
v -1344 -384 0
v -1376 -416 0
v -1408 -416 0
v -1408 -384 0
v -1376 -384 0
v -1408 -416 0
v -1440 -416 0
v -1440 -384 0
v -1408 -384 0
v -1440 -416 0
v -1472 -416 0
v -1472 -384 0
v -1440 -384 0
v -1472 -416 0
v -1504 -416 0
v -1504 -384 0
v -1472 -384 0
v -1504 -416 0
v -1536 -416 0
v -1536 -384 0
v -1504 -384 0
v -1536 -416 0
v -1568 -416 0
v -1568 -384 0
v -1536 -384 0
v -1696 -416 0
v -1728 -416 0
v -1728 -384 0
v -1696 -384 0
v -1728 -416 0
v -1760 -416 0
v -1760 -384 0
v -1728 -384 0
v -1760 -416 0
v -1792 -416 0
v -1792 -384 0
v -1760 -384 0
v -1792 -416 0
v -1824 -416 0
v -1824 -384 0
v -1792 -384 0
v -1824 -416 0
v -1856 -416 0
v -1856 -384 0
v -1824 -384 0
v -1856 -416 0
v -1888 -416 0
v -1888 -384 0
v -1856 -384 0
v -1888 -416 0
v -1920 -416 0
v -1920 -384 0
v -1888 -384 0
v -1920 -416 0
v -1952 -416 0
v -1952 -384 0
v -1920 -384 0
v -1312 -448 0
v -1344 -448 0
v -1344 -416 0
v -1312 -416 0
v -1344 -448 0
v -1376 -448 0
v -1376 -416 0
v -1344 -416 0
v -1376 -448 0
v -1408 -448 0
v -1408 -416 0
v -1376 -416 0
v -1408 -448 0
v -1440 -448 0
v -1440 -416 0
v -1408 -416 0
v -1440 -448 0
v -1472 -448 0
v -1472 -416 0
v -1440 -416 0
v -1472 -448 0
v -1504 -448 0
v -1504 -416 0
v -1472 -416 0
v -1504 -448 0
v -1536 -448 0
v -1536 -416 0
v -1504 -416 0
v -1696 -448 0
v -1728 -448 0
v -1728 -416 0
v -1696 -416 0
v -1728 -448 0
v -1760 -448 0
v -1760 -416 0
v -1728 -416 0
v -1760 -448 0
v -1792 -448 0
v -1792 -416 0
v -1760 -416 0
v -1792 -448 0
v -1824 -448 0
v -1824 -416 0
v -1792 -416 0
v -1824 -448 0
v -1856 -448 0
v -1856 -416 0
v -1824 -416 0
v -1856 -448 0
v -1888 -448 0
v -1888 -416 0
v -1856 -416 0
v -1888 -448 0
v -1920 -448 0
v -1920 -416 0
v -1888 -416 0
v -1920 -448 0
v -1952 -448 0
v -1952 -416 0
v -1920 -416 0
v -1696 -480 0
v -1728 -480 0
v -1728 -448 0
v -1696 -448 0
v -1728 -480 0
v -1760 -480 0
v -1760 -448 0
v -1728 -448 0
v -1760 -480 0
v -1792 -480 0
v -1792 -448 0
v -1760 -448 0
v -1792 -480 0
v -1824 -480 0
v -1824 -448 0
v -1792 -448 0
v -1824 -480 0
v -1856 -480 0
v -1856 -448 0
v -1824 -448 0
v -1856 -480 0
v -1888 -480 0
v -1888 -448 0
v -1856 -448 0
v -1888 -480 0
v -1920 -480 0
v -1920 -448 0
v -1888 -448 0
v -1920 -480 0
v -1952 -480 0
v -1952 -448 0
v -1920 -448 0
v -1856 -512 0
v -1888 -512 0
v -1888 -480 0
v -1856 -480 0
v -1888 -512 0
v -1920 -512 0
v -1920 -480 0
v -1888 -480 0
v -1920 -512 0
v -1952 -512 0
v -1952 -480 0
v -1920 -480 0
v -2208 -512 0
v -2240 -512 0
v -2240 -480 0
v -2208 -480 0
v -2240 -512 0
v -2272 -512 0
v -2272 -480 0
v -2240 -480 0
v -2272 -512 0
v -2304 -512 0
v -2304 -480 0
v -2272 -480 0
v -2304 -512 0
v -2336 -512 0
v -2336 -480 0
v -2304 -480 0
v -2336 -512 0
v -2368 -512 0
v -2368 -480 0
v -2336 -480 0
v -2368 -512 0
v -2400 -512 0
v -2400 -480 0
v -2368 -480 0
v -2208 -544 0
v -2240 -544 0
v -2240 -512 0
v -2208 -512 0
v -2240 -544 0
v -2272 -544 0
v -2272 -512 0
v -2240 -512 0
v -2272 -544 0
v -2304 -544 0
v -2304 -512 0
v -2272 -512 0
v -2304 -544 0
v -2336 -544 0
v -2336 -512 0
v -2304 -512 0
v -2336 -544 0
v -2368 -544 0
v -2368 -512 0
v -2336 -512 0
v -2368 -544 0
v -2400 -544 0
v -2400 -512 0
v -2368 -512 0
v -2208 -576 0
v -2240 -576 0
v -2240 -544 0
v -2208 -544 0
v -2240 -576 0
v -2272 -576 0
v -2272 -544 0
v -2240 -544 0
v -2272 -576 0
v -2304 -576 0
v -2304 -544 0
v -2272 -544 0
v -2304 -576 0
v -2336 -576 0
v -2336 -544 0
v -2304 -544 0
v -2336 -576 0
v -2368 -576 0
v -2368 -544 0
v -2336 -544 0
v -2368 -576 0
v -2400 -576 0
v -2400 -544 0
v -2368 -544 0
v -2208 -608 0
v -2240 -608 0
v -2240 -576 0
v -2208 -576 0
v -2240 -608 0
v -2272 -608 0
v -2272 -576 0
v -2240 -576 0
v -2272 -608 0
v -2304 -608 0
v -2304 -576 0
v -2272 -576 0
v -2304 -608 0
v -2336 -608 0
v -2336 -576 0
v -2304 -576 0
v -2336 -608 0
v -2368 -608 0
v -2368 -576 0
v -2336 -576 0
v -2368 -608 0
v -2400 -608 0
v -2400 -576 0
v -2368 -576 0

# Texture cooridinates (Count = 21)
vt 0.6 0.9
vt 0.7 0.9
vt 0.7 1
vt 0.6 1
vt 0.8 0.9
vt 0.8 1
vt 0.9 0.9
vt 0.9 1
vt 0.7 0.5
vt 0.8 0.5
vt 0.8 0.6
vt 0.7 0.6
vt 0.7 0.8
vt 0.8 0.8
vt 0.9 0.8
vt 0.6 0.8
vt 0.6 0.6
vt 0.7 0.7
vt 0.6 0.7
vt 0.8 0.7
vt 0.9 0.7

# Normal
vn 0 0 -1

# Mesh description
g CT_Entryway_mesh_0002

# Faces
f 1/1/1 2/2/1 3/3/1 4/4/1
f 5/2/1 6/5/1 7/6/1 8/3/1
f 9/2/1 10/5/1 11/6/1 12/3/1
f 13/5/1 14/7/1 15/8/1 16/6/1
f 17/1/1 18/2/1 19/3/1 20/4/1
f 21/2/1 22/5/1 23/6/1 24/3/1
f 25/2/1 26/5/1 27/6/1 28/3/1
f 29/2/1 30/5/1 31/6/1 32/3/1
f 33/2/1 34/5/1 35/6/1 36/3/1
f 37/2/1 38/5/1 39/6/1 40/3/1
f 41/2/1 42/5/1 43/6/1 44/3/1
f 45/2/1 46/5/1 47/6/1 48/3/1
f 49/2/1 50/5/1 51/6/1 52/3/1
f 53/2/1 54/5/1 55/6/1 56/3/1
f 57/2/1 58/5/1 59/6/1 60/3/1
f 61/2/1 62/5/1 63/6/1 64/3/1
f 65/2/1 66/5/1 67/6/1 68/3/1
f 69/2/1 70/5/1 71/6/1 72/3/1
f 73/2/1 74/5/1 75/6/1 76/3/1
f 77/2/1 78/5/1 79/6/1 80/3/1
f 81/2/1 82/5/1 83/6/1 84/3/1
f 85/2/1 86/5/1 87/6/1 88/3/1
f 89/2/1 90/5/1 91/6/1 92/3/1
f 93/2/1 94/5/1 95/6/1 96/3/1
f 97/2/1 98/5/1 99/6/1 100/3/1
f 101/2/1 102/5/1 103/6/1 104/3/1
f 105/9/1 106/10/1 107/11/1 108/12/1
f 109/13/1 110/14/1 111/5/1 112/2/1
f 113/13/1 114/14/1 115/5/1 116/2/1
f 117/14/1 118/15/1 119/7/1 120/5/1
f 121/16/1 122/13/1 123/2/1 124/1/1
f 125/13/1 126/14/1 127/5/1 128/2/1
f 129/13/1 130/14/1 131/5/1 132/2/1
f 133/13/1 134/14/1 135/5/1 136/2/1
f 137/13/1 138/14/1 139/5/1 140/2/1
f 141/13/1 142/14/1 143/5/1 144/2/1
f 145/13/1 146/14/1 147/5/1 148/2/1
f 149/13/1 150/14/1 151/5/1 152/2/1
f 153/13/1 154/14/1 155/5/1 156/2/1
f 157/13/1 158/14/1 159/5/1 160/2/1
f 161/13/1 162/14/1 163/5/1 164/2/1
f 165/13/1 166/14/1 167/5/1 168/2/1
f 169/13/1 170/14/1 171/5/1 172/2/1
f 173/13/1 174/14/1 175/5/1 176/2/1
f 177/13/1 178/14/1 179/5/1 180/2/1
f 181/13/1 182/14/1 183/5/1 184/2/1
f 185/13/1 186/14/1 187/5/1 188/2/1
f 189/13/1 190/14/1 191/5/1 192/2/1
f 193/13/1 194/14/1 195/5/1 196/2/1
f 197/13/1 198/14/1 199/5/1 200/2/1
f 201/13/1 202/14/1 203/5/1 204/2/1
f 205/13/1 206/14/1 207/5/1 208/2/1
f 209/13/1 210/14/1 211/5/1 212/2/1
f 213/13/1 214/14/1 215/5/1 216/2/1
f 217/17/1 218/12/1 219/18/1 220/19/1
f 221/20/1 222/21/1 223/15/1 224/14/1
f 225/19/1 226/18/1 227/13/1 228/16/1
f 229/18/1 230/20/1 231/14/1 232/13/1
f 233/18/1 234/20/1 235/14/1 236/13/1
f 237/12/1 238/11/1 239/20/1 240/18/1
f 241/13/1 242/14/1 243/5/1 244/2/1
f 245/13/1 246/14/1 247/5/1 248/2/1
f 249/13/1 250/14/1 251/5/1 252/2/1
f 253/13/1 254/14/1 255/5/1 256/2/1
f 257/13/1 258/14/1 259/5/1 260/2/1
f 261/13/1 262/14/1 263/5/1 264/2/1
f 265/13/1 266/14/1 267/5/1 268/2/1
f 269/17/1 270/12/1 271/18/1 272/19/1
f 273/18/1 274/20/1 275/14/1 276/13/1
f 277/18/1 278/20/1 279/14/1 280/13/1
f 281/18/1 282/20/1 283/14/1 284/13/1
f 285/18/1 286/20/1 287/14/1 288/13/1
f 289/12/1 290/11/1 291/20/1 292/18/1
f 293/13/1 294/14/1 295/5/1 296/2/1
f 297/13/1 298/14/1 299/5/1 300/2/1
f 301/13/1 302/14/1 303/5/1 304/2/1
f 305/13/1 306/14/1 307/5/1 308/2/1
f 309/13/1 310/14/1 311/5/1 312/2/1
f 313/13/1 314/14/1 315/5/1 316/2/1
f 317/17/1 318/12/1 319/18/1 320/19/1
f 321/20/1 322/21/1 323/15/1 324/14/1
f 325/19/1 326/18/1 327/13/1 328/16/1
f 329/12/1 330/11/1 331/20/1 332/18/1
f 333/13/1 334/14/1 335/5/1 336/2/1
f 337/13/1 338/14/1 339/5/1 340/2/1
f 341/13/1 342/14/1 343/5/1 344/2/1
f 345/13/1 346/14/1 347/5/1 348/2/1
f 349/13/1 350/14/1 351/5/1 352/2/1
f 353/17/1 354/12/1 355/18/1 356/19/1
f 357/20/1 358/21/1 359/15/1 360/14/1
f 361/16/1 362/13/1 363/2/1 364/1/1
f 365/13/1 366/14/1 367/5/1 368/2/1
f 369/13/1 370/14/1 371/5/1 372/2/1
f 373/13/1 374/14/1 375/5/1 376/2/1
f 377/13/1 378/14/1 379/5/1 380/2/1
f 381/13/1 382/14/1 383/5/1 384/2/1
f 385/13/1 386/14/1 387/5/1 388/2/1
f 389/14/1 390/15/1 391/7/1 392/5/1
f 393/19/1 394/18/1 395/13/1 396/16/1
f 397/18/1 398/20/1 399/14/1 400/13/1
f 401/18/1 402/20/1 403/14/1 404/13/1
f 405/18/1 406/20/1 407/14/1 408/13/1
f 409/18/1 410/20/1 411/14/1 412/13/1
f 413/18/1 414/20/1 415/14/1 416/13/1
f 417/20/1 418/21/1 419/15/1 420/14/1
f 421/16/1 422/13/1 423/2/1 424/1/1
f 425/13/1 426/14/1 427/5/1 428/2/1
f 429/13/1 430/14/1 431/5/1 432/2/1
f 433/13/1 434/14/1 435/5/1 436/2/1
f 437/13/1 438/14/1 439/5/1 440/2/1
f 441/13/1 442/14/1 443/5/1 444/2/1
f 445/13/1 446/14/1 447/5/1 448/2/1
f 449/14/1 450/15/1 451/7/1 452/5/1
f 453/19/1 454/18/1 455/13/1 456/16/1
f 457/18/1 458/20/1 459/14/1 460/13/1
f 461/18/1 462/20/1 463/14/1 464/13/1
f 465/18/1 466/20/1 467/14/1 468/13/1
f 469/18/1 470/20/1 471/14/1 472/13/1
f 473/12/1 474/11/1 475/20/1 476/18/1
f 477/13/1 478/14/1 479/5/1 480/2/1
f 481/14/1 482/15/1 483/7/1 484/5/1
f 485/19/1 486/18/1 487/13/1 488/16/1
f 489/18/1 490/20/1 491/14/1 492/13/1
f 493/20/1 494/21/1 495/15/1 496/14/1
f 497/1/1 498/2/1 499/3/1 500/4/1
f 501/2/1 502/5/1 503/6/1 504/3/1
f 505/2/1 506/5/1 507/6/1 508/3/1
f 509/2/1 510/5/1 511/6/1 512/3/1
f 513/2/1 514/5/1 515/6/1 516/3/1
f 517/5/1 518/7/1 519/8/1 520/6/1
f 521/16/1 522/13/1 523/2/1 524/1/1
f 525/13/1 526/14/1 527/5/1 528/2/1
f 529/13/1 530/14/1 531/5/1 532/2/1
f 533/13/1 534/14/1 535/5/1 536/2/1
f 537/13/1 538/14/1 539/5/1 540/2/1
f 541/14/1 542/15/1 543/7/1 544/5/1
f 545/16/1 546/13/1 547/2/1 548/1/1
f 549/13/1 550/14/1 551/5/1 552/2/1
f 553/13/1 554/14/1 555/5/1 556/2/1
f 557/13/1 558/14/1 559/5/1 560/2/1
f 561/13/1 562/14/1 563/5/1 564/2/1
f 565/14/1 566/15/1 567/7/1 568/5/1
f 569/19/1 570/18/1 571/13/1 572/16/1
f 573/18/1 574/20/1 575/14/1 576/13/1
f 577/18/1 578/20/1 579/14/1 580/13/1
f 581/18/1 582/20/1 583/14/1 584/13/1
f 585/18/1 586/20/1 587/14/1 588/13/1
f 589/20/1 590/21/1 591/15/1 592/14/1

