# Tiled2Unity generated file. Do not modify by hand.
# Wavefront file for 'CT_Entryway_mesh_0001.obj'

# Vertices (Count = 252)
v -2464 -64 0
v -2496 -64 0
v -2496 -32 0
v -2464 -32 0
v -2496 -64 0
v -2528 -64 0
v -2528 -32 0
v -2496 -32 0
v -2528 -64 0
v -2560 -64 0
v -2560 -32 0
v -2528 -32 0
v -2560 -64 0
v -2592 -64 0
v -2592 -32 0
v -2560 -32 0
v -2464 -96 0
v -2496 -96 0
v -2496 -64 0
v -2464 -64 0
v -2496 -96 0
v -2528 -96 0
v -2528 -64 0
v -2496 -64 0
v -2528 -96 0
v -2560 -96 0
v -2560 -64 0
v -2528 -64 0
v -2560 -96 0
v -2592 -96 0
v -2592 -64 0
v -2560 -64 0
v -2464 -128 0
v -2496 -128 0
v -2496 -96 0
v -2464 -96 0
v -2496 -128 0
v -2528 -128 0
v -2528 -96 0
v -2496 -96 0
v -2528 -128 0
v -2560 -128 0
v -2560 -96 0
v -2528 -96 0
v -2560 -128 0
v -2592 -128 0
v -2592 -96 0
v -2560 -96 0
v -1856 -160 0
v -1888 -160 0
v -1888 -128 0
v -1856 -128 0
v -1888 -160 0
v -1920 -160 0
v -1920 -128 0
v -1888 -128 0
v -1920 -160 0
v -1952 -160 0
v -1952 -128 0
v -1920 -128 0
v -1952 -160 0
v -1984 -160 0
v -1984 -128 0
v -1952 -128 0
v -1984 -160 0
v -2016 -160 0
v -2016 -128 0
v -1984 -128 0
v -1856 -192 0
v -1888 -192 0
v -1888 -160 0
v -1856 -160 0
v -1888 -192 0
v -1920 -192 0
v -1920 -160 0
v -1888 -160 0
v -1920 -192 0
v -1952 -192 0
v -1952 -160 0
v -1920 -160 0
v -1952 -192 0
v -1984 -192 0
v -1984 -160 0
v -1952 -160 0
v -1984 -192 0
v -2016 -192 0
v -2016 -160 0
v -1984 -160 0
v -1856 -224 0
v -1888 -224 0
v -1888 -192 0
v -1856 -192 0
v -1888 -224 0
v -1920 -224 0
v -1920 -192 0
v -1888 -192 0
v -1920 -224 0
v -1952 -224 0
v -1952 -192 0
v -1920 -192 0
v -1952 -224 0
v -1984 -224 0
v -1984 -192 0
v -1952 -192 0
v -1984 -224 0
v -2016 -224 0
v -2016 -192 0
v -1984 -192 0
v -2496 -224 0
v -2528 -224 0
v -2528 -192 0
v -2496 -192 0
v -2528 -224 0
v -2560 -224 0
v -2560 -192 0
v -2528 -192 0
v -2560 -224 0
v -2592 -224 0
v -2592 -192 0
v -2560 -192 0
v -2496 -256 0
v -2528 -256 0
v -2528 -224 0
v -2496 -224 0
v -2528 -256 0
v -2560 -256 0
v -2560 -224 0
v -2528 -224 0
v -2560 -256 0
v -2592 -256 0
v -2592 -224 0
v -2560 -224 0
v -2496 -288 0
v -2528 -288 0
v -2528 -256 0
v -2496 -256 0
v -2528 -288 0
v -2560 -288 0
v -2560 -256 0
v -2528 -256 0
v -2560 -288 0
v -2592 -288 0
v -2592 -256 0
v -2560 -256 0
v -1312 -384 0
v -1344 -384 0
v -1344 -352 0
v -1312 -352 0
v -1344 -384 0
v -1376 -384 0
v -1376 -352 0
v -1344 -352 0
v -1376 -384 0
v -1408 -384 0
v -1408 -352 0
v -1376 -352 0
v -1312 -416 0
v -1344 -416 0
v -1344 -384 0
v -1312 -384 0
v -1344 -416 0
v -1376 -416 0
v -1376 -384 0
v -1344 -384 0
v -1376 -416 0
v -1408 -416 0
v -1408 -384 0
v -1376 -384 0
v -1312 -448 0
v -1344 -448 0
v -1344 -416 0
v -1312 -416 0
v -1344 -448 0
v -1376 -448 0
v -1376 -416 0
v -1344 -416 0
v -1376 -448 0
v -1408 -448 0
v -1408 -416 0
v -1376 -416 0
v -2208 -480 0
v -2240 -480 0
v -2240 -448 0
v -2208 -448 0
v -2240 -480 0
v -2272 -480 0
v -2272 -448 0
v -2240 -448 0
v -2272 -480 0
v -2304 -480 0
v -2304 -448 0
v -2272 -448 0
v -2304 -480 0
v -2336 -480 0
v -2336 -448 0
v -2304 -448 0
v -2336 -480 0
v -2368 -480 0
v -2368 -448 0
v -2336 -448 0
v -2368 -480 0
v -2400 -480 0
v -2400 -448 0
v -2368 -448 0
v -2208 -512 0
v -2240 -512 0
v -2240 -480 0
v -2208 -480 0
v -2240 -512 0
v -2272 -512 0
v -2272 -480 0
v -2240 -480 0
v -2272 -512 0
v -2304 -512 0
v -2304 -480 0
v -2272 -480 0
v -2304 -512 0
v -2336 -512 0
v -2336 -480 0
v -2304 -480 0
v -2336 -512 0
v -2368 -512 0
v -2368 -480 0
v -2336 -480 0
v -2368 -512 0
v -2400 -512 0
v -2400 -480 0
v -2368 -480 0
v -2208 -544 0
v -2240 -544 0
v -2240 -512 0
v -2208 -512 0
v -2240 -544 0
v -2272 -544 0
v -2272 -512 0
v -2240 -512 0
v -2272 -544 0
v -2304 -544 0
v -2304 -512 0
v -2272 -512 0
v -2304 -544 0
v -2336 -544 0
v -2336 -512 0
v -2304 -512 0
v -2336 -544 0
v -2368 -544 0
v -2368 -512 0
v -2336 -512 0
v -2368 -544 0
v -2400 -544 0
v -2400 -512 0
v -2368 -512 0

# Texture cooridinates (Count = 28)
vt 0.3 0.9
vt 0.4 0.9
vt 0.4 1
vt 0.3 1
vt 0.5 0.9
vt 0.5 1
vt 0.6 0.9
vt 0.6 1
vt 0.3 0.8
vt 0.4 0.8
vt 0.5 0.8
vt 0.6 0.8
vt 0.3 0.7
vt 0.4 0.7
vt 0.5 0.7
vt 0.6 0.7
vt 0.7 0.9
vt 0.7 1
vt 0.8 0.9
vt 0.8 1
vt 0.9 0.9
vt 0.9 1
vt 0.7 0.8
vt 0.8 0.8
vt 0.9 0.8
vt 0.7 0.7
vt 0.8 0.7
vt 0.9 0.7

# Normal
vn 0 0 -1

# Mesh description
g CT_Entryway_mesh_0001

# Faces
f 1/1/1 2/2/1 3/3/1 4/4/1
f 5/2/1 6/5/1 7/6/1 8/3/1
f 9/2/1 10/5/1 11/6/1 12/3/1
f 13/5/1 14/7/1 15/8/1 16/6/1
f 17/9/1 18/10/1 19/2/1 20/1/1
f 21/10/1 22/11/1 23/5/1 24/2/1
f 25/10/1 26/11/1 27/5/1 28/2/1
f 29/11/1 30/12/1 31/7/1 32/5/1
f 33/13/1 34/14/1 35/10/1 36/9/1
f 37/14/1 38/15/1 39/11/1 40/10/1
f 41/14/1 42/15/1 43/11/1 44/10/1
f 45/15/1 46/16/1 47/12/1 48/11/1
f 49/7/1 50/17/1 51/18/1 52/8/1
f 53/17/1 54/19/1 55/20/1 56/18/1
f 57/17/1 58/19/1 59/20/1 60/18/1
f 61/17/1 62/19/1 63/20/1 64/18/1
f 65/19/1 66/21/1 67/22/1 68/20/1
f 69/12/1 70/23/1 71/17/1 72/7/1
f 73/23/1 74/24/1 75/19/1 76/17/1
f 77/23/1 78/24/1 79/19/1 80/17/1
f 81/23/1 82/24/1 83/19/1 84/17/1
f 85/24/1 86/25/1 87/21/1 88/19/1
f 89/16/1 90/26/1 91/23/1 92/12/1
f 93/26/1 94/27/1 95/24/1 96/23/1
f 97/26/1 98/27/1 99/24/1 100/23/1
f 101/26/1 102/27/1 103/24/1 104/23/1
f 105/27/1 106/28/1 107/25/1 108/24/1
f 109/1/1 110/2/1 111/3/1 112/4/1
f 113/2/1 114/5/1 115/6/1 116/3/1
f 117/5/1 118/7/1 119/8/1 120/6/1
f 121/9/1 122/10/1 123/2/1 124/1/1
f 125/10/1 126/11/1 127/5/1 128/2/1
f 129/11/1 130/12/1 131/7/1 132/5/1
f 133/13/1 134/14/1 135/10/1 136/9/1
f 137/14/1 138/15/1 139/11/1 140/10/1
f 141/15/1 142/16/1 143/12/1 144/11/1
f 145/7/1 146/17/1 147/18/1 148/8/1
f 149/17/1 150/19/1 151/20/1 152/18/1
f 153/19/1 154/21/1 155/22/1 156/20/1
f 157/12/1 158/23/1 159/17/1 160/7/1
f 161/23/1 162/24/1 163/19/1 164/17/1
f 165/24/1 166/25/1 167/21/1 168/19/1
f 169/16/1 170/26/1 171/23/1 172/12/1
f 173/26/1 174/27/1 175/24/1 176/23/1
f 177/27/1 178/28/1 179/25/1 180/24/1
f 181/7/1 182/17/1 183/18/1 184/8/1
f 185/17/1 186/19/1 187/20/1 188/18/1
f 189/17/1 190/19/1 191/20/1 192/18/1
f 193/17/1 194/19/1 195/20/1 196/18/1
f 197/17/1 198/19/1 199/20/1 200/18/1
f 201/19/1 202/21/1 203/22/1 204/20/1
f 205/12/1 206/23/1 207/17/1 208/7/1
f 209/23/1 210/24/1 211/19/1 212/17/1
f 213/23/1 214/24/1 215/19/1 216/17/1
f 217/23/1 218/24/1 219/19/1 220/17/1
f 221/23/1 222/24/1 223/19/1 224/17/1
f 225/24/1 226/25/1 227/21/1 228/19/1
f 229/16/1 230/26/1 231/23/1 232/12/1
f 233/26/1 234/27/1 235/24/1 236/23/1
f 237/26/1 238/27/1 239/24/1 240/23/1
f 241/26/1 242/27/1 243/24/1 244/23/1
f 245/26/1 246/27/1 247/24/1 248/23/1
f 249/27/1 250/28/1 251/25/1 252/24/1

