# Tiled2Unity generated file. Do not modify by hand.
# Wavefront file for 'LB_Shafts_mesh_0002.obj'

# Vertices (Count = 348)
v -2944 -160 0
v -2976 -160 0
v -2976 -128 0
v -2944 -128 0
v -2176 -416 0
v -2208 -416 0
v -2208 -384 0
v -2176 -384 0
v -2176 -448 0
v -2208 -448 0
v -2208 -416 0
v -2176 -416 0
v -1216 -480 0
v -1248 -480 0
v -1248 -448 0
v -1216 -448 0
v -1248 -480 0
v -1280 -480 0
v -1280 -448 0
v -1248 -448 0
v -1280 -480 0
v -1312 -480 0
v -1312 -448 0
v -1280 -448 0
v -1312 -480 0
v -1344 -480 0
v -1344 -448 0
v -1312 -448 0
v -1344 -480 0
v -1376 -480 0
v -1376 -448 0
v -1344 -448 0
v -1376 -480 0
v -1408 -480 0
v -1408 -448 0
v -1376 -448 0
v -1408 -480 0
v -1440 -480 0
v -1440 -448 0
v -1408 -448 0
v -1440 -480 0
v -1472 -480 0
v -1472 -448 0
v -1440 -448 0
v -1472 -480 0
v -1504 -480 0
v -1504 -448 0
v -1472 -448 0
v -1504 -480 0
v -1536 -480 0
v -1536 -448 0
v -1504 -448 0
v -1536 -480 0
v -1568 -480 0
v -1568 -448 0
v -1536 -448 0
v -1568 -480 0
v -1600 -480 0
v -1600 -448 0
v -1568 -448 0
v -1600 -480 0
v -1632 -480 0
v -1632 -448 0
v -1600 -448 0
v -1632 -480 0
v -1664 -480 0
v -1664 -448 0
v -1632 -448 0
v -1664 -480 0
v -1696 -480 0
v -1696 -448 0
v -1664 -448 0
v -2176 -480 0
v -2208 -480 0
v -2208 -448 0
v -2176 -448 0
v -2624 -480 0
v -2656 -480 0
v -2656 -448 0
v -2624 -448 0
v -1216 -512 0
v -1248 -512 0
v -1248 -480 0
v -1216 -480 0
v -2176 -512 0
v -2208 -512 0
v -2208 -480 0
v -2176 -480 0
v -2208 -512 0
v -2240 -512 0
v -2240 -480 0
v -2208 -480 0
v -1216 -544 0
v -1248 -544 0
v -1248 -512 0
v -1216 -512 0
v -2496 -544 0
v -2528 -544 0
v -2528 -512 0
v -2496 -512 0
v -1216 -576 0
v -1248 -576 0
v -1248 -544 0
v -1216 -544 0
v -1344 -576 0
v -1376 -576 0
v -1376 -544 0
v -1344 -544 0
v -1376 -576 0
v -1408 -576 0
v -1408 -544 0
v -1376 -544 0
v -1408 -576 0
v -1440 -576 0
v -1440 -544 0
v -1408 -544 0
v -1440 -576 0
v -1472 -576 0
v -1472 -544 0
v -1440 -544 0
v -1472 -576 0
v -1504 -576 0
v -1504 -544 0
v -1472 -544 0
v -1504 -576 0
v -1536 -576 0
v -1536 -544 0
v -1504 -544 0
v -1536 -576 0
v -1568 -576 0
v -1568 -544 0
v -1536 -544 0
v -1568 -576 0
v -1600 -576 0
v -1600 -544 0
v -1568 -544 0
v -1600 -576 0
v -1632 -576 0
v -1632 -544 0
v -1600 -544 0
v -2464 -576 0
v -2496 -576 0
v -2496 -544 0
v -2464 -544 0
v -1216 -608 0
v -1248 -608 0
v -1248 -576 0
v -1216 -576 0
v -1344 -608 0
v -1376 -608 0
v -1376 -576 0
v -1344 -576 0
v -1600 -608 0
v -1632 -608 0
v -1632 -576 0
v -1600 -576 0
v -1216 -640 0
v -1248 -640 0
v -1248 -608 0
v -1216 -608 0
v -1344 -640 0
v -1376 -640 0
v -1376 -608 0
v -1344 -608 0
v -1600 -640 0
v -1632 -640 0
v -1632 -608 0
v -1600 -608 0
v -1696 -640 0
v -1728 -640 0
v -1728 -608 0
v -1696 -608 0
v -1728 -640 0
v -1760 -640 0
v -1760 -608 0
v -1728 -608 0
v -1760 -640 0
v -1792 -640 0
v -1792 -608 0
v -1760 -608 0
v -1216 -672 0
v -1248 -672 0
v -1248 -640 0
v -1216 -640 0
v -1344 -672 0
v -1376 -672 0
v -1376 -640 0
v -1344 -640 0
v -1600 -672 0
v -1632 -672 0
v -1632 -640 0
v -1600 -640 0
v -1216 -704 0
v -1248 -704 0
v -1248 -672 0
v -1216 -672 0
v -1344 -704 0
v -1376 -704 0
v -1376 -672 0
v -1344 -672 0
v -1600 -704 0
v -1632 -704 0
v -1632 -672 0
v -1600 -672 0
v -1216 -736 0
v -1248 -736 0
v -1248 -704 0
v -1216 -704 0
v -1344 -736 0
v -1376 -736 0
v -1376 -704 0
v -1344 -704 0
v -1600 -736 0
v -1632 -736 0
v -1632 -704 0
v -1600 -704 0
v -1632 -736 0
v -1664 -736 0
v -1664 -704 0
v -1632 -704 0
v -1664 -736 0
v -1696 -736 0
v -1696 -704 0
v -1664 -704 0
v -1696 -736 0
v -1728 -736 0
v -1728 -704 0
v -1696 -704 0
v -1728 -736 0
v -1760 -736 0
v -1760 -704 0
v -1728 -704 0
v -1760 -736 0
v -1792 -736 0
v -1792 -704 0
v -1760 -704 0
v -1792 -736 0
v -1824 -736 0
v -1824 -704 0
v -1792 -704 0
v -1824 -736 0
v -1856 -736 0
v -1856 -704 0
v -1824 -704 0
v -1856 -736 0
v -1888 -736 0
v -1888 -704 0
v -1856 -704 0
v -1888 -736 0
v -1920 -736 0
v -1920 -704 0
v -1888 -704 0
v -992 -768 0
v -1024 -768 0
v -1024 -736 0
v -992 -736 0
v -1024 -768 0
v -1056 -768 0
v -1056 -736 0
v -1024 -736 0
v -1056 -768 0
v -1088 -768 0
v -1088 -736 0
v -1056 -736 0
v -1088 -768 0
v -1120 -768 0
v -1120 -736 0
v -1088 -736 0
v -1120 -768 0
v -1152 -768 0
v -1152 -736 0
v -1120 -736 0
v -1152 -768 0
v -1184 -768 0
v -1184 -736 0
v -1152 -736 0
v -1184 -768 0
v -1216 -768 0
v -1216 -736 0
v -1184 -736 0
v -1216 -768 0
v -1248 -768 0
v -1248 -736 0
v -1216 -736 0
v -1344 -768 0
v -1376 -768 0
v -1376 -736 0
v -1344 -736 0
v -1344 -800 0
v -1376 -800 0
v -1376 -768 0
v -1344 -768 0
v -1344 -832 0
v -1376 -832 0
v -1376 -800 0
v -1344 -800 0
v -960 -864 0
v -992 -864 0
v -992 -832 0
v -960 -832 0
v -992 -864 0
v -1024 -864 0
v -1024 -832 0
v -992 -832 0
v -1024 -864 0
v -1056 -864 0
v -1056 -832 0
v -1024 -832 0
v -1056 -864 0
v -1088 -864 0
v -1088 -832 0
v -1056 -832 0
v -1088 -864 0
v -1120 -864 0
v -1120 -832 0
v -1088 -832 0
v -1120 -864 0
v -1152 -864 0
v -1152 -832 0
v -1120 -832 0
v -1152 -864 0
v -1184 -864 0
v -1184 -832 0
v -1152 -832 0
v -1184 -864 0
v -1216 -864 0
v -1216 -832 0
v -1184 -832 0
v -1216 -864 0
v -1248 -864 0
v -1248 -832 0
v -1216 -832 0
v -1248 -864 0
v -1280 -864 0
v -1280 -832 0
v -1248 -832 0
v -1280 -864 0
v -1312 -864 0
v -1312 -832 0
v -1280 -832 0
v -1312 -864 0
v -1344 -864 0
v -1344 -832 0
v -1312 -832 0
v -1344 -864 0
v -1376 -864 0
v -1376 -832 0
v -1344 -832 0

# Texture cooridinates (Count = 26)
vt 0 0.3333333
vt 0.1 0.3333333
vt 0.1 0.6666666
vt 0 0.6666666
vt 0.4 0.3333333
vt 0.5 0.3333333
vt 0.5 0.6666666
vt 0.4 0.6666666
vt 0.7 0
vt 0.8 0
vt 0.8 0.3333333
vt 0.7 0.3333333
vt 0.9 0.3333333
vt 0.9 0.6666666
vt 0.8 0.6666666
vt 0.6 0.6666666
vt 0.7 0.6666666
vt 0.7 1
vt 0.6 1
vt 0.8 1
vt 0.9 1
vt 0.6 0.3333333
vt 0.6 0
vt 0.9 0
vt 0.4 0
vt 0.5 0

# Normal
vn 0 0 -1

# Mesh description
g LB_Shafts_mesh_0002

# Faces
f 1/1/1 2/2/1 3/3/1 4/4/1
f 5/1/1 6/2/1 7/3/1 8/4/1
f 9/1/1 10/2/1 11/3/1 12/4/1
f 13/5/1 14/6/1 15/7/1 16/8/1
f 17/9/1 18/10/1 19/11/1 20/12/1
f 21/9/1 22/10/1 23/11/1 24/12/1
f 25/9/1 26/10/1 27/11/1 28/12/1
f 29/9/1 30/10/1 31/11/1 32/12/1
f 33/9/1 34/10/1 35/11/1 36/12/1
f 37/9/1 38/10/1 39/11/1 40/12/1
f 41/9/1 42/10/1 43/11/1 44/12/1
f 45/9/1 46/10/1 47/11/1 48/12/1
f 49/9/1 50/10/1 51/11/1 52/12/1
f 53/9/1 54/10/1 55/11/1 56/12/1
f 57/9/1 58/10/1 59/11/1 60/12/1
f 61/9/1 62/10/1 63/11/1 64/12/1
f 65/9/1 66/10/1 67/11/1 68/12/1
f 69/9/1 70/10/1 71/11/1 72/12/1
f 73/1/1 74/2/1 75/3/1 76/4/1
f 77/1/1 78/2/1 79/3/1 80/4/1
f 81/11/1 82/13/1 83/14/1 84/15/1
f 85/1/1 86/2/1 87/3/1 88/4/1
f 89/1/1 90/2/1 91/3/1 92/4/1
f 93/11/1 94/13/1 95/14/1 96/15/1
f 97/1/1 98/2/1 99/3/1 100/4/1
f 101/11/1 102/13/1 103/14/1 104/15/1
f 105/16/1 106/17/1 107/18/1 108/19/1
f 109/17/1 110/15/1 111/20/1 112/18/1
f 113/17/1 114/15/1 115/20/1 116/18/1
f 117/17/1 118/15/1 119/20/1 120/18/1
f 121/17/1 122/15/1 123/20/1 124/18/1
f 125/17/1 126/15/1 127/20/1 128/18/1
f 129/17/1 130/15/1 131/20/1 132/18/1
f 133/17/1 134/15/1 135/20/1 136/18/1
f 137/15/1 138/14/1 139/21/1 140/20/1
f 141/1/1 142/2/1 143/3/1 144/4/1
f 145/11/1 146/13/1 147/14/1 148/15/1
f 149/22/1 150/12/1 151/17/1 152/16/1
f 153/11/1 154/13/1 155/14/1 156/15/1
f 157/11/1 158/13/1 159/14/1 160/15/1
f 161/22/1 162/12/1 163/17/1 164/16/1
f 165/11/1 166/13/1 167/14/1 168/15/1
f 169/23/1 170/9/1 171/12/1 172/22/1
f 173/9/1 174/10/1 175/11/1 176/12/1
f 177/10/1 178/24/1 179/13/1 180/11/1
f 181/11/1 182/13/1 183/14/1 184/15/1
f 185/22/1 186/12/1 187/17/1 188/16/1
f 189/11/1 190/13/1 191/14/1 192/15/1
f 193/11/1 194/13/1 195/14/1 196/15/1
f 197/22/1 198/12/1 199/17/1 200/16/1
f 201/11/1 202/13/1 203/14/1 204/15/1
f 205/11/1 206/13/1 207/14/1 208/15/1
f 209/22/1 210/12/1 211/17/1 212/16/1
f 213/25/1 214/26/1 215/6/1 216/5/1
f 217/17/1 218/15/1 219/20/1 220/18/1
f 221/17/1 222/15/1 223/20/1 224/18/1
f 225/17/1 226/15/1 227/20/1 228/18/1
f 229/17/1 230/15/1 231/20/1 232/18/1
f 233/17/1 234/15/1 235/20/1 236/18/1
f 237/17/1 238/15/1 239/20/1 240/18/1
f 241/17/1 242/15/1 243/20/1 244/18/1
f 245/17/1 246/15/1 247/20/1 248/18/1
f 249/15/1 250/14/1 251/21/1 252/20/1
f 253/9/1 254/10/1 255/11/1 256/12/1
f 257/9/1 258/10/1 259/11/1 260/12/1
f 261/9/1 262/10/1 263/11/1 264/12/1
f 265/9/1 266/10/1 267/11/1 268/12/1
f 269/9/1 270/10/1 271/11/1 272/12/1
f 273/9/1 274/10/1 275/11/1 276/12/1
f 277/9/1 278/10/1 279/11/1 280/12/1
f 281/10/1 282/24/1 283/13/1 284/11/1
f 285/22/1 286/12/1 287/17/1 288/16/1
f 289/22/1 290/12/1 291/17/1 292/16/1
f 293/22/1 294/12/1 295/17/1 296/16/1
f 297/16/1 298/17/1 299/18/1 300/19/1
f 301/17/1 302/15/1 303/20/1 304/18/1
f 305/17/1 306/15/1 307/20/1 308/18/1
f 309/17/1 310/15/1 311/20/1 312/18/1
f 313/17/1 314/15/1 315/20/1 316/18/1
f 317/17/1 318/15/1 319/20/1 320/18/1
f 321/17/1 322/15/1 323/20/1 324/18/1
f 325/17/1 326/15/1 327/20/1 328/18/1
f 329/17/1 330/15/1 331/20/1 332/18/1
f 333/17/1 334/15/1 335/20/1 336/18/1
f 337/17/1 338/15/1 339/20/1 340/18/1
f 341/17/1 342/15/1 343/20/1 344/18/1
f 345/26/1 346/23/1 347/22/1 348/6/1

