# Tiled2Unity generated file. Do not modify by hand.
# Wavefront file for 'PL_Water_mesh_0001.obj'

# Vertices (Count = 556)
v -992 -704 0
v -1024 -704 0
v -1024 -672 0
v -992 -672 0
v -1024 -704 0
v -1056 -704 0
v -1056 -672 0
v -1024 -672 0
v -1056 -704 0
v -1088 -704 0
v -1088 -672 0
v -1056 -672 0
v -1088 -704 0
v -1120 -704 0
v -1120 -672 0
v -1088 -672 0
v -992 -736 0
v -1024 -736 0
v -1024 -704 0
v -992 -704 0
v -1024 -736 0
v -1056 -736 0
v -1056 -704 0
v -1024 -704 0
v -1056 -736 0
v -1088 -736 0
v -1088 -704 0
v -1056 -704 0
v -1088 -736 0
v -1120 -736 0
v -1120 -704 0
v -1088 -704 0
v -1376 -736 0
v -1408 -736 0
v -1408 -704 0
v -1376 -704 0
v -1408 -736 0
v -1440 -736 0
v -1440 -704 0
v -1408 -704 0
v -1440 -736 0
v -1472 -736 0
v -1472 -704 0
v -1440 -704 0
v -1472 -736 0
v -1504 -736 0
v -1504 -704 0
v -1472 -704 0
v -1504 -736 0
v -1536 -736 0
v -1536 -704 0
v -1504 -704 0
v -128 -768 0
v -160 -768 0
v -160 -736 0
v -128 -736 0
v -160 -768 0
v -192 -768 0
v -192 -736 0
v -160 -736 0
v -192 -768 0
v -224 -768 0
v -224 -736 0
v -192 -736 0
v -224 -768 0
v -256 -768 0
v -256 -736 0
v -224 -736 0
v -416 -768 0
v -448 -768 0
v -448 -736 0
v -416 -736 0
v -448 -768 0
v -480 -768 0
v -480 -736 0
v -448 -736 0
v -480 -768 0
v -512 -768 0
v -512 -736 0
v -480 -736 0
v -512 -768 0
v -544 -768 0
v -544 -736 0
v -512 -736 0
v -544 -768 0
v -576 -768 0
v -576 -736 0
v -544 -736 0
v -576 -768 0
v -608 -768 0
v -608 -736 0
v -576 -736 0
v -608 -768 0
v -640 -768 0
v -640 -736 0
v -608 -736 0
v -640 -768 0
v -672 -768 0
v -672 -736 0
v -640 -736 0
v -672 -768 0
v -704 -768 0
v -704 -736 0
v -672 -736 0
v -704 -768 0
v -736 -768 0
v -736 -736 0
v -704 -736 0
v -736 -768 0
v -768 -768 0
v -768 -736 0
v -736 -736 0
v -768 -768 0
v -800 -768 0
v -800 -736 0
v -768 -736 0
v -800 -768 0
v -832 -768 0
v -832 -736 0
v -800 -736 0
v -992 -768 0
v -1024 -768 0
v -1024 -736 0
v -992 -736 0
v -1024 -768 0
v -1056 -768 0
v -1056 -736 0
v -1024 -736 0
v -1056 -768 0
v -1088 -768 0
v -1088 -736 0
v -1056 -736 0
v -1088 -768 0
v -1120 -768 0
v -1120 -736 0
v -1088 -736 0
v -1376 -768 0
v -1408 -768 0
v -1408 -736 0
v -1376 -736 0
v -1408 -768 0
v -1440 -768 0
v -1440 -736 0
v -1408 -736 0
v -1440 -768 0
v -1472 -768 0
v -1472 -736 0
v -1440 -736 0
v -1472 -768 0
v -1504 -768 0
v -1504 -736 0
v -1472 -736 0
v -1504 -768 0
v -1536 -768 0
v -1536 -736 0
v -1504 -736 0
v -128 -800 0
v -160 -800 0
v -160 -768 0
v -128 -768 0
v -160 -800 0
v -192 -800 0
v -192 -768 0
v -160 -768 0
v -192 -800 0
v -224 -800 0
v -224 -768 0
v -192 -768 0
v -224 -800 0
v -256 -800 0
v -256 -768 0
v -224 -768 0
v -416 -800 0
v -448 -800 0
v -448 -768 0
v -416 -768 0
v -448 -800 0
v -480 -800 0
v -480 -768 0
v -448 -768 0
v -480 -800 0
v -512 -800 0
v -512 -768 0
v -480 -768 0
v -512 -800 0
v -544 -800 0
v -544 -768 0
v -512 -768 0
v -544 -800 0
v -576 -800 0
v -576 -768 0
v -544 -768 0
v -576 -800 0
v -608 -800 0
v -608 -768 0
v -576 -768 0
v -608 -800 0
v -640 -800 0
v -640 -768 0
v -608 -768 0
v -640 -800 0
v -672 -800 0
v -672 -768 0
v -640 -768 0
v -672 -800 0
v -704 -800 0
v -704 -768 0
v -672 -768 0
v -704 -800 0
v -736 -800 0
v -736 -768 0
v -704 -768 0
v -736 -800 0
v -768 -800 0
v -768 -768 0
v -736 -768 0
v -768 -800 0
v -800 -800 0
v -800 -768 0
v -768 -768 0
v -800 -800 0
v -832 -800 0
v -832 -768 0
v -800 -768 0
v -992 -800 0
v -1024 -800 0
v -1024 -768 0
v -992 -768 0
v -1024 -800 0
v -1056 -800 0
v -1056 -768 0
v -1024 -768 0
v -1056 -800 0
v -1088 -800 0
v -1088 -768 0
v -1056 -768 0
v -1088 -800 0
v -1120 -800 0
v -1120 -768 0
v -1088 -768 0
v -1120 -800 0
v -1152 -800 0
v -1152 -768 0
v -1120 -768 0
v -1152 -800 0
v -1184 -800 0
v -1184 -768 0
v -1152 -768 0
v -1184 -800 0
v -1216 -800 0
v -1216 -768 0
v -1184 -768 0
v -1216 -800 0
v -1248 -800 0
v -1248 -768 0
v -1216 -768 0
v -1248 -800 0
v -1280 -800 0
v -1280 -768 0
v -1248 -768 0
v -1280 -800 0
v -1312 -800 0
v -1312 -768 0
v -1280 -768 0
v -1312 -800 0
v -1344 -800 0
v -1344 -768 0
v -1312 -768 0
v -1344 -800 0
v -1376 -800 0
v -1376 -768 0
v -1344 -768 0
v -1376 -800 0
v -1408 -800 0
v -1408 -768 0
v -1376 -768 0
v -1408 -800 0
v -1440 -800 0
v -1440 -768 0
v -1408 -768 0
v -1440 -800 0
v -1472 -800 0
v -1472 -768 0
v -1440 -768 0
v -1472 -800 0
v -1504 -800 0
v -1504 -768 0
v -1472 -768 0
v -1504 -800 0
v -1536 -800 0
v -1536 -768 0
v -1504 -768 0
v -128 -832 0
v -160 -832 0
v -160 -800 0
v -128 -800 0
v -160 -832 0
v -192 -832 0
v -192 -800 0
v -160 -800 0
v -192 -832 0
v -224 -832 0
v -224 -800 0
v -192 -800 0
v -224 -832 0
v -256 -832 0
v -256 -800 0
v -224 -800 0
v -416 -832 0
v -448 -832 0
v -448 -800 0
v -416 -800 0
v -448 -832 0
v -480 -832 0
v -480 -800 0
v -448 -800 0
v -480 -832 0
v -512 -832 0
v -512 -800 0
v -480 -800 0
v -512 -832 0
v -544 -832 0
v -544 -800 0
v -512 -800 0
v -544 -832 0
v -576 -832 0
v -576 -800 0
v -544 -800 0
v -576 -832 0
v -608 -832 0
v -608 -800 0
v -576 -800 0
v -608 -832 0
v -640 -832 0
v -640 -800 0
v -608 -800 0
v -640 -832 0
v -672 -832 0
v -672 -800 0
v -640 -800 0
v -672 -832 0
v -704 -832 0
v -704 -800 0
v -672 -800 0
v -704 -832 0
v -736 -832 0
v -736 -800 0
v -704 -800 0
v -736 -832 0
v -768 -832 0
v -768 -800 0
v -736 -800 0
v -768 -832 0
v -800 -832 0
v -800 -800 0
v -768 -800 0
v -800 -832 0
v -832 -832 0
v -832 -800 0
v -800 -800 0
v -992 -832 0
v -1024 -832 0
v -1024 -800 0
v -992 -800 0
v -1024 -832 0
v -1056 -832 0
v -1056 -800 0
v -1024 -800 0
v -1056 -832 0
v -1088 -832 0
v -1088 -800 0
v -1056 -800 0
v -1088 -832 0
v -1120 -832 0
v -1120 -800 0
v -1088 -800 0
v -1120 -832 0
v -1152 -832 0
v -1152 -800 0
v -1120 -800 0
v -1152 -832 0
v -1184 -832 0
v -1184 -800 0
v -1152 -800 0
v -1184 -832 0
v -1216 -832 0
v -1216 -800 0
v -1184 -800 0
v -1216 -832 0
v -1248 -832 0
v -1248 -800 0
v -1216 -800 0
v -1248 -832 0
v -1280 -832 0
v -1280 -800 0
v -1248 -800 0
v -1280 -832 0
v -1312 -832 0
v -1312 -800 0
v -1280 -800 0
v -1312 -832 0
v -1344 -832 0
v -1344 -800 0
v -1312 -800 0
v -1344 -832 0
v -1376 -832 0
v -1376 -800 0
v -1344 -800 0
v -1376 -832 0
v -1408 -832 0
v -1408 -800 0
v -1376 -800 0
v -1408 -832 0
v -1440 -832 0
v -1440 -800 0
v -1408 -800 0
v -1440 -832 0
v -1472 -832 0
v -1472 -800 0
v -1440 -800 0
v -1472 -832 0
v -1504 -832 0
v -1504 -800 0
v -1472 -800 0
v -128 -864 0
v -160 -864 0
v -160 -832 0
v -128 -832 0
v -160 -864 0
v -192 -864 0
v -192 -832 0
v -160 -832 0
v -192 -864 0
v -224 -864 0
v -224 -832 0
v -192 -832 0
v -224 -864 0
v -256 -864 0
v -256 -832 0
v -224 -832 0
v -416 -864 0
v -448 -864 0
v -448 -832 0
v -416 -832 0
v -448 -864 0
v -480 -864 0
v -480 -832 0
v -448 -832 0
v -480 -864 0
v -512 -864 0
v -512 -832 0
v -480 -832 0
v -512 -864 0
v -544 -864 0
v -544 -832 0
v -512 -832 0
v -544 -864 0
v -576 -864 0
v -576 -832 0
v -544 -832 0
v -576 -864 0
v -608 -864 0
v -608 -832 0
v -576 -832 0
v -608 -864 0
v -640 -864 0
v -640 -832 0
v -608 -832 0
v -640 -864 0
v -672 -864 0
v -672 -832 0
v -640 -832 0
v -672 -864 0
v -704 -864 0
v -704 -832 0
v -672 -832 0
v -704 -864 0
v -736 -864 0
v -736 -832 0
v -704 -832 0
v -736 -864 0
v -768 -864 0
v -768 -832 0
v -736 -832 0
v -768 -864 0
v -800 -864 0
v -800 -832 0
v -768 -832 0
v -800 -864 0
v -832 -864 0
v -832 -832 0
v -800 -832 0
v -992 -864 0
v -1024 -864 0
v -1024 -832 0
v -992 -832 0
v -1024 -864 0
v -1056 -864 0
v -1056 -832 0
v -1024 -832 0
v -1056 -864 0
v -1088 -864 0
v -1088 -832 0
v -1056 -832 0
v -1088 -864 0
v -1120 -864 0
v -1120 -832 0
v -1088 -832 0
v -1120 -864 0
v -1152 -864 0
v -1152 -832 0
v -1120 -832 0
v -1152 -864 0
v -1184 -864 0
v -1184 -832 0
v -1152 -832 0
v -1184 -864 0
v -1216 -864 0
v -1216 -832 0
v -1184 -832 0
v -1216 -864 0
v -1248 -864 0
v -1248 -832 0
v -1216 -832 0
v -1248 -864 0
v -1280 -864 0
v -1280 -832 0
v -1248 -832 0
v -1280 -864 0
v -1312 -864 0
v -1312 -832 0
v -1280 -832 0
v -1312 -864 0
v -1344 -864 0
v -1344 -832 0
v -1312 -832 0
v -1344 -864 0
v -1376 -864 0
v -1376 -832 0
v -1344 -832 0
v -1376 -864 0
v -1408 -864 0
v -1408 -832 0
v -1376 -832 0
v -1408 -864 0
v -1440 -864 0
v -1440 -832 0
v -1408 -832 0
v -1440 -864 0
v -1472 -864 0
v -1472 -832 0
v -1440 -832 0
v -1472 -864 0
v -1504 -864 0
v -1504 -832 0
v -1472 -832 0

# Texture cooridinates (Count = 22)
vt 0.6 0.9
vt 0.7 0.9
vt 0.7 1
vt 0.6 1
vt 0.8 0.9
vt 0.8 1
vt 0.9 0.9
vt 0.9 1
vt 0.6 0.8
vt 0.7 0.8
vt 0.8 0.8
vt 0.9 0.8
vt 0.6 0.6
vt 0.7 0.6
vt 0.7 0.7
vt 0.6 0.7
vt 0.8 0.7
vt 0.9 0.7
vt 0.6 0.5
vt 0.7 0.5
vt 0.8 0.5
vt 0.8 0.6

# Normal
vn 0 0 -1

# Mesh description
g PL_Water_mesh_0001

# Faces
f 1/1/1 2/2/1 3/3/1 4/4/1
f 5/2/1 6/5/1 7/6/1 8/3/1
f 9/2/1 10/5/1 11/6/1 12/3/1
f 13/5/1 14/7/1 15/8/1 16/6/1
f 17/9/1 18/10/1 19/2/1 20/1/1
f 21/10/1 22/11/1 23/5/1 24/2/1
f 25/10/1 26/11/1 27/5/1 28/2/1
f 29/11/1 30/12/1 31/7/1 32/5/1
f 33/1/1 34/2/1 35/3/1 36/4/1
f 37/2/1 38/5/1 39/6/1 40/3/1
f 41/2/1 42/5/1 43/6/1 44/3/1
f 45/2/1 46/5/1 47/6/1 48/3/1
f 49/5/1 50/7/1 51/8/1 52/6/1
f 53/1/1 54/2/1 55/3/1 56/4/1
f 57/2/1 58/5/1 59/6/1 60/3/1
f 61/2/1 62/5/1 63/6/1 64/3/1
f 65/5/1 66/7/1 67/8/1 68/6/1
f 69/1/1 70/2/1 71/3/1 72/4/1
f 73/2/1 74/5/1 75/6/1 76/3/1
f 77/2/1 78/5/1 79/6/1 80/3/1
f 81/2/1 82/5/1 83/6/1 84/3/1
f 85/2/1 86/5/1 87/6/1 88/3/1
f 89/2/1 90/5/1 91/6/1 92/3/1
f 93/2/1 94/5/1 95/6/1 96/3/1
f 97/2/1 98/5/1 99/6/1 100/3/1
f 101/2/1 102/5/1 103/6/1 104/3/1
f 105/2/1 106/5/1 107/6/1 108/3/1
f 109/2/1 110/5/1 111/6/1 112/3/1
f 113/2/1 114/5/1 115/6/1 116/3/1
f 117/5/1 118/7/1 119/8/1 120/6/1
f 121/9/1 122/10/1 123/2/1 124/1/1
f 125/10/1 126/11/1 127/5/1 128/2/1
f 129/13/1 130/14/1 131/15/1 132/16/1
f 133/17/1 134/18/1 135/12/1 136/11/1
f 137/9/1 138/10/1 139/2/1 140/1/1
f 141/10/1 142/11/1 143/5/1 144/2/1
f 145/10/1 146/11/1 147/5/1 148/2/1
f 149/10/1 150/11/1 151/5/1 152/2/1
f 153/11/1 154/12/1 155/7/1 156/5/1
f 157/9/1 158/10/1 159/2/1 160/1/1
f 161/10/1 162/11/1 163/5/1 164/2/1
f 165/10/1 166/11/1 167/5/1 168/2/1
f 169/11/1 170/12/1 171/7/1 172/5/1
f 173/9/1 174/10/1 175/2/1 176/1/1
f 177/10/1 178/11/1 179/5/1 180/2/1
f 181/10/1 182/11/1 183/5/1 184/2/1
f 185/10/1 186/11/1 187/5/1 188/2/1
f 189/10/1 190/11/1 191/5/1 192/2/1
f 193/10/1 194/11/1 195/5/1 196/2/1
f 197/10/1 198/11/1 199/5/1 200/2/1
f 201/10/1 202/11/1 203/5/1 204/2/1
f 205/10/1 206/11/1 207/5/1 208/2/1
f 209/10/1 210/11/1 211/5/1 212/2/1
f 213/10/1 214/11/1 215/5/1 216/2/1
f 217/10/1 218/11/1 219/5/1 220/2/1
f 221/11/1 222/12/1 223/7/1 224/5/1
f 225/9/1 226/10/1 227/2/1 228/1/1
f 229/10/1 230/11/1 231/5/1 232/2/1
f 233/19/1 234/20/1 235/14/1 236/13/1
f 237/2/1 238/5/1 239/6/1 240/3/1
f 241/2/1 242/5/1 243/6/1 244/3/1
f 245/2/1 246/5/1 247/6/1 248/3/1
f 249/2/1 250/5/1 251/6/1 252/3/1
f 253/2/1 254/5/1 255/6/1 256/3/1
f 257/2/1 258/5/1 259/6/1 260/3/1
f 261/2/1 262/5/1 263/6/1 264/3/1
f 265/2/1 266/5/1 267/6/1 268/3/1
f 269/2/1 270/5/1 271/6/1 272/3/1
f 273/20/1 274/21/1 275/22/1 276/14/1
f 277/10/1 278/11/1 279/5/1 280/2/1
f 281/10/1 282/11/1 283/5/1 284/2/1
f 285/13/1 286/14/1 287/15/1 288/16/1
f 289/17/1 290/18/1 291/12/1 292/11/1
f 293/9/1 294/10/1 295/2/1 296/1/1
f 297/10/1 298/11/1 299/5/1 300/2/1
f 301/10/1 302/11/1 303/5/1 304/2/1
f 305/11/1 306/12/1 307/7/1 308/5/1
f 309/9/1 310/10/1 311/2/1 312/1/1
f 313/10/1 314/11/1 315/5/1 316/2/1
f 317/10/1 318/11/1 319/5/1 320/2/1
f 321/10/1 322/11/1 323/5/1 324/2/1
f 325/10/1 326/11/1 327/5/1 328/2/1
f 329/10/1 330/11/1 331/5/1 332/2/1
f 333/10/1 334/11/1 335/5/1 336/2/1
f 337/10/1 338/11/1 339/5/1 340/2/1
f 341/10/1 342/11/1 343/5/1 344/2/1
f 345/10/1 346/11/1 347/5/1 348/2/1
f 349/10/1 350/11/1 351/5/1 352/2/1
f 353/10/1 354/11/1 355/5/1 356/2/1
f 357/11/1 358/12/1 359/7/1 360/5/1
f 361/9/1 362/10/1 363/2/1 364/1/1
f 365/10/1 366/11/1 367/5/1 368/2/1
f 369/10/1 370/11/1 371/5/1 372/2/1
f 373/10/1 374/11/1 375/5/1 376/2/1
f 377/10/1 378/11/1 379/5/1 380/2/1
f 381/10/1 382/11/1 383/5/1 384/2/1
f 385/10/1 386/11/1 387/5/1 388/2/1
f 389/10/1 390/11/1 391/5/1 392/2/1
f 393/10/1 394/11/1 395/5/1 396/2/1
f 397/10/1 398/11/1 399/5/1 400/2/1
f 401/10/1 402/11/1 403/5/1 404/2/1
f 405/10/1 406/11/1 407/5/1 408/2/1
f 409/10/1 410/11/1 411/5/1 412/2/1
f 413/10/1 414/11/1 415/5/1 416/2/1
f 417/10/1 418/11/1 419/5/1 420/2/1
f 421/11/1 422/12/1 423/7/1 424/5/1
f 425/16/1 426/15/1 427/10/1 428/9/1
f 429/15/1 430/17/1 431/11/1 432/10/1
f 433/15/1 434/17/1 435/11/1 436/10/1
f 437/17/1 438/18/1 439/12/1 440/11/1
f 441/16/1 442/15/1 443/10/1 444/9/1
f 445/15/1 446/17/1 447/11/1 448/10/1
f 449/15/1 450/17/1 451/11/1 452/10/1
f 453/15/1 454/17/1 455/11/1 456/10/1
f 457/15/1 458/17/1 459/11/1 460/10/1
f 461/15/1 462/17/1 463/11/1 464/10/1
f 465/15/1 466/17/1 467/11/1 468/10/1
f 469/15/1 470/17/1 471/11/1 472/10/1
f 473/15/1 474/17/1 475/11/1 476/10/1
f 477/15/1 478/17/1 479/11/1 480/10/1
f 481/15/1 482/17/1 483/11/1 484/10/1
f 485/15/1 486/17/1 487/11/1 488/10/1
f 489/17/1 490/18/1 491/12/1 492/11/1
f 493/16/1 494/15/1 495/10/1 496/9/1
f 497/15/1 498/17/1 499/11/1 500/10/1
f 501/15/1 502/17/1 503/11/1 504/10/1
f 505/15/1 506/17/1 507/11/1 508/10/1
f 509/15/1 510/17/1 511/11/1 512/10/1
f 513/15/1 514/17/1 515/11/1 516/10/1
f 517/15/1 518/17/1 519/11/1 520/10/1
f 521/15/1 522/17/1 523/11/1 524/10/1
f 525/15/1 526/17/1 527/11/1 528/10/1
f 529/15/1 530/17/1 531/11/1 532/10/1
f 533/15/1 534/17/1 535/11/1 536/10/1
f 537/15/1 538/17/1 539/11/1 540/10/1
f 541/15/1 542/17/1 543/11/1 544/10/1
f 545/15/1 546/17/1 547/11/1 548/10/1
f 549/15/1 550/17/1 551/11/1 552/10/1
f 553/17/1 554/18/1 555/12/1 556/11/1

