# Tiled2Unity generated file. Do not modify by hand.
# Wavefront file for 'CT_Prison_mesh_0005.obj'

# Vertices (Count = 252)
v -1440 -544 0
v -1472 -544 0
v -1472 -512 0
v -1440 -512 0
v -1472 -544 0
v -1504 -544 0
v -1504 -512 0
v -1472 -512 0
v -1504 -544 0
v -1536 -544 0
v -1536 -512 0
v -1504 -512 0
v -1536 -544 0
v -1568 -544 0
v -1568 -512 0
v -1536 -512 0
v -1568 -544 0
v -1600 -544 0
v -1600 -512 0
v -1568 -512 0
v -1760 -544 0
v -1792 -544 0
v -1792 -512 0
v -1760 -512 0
v -1792 -544 0
v -1824 -544 0
v -1824 -512 0
v -1792 -512 0
v -1824 -544 0
v -1856 -544 0
v -1856 -512 0
v -1824 -512 0
v -1856 -544 0
v -1888 -544 0
v -1888 -512 0
v -1856 -512 0
v -1440 -576 0
v -1472 -576 0
v -1472 -544 0
v -1440 -544 0
v -1472 -576 0
v -1504 -576 0
v -1504 -544 0
v -1472 -544 0
v -1504 -576 0
v -1536 -576 0
v -1536 -544 0
v -1504 -544 0
v -1536 -576 0
v -1568 -576 0
v -1568 -544 0
v -1536 -544 0
v -1760 -576 0
v -1792 -576 0
v -1792 -544 0
v -1760 -544 0
v -1792 -576 0
v -1824 -576 0
v -1824 -544 0
v -1792 -544 0
v -1824 -576 0
v -1856 -576 0
v -1856 -544 0
v -1824 -544 0
v -1856 -576 0
v -1888 -576 0
v -1888 -544 0
v -1856 -544 0
v -1440 -608 0
v -1472 -608 0
v -1472 -576 0
v -1440 -576 0
v -1472 -608 0
v -1504 -608 0
v -1504 -576 0
v -1472 -576 0
v -1504 -608 0
v -1536 -608 0
v -1536 -576 0
v -1504 -576 0
v -1536 -608 0
v -1568 -608 0
v -1568 -576 0
v -1536 -576 0
v -1760 -608 0
v -1792 -608 0
v -1792 -576 0
v -1760 -576 0
v -1792 -608 0
v -1824 -608 0
v -1824 -576 0
v -1792 -576 0
v -1824 -608 0
v -1856 -608 0
v -1856 -576 0
v -1824 -576 0
v -1856 -608 0
v -1888 -608 0
v -1888 -576 0
v -1856 -576 0
v -1440 -640 0
v -1472 -640 0
v -1472 -608 0
v -1440 -608 0
v -1472 -640 0
v -1504 -640 0
v -1504 -608 0
v -1472 -608 0
v -1504 -640 0
v -1536 -640 0
v -1536 -608 0
v -1504 -608 0
v -1536 -640 0
v -1568 -640 0
v -1568 -608 0
v -1536 -608 0
v -1760 -640 0
v -1792 -640 0
v -1792 -608 0
v -1760 -608 0
v -1792 -640 0
v -1824 -640 0
v -1824 -608 0
v -1792 -608 0
v -1824 -640 0
v -1856 -640 0
v -1856 -608 0
v -1824 -608 0
v -1856 -640 0
v -1888 -640 0
v -1888 -608 0
v -1856 -608 0
v -1440 -672 0
v -1472 -672 0
v -1472 -640 0
v -1440 -640 0
v -1472 -672 0
v -1504 -672 0
v -1504 -640 0
v -1472 -640 0
v -1504 -672 0
v -1536 -672 0
v -1536 -640 0
v -1504 -640 0
v -1536 -672 0
v -1568 -672 0
v -1568 -640 0
v -1536 -640 0
v -1728 -672 0
v -1760 -672 0
v -1760 -640 0
v -1728 -640 0
v -1760 -672 0
v -1792 -672 0
v -1792 -640 0
v -1760 -640 0
v -1792 -672 0
v -1824 -672 0
v -1824 -640 0
v -1792 -640 0
v -1824 -672 0
v -1856 -672 0
v -1856 -640 0
v -1824 -640 0
v -1856 -672 0
v -1888 -672 0
v -1888 -640 0
v -1856 -640 0
v -2208 -704 0
v -2240 -704 0
v -2240 -672 0
v -2208 -672 0
v -2240 -704 0
v -2272 -704 0
v -2272 -672 0
v -2240 -672 0
v -2272 -704 0
v -2304 -704 0
v -2304 -672 0
v -2272 -672 0
v -2304 -704 0
v -2336 -704 0
v -2336 -672 0
v -2304 -672 0
v -2336 -704 0
v -2368 -704 0
v -2368 -672 0
v -2336 -672 0
v -2208 -736 0
v -2240 -736 0
v -2240 -704 0
v -2208 -704 0
v -2240 -736 0
v -2272 -736 0
v -2272 -704 0
v -2240 -704 0
v -2272 -736 0
v -2304 -736 0
v -2304 -704 0
v -2272 -704 0
v -2304 -736 0
v -2336 -736 0
v -2336 -704 0
v -2304 -704 0
v -2336 -736 0
v -2368 -736 0
v -2368 -704 0
v -2336 -704 0
v -2240 -768 0
v -2272 -768 0
v -2272 -736 0
v -2240 -736 0
v -2272 -768 0
v -2304 -768 0
v -2304 -736 0
v -2272 -736 0
v -2304 -768 0
v -2336 -768 0
v -2336 -736 0
v -2304 -736 0
v -2240 -800 0
v -2272 -800 0
v -2272 -768 0
v -2240 -768 0
v -2272 -800 0
v -2304 -800 0
v -2304 -768 0
v -2272 -768 0
v -2304 -800 0
v -2336 -800 0
v -2336 -768 0
v -2304 -768 0
v -2208 -832 0
v -2240 -832 0
v -2240 -800 0
v -2208 -800 0
v -2240 -832 0
v -2272 -832 0
v -2272 -800 0
v -2240 -800 0
v -2272 -832 0
v -2304 -832 0
v -2304 -800 0
v -2272 -800 0
v -2304 -832 0
v -2336 -832 0
v -2336 -800 0
v -2304 -800 0
v -2336 -832 0
v -2368 -832 0
v -2368 -800 0
v -2336 -800 0

# Texture cooridinates (Count = 15)
vt 0.25 0
vt 0.5 0
vt 0.5 0.25
vt 0.25 0.25
vt 0 0
vt 0 0.25
vt 0 0.5
vt 0.25 0.5
vt 0.25 0.75
vt 0 0.75
vt 0.5 0.5
vt 0.5 0.75
vt 0.75 0.5
vt 0.75 0.75
vt 0.75 0.25

# Normal
vn 0 0 -1

# Mesh description
g CT_Prison_mesh_0005

# Faces
f 1/1/1 2/2/1 3/3/1 4/4/1
f 5/1/1 6/2/1 7/3/1 8/4/1
f 9/1/1 10/2/1 11/3/1 12/4/1
f 13/1/1 14/2/1 15/3/1 16/4/1
f 17/5/1 18/1/1 19/4/1 20/6/1
f 21/1/1 22/2/1 23/3/1 24/4/1
f 25/1/1 26/2/1 27/3/1 28/4/1
f 29/1/1 30/2/1 31/3/1 32/4/1
f 33/1/1 34/2/1 35/3/1 36/4/1
f 37/7/1 38/8/1 39/9/1 40/10/1
f 41/8/1 42/11/1 43/12/1 44/9/1
f 45/8/1 46/11/1 47/12/1 48/9/1
f 49/1/1 50/2/1 51/3/1 52/4/1
f 53/1/1 54/2/1 55/3/1 56/4/1
f 57/8/1 58/11/1 59/12/1 60/9/1
f 61/8/1 62/11/1 63/12/1 64/9/1
f 65/11/1 66/13/1 67/14/1 68/12/1
f 69/7/1 70/8/1 71/9/1 72/10/1
f 73/8/1 74/11/1 75/12/1 76/9/1
f 77/8/1 78/11/1 79/12/1 80/9/1
f 81/11/1 82/13/1 83/14/1 84/12/1
f 85/7/1 86/8/1 87/9/1 88/10/1
f 89/8/1 90/11/1 91/12/1 92/9/1
f 93/8/1 94/11/1 95/12/1 96/9/1
f 97/11/1 98/13/1 99/14/1 100/12/1
f 101/6/1 102/4/1 103/8/1 104/7/1
f 105/4/1 106/3/1 107/11/1 108/8/1
f 109/4/1 110/3/1 111/11/1 112/8/1
f 113/3/1 114/15/1 115/13/1 116/11/1
f 117/6/1 118/4/1 119/8/1 120/7/1
f 121/4/1 122/3/1 123/11/1 124/8/1
f 125/4/1 126/3/1 127/11/1 128/8/1
f 129/3/1 130/15/1 131/13/1 132/11/1
f 133/1/1 134/2/1 135/3/1 136/4/1
f 137/1/1 138/2/1 139/3/1 140/4/1
f 141/1/1 142/2/1 143/3/1 144/4/1
f 145/1/1 146/2/1 147/3/1 148/4/1
f 149/1/1 150/5/1 151/6/1 152/4/1
f 153/1/1 154/2/1 155/3/1 156/4/1
f 157/1/1 158/2/1 159/3/1 160/4/1
f 161/1/1 162/2/1 163/3/1 164/4/1
f 165/1/1 166/2/1 167/3/1 168/4/1
f 169/1/1 170/2/1 171/3/1 172/4/1
f 173/1/1 174/2/1 175/3/1 176/4/1
f 177/1/1 178/2/1 179/3/1 180/4/1
f 181/1/1 182/2/1 183/3/1 184/4/1
f 185/1/1 186/2/1 187/3/1 188/4/1
f 189/1/1 190/2/1 191/3/1 192/4/1
f 193/7/1 194/8/1 195/9/1 196/10/1
f 197/8/1 198/11/1 199/12/1 200/9/1
f 201/11/1 202/13/1 203/14/1 204/12/1
f 205/1/1 206/2/1 207/3/1 208/4/1
f 209/7/1 210/8/1 211/9/1 212/10/1
f 213/8/1 214/11/1 215/12/1 216/9/1
f 217/11/1 218/13/1 219/14/1 220/12/1
f 221/6/1 222/4/1 223/8/1 224/7/1
f 225/4/1 226/3/1 227/11/1 228/8/1
f 229/3/1 230/15/1 231/13/1 232/11/1
f 233/1/1 234/2/1 235/3/1 236/4/1
f 237/1/1 238/2/1 239/3/1 240/4/1
f 241/1/1 242/2/1 243/3/1 244/4/1
f 245/1/1 246/2/1 247/3/1 248/4/1
f 249/1/1 250/2/1 251/3/1 252/4/1

