# Tiled2Unity generated file. Do not modify by hand.
# Wavefront file for 'Test_lighting_mesh_0002.obj'

# Vertices (Count = 12)
v -544 -1152 0
v -576 -1152 0
v -576 -1120 0
v -544 -1120 0
v -608 -1152 0
v -640 -1152 0
v -640 -1120 0
v -608 -1120 0
v -640 -1152 0
v -672 -1152 0
v -672 -1120 0
v -640 -1120 0

# Texture cooridinates (Count = 6)
vt 0.75 0.3636364
vt 0.8333333 0.3636364
vt 0.8333333 0.4545454
vt 0.75 0.4545454
vt 0.9166667 0.3636364
vt 0.9166667 0.4545454

# Normal
vn 0 0 -1

# Mesh description
g Test_lighting_mesh_0002

# Faces
f 1/1/1 2/2/1 3/3/1 4/4/1
f 5/1/1 6/2/1 7/3/1 8/4/1
f 9/2/1 10/5/1 11/6/1 12/3/1

