# Tiled2Unity generated file. Do not modify by hand.
# Wavefront file for 'Test_lighting_mesh_0001.obj'

# Vertices (Count = 32)
v -800 -928 0
v -832 -928 0
v -832 -896 0
v -800 -896 0
v -704 -960 0
v -736 -960 0
v -736 -928 0
v -704 -928 0
v -736 -960 0
v -768 -960 0
v -768 -928 0
v -736 -928 0
v -768 -992 0
v -800 -992 0
v -800 -960 0
v -768 -960 0
v -800 -992 0
v -832 -992 0
v -832 -960 0
v -800 -960 0
v -864 -992 0
v -896 -992 0
v -896 -960 0
v -864 -960 0
v -896 -1152 0
v -928 -1152 0
v -928 -1120 0
v -896 -1120 0
v -928 -1152 0
v -960 -1152 0
v -960 -1120 0
v -928 -1120 0

# Texture cooridinates (Count = 10)
vt 0.9166667 0.4545454
vt 1 0.4545454
vt 1 0.5454545
vt 0.9166667 0.5454545
vt 0.8333333 0.4545454
vt 0.8333333 0.5454545
vt 0.75 0.3636364
vt 0.8333333 0.3636364
vt 0.75 0.4545454
vt 0.9166667 0.3636364

# Normal
vn 0 0 -1

# Mesh description
g Test_lighting_mesh_0001

# Faces
f 1/1/1 2/2/1 3/3/1 4/4/1
f 5/5/1 6/1/1 7/4/1 8/6/1
f 9/1/1 10/2/1 11/3/1 12/4/1
f 13/7/1 14/8/1 15/5/1 16/9/1
f 17/7/1 18/8/1 19/5/1 20/9/1
f 21/8/1 22/10/1 23/1/1 24/5/1
f 25/1/1 26/2/1 27/3/1 28/4/1
f 29/1/1 30/2/1 31/3/1 32/4/1

