# Tiled2Unity generated file. Do not modify by hand.
# Wavefront file for 'CT_Corridor_mesh_0003.obj'

# Vertices (Count = 12)
v -608 -1376 0
v -640 -1376 0
v -640 -1344 0
v -608 -1344 0
v -640 -1376 0
v -672 -1376 0
v -672 -1344 0
v -640 -1344 0
v -640 -1408 0
v -672 -1408 0
v -672 -1376 0
v -640 -1376 0

# Texture cooridinates (Count = 10)
vt 0 0.9
vt 0.1 0.9
vt 0.1 1
vt 0 1
vt 0.2 0.9
vt 0.3 0.9
vt 0.3 1
vt 0.2 1
vt 0.2 0.8
vt 0.3 0.8

# Normal
vn 0 0 -1

# Mesh description
g CT_Corridor_mesh_0003

# Faces
f 1/1/1 2/2/1 3/3/1 4/4/1
f 5/5/1 6/6/1 7/7/1 8/8/1
f 9/9/1 10/10/1 11/6/1 12/5/1

