# Tiled2Unity generated file. Do not modify by hand.
# Wavefront file for 'CT_Corridor_mesh_0002.obj'

# Vertices (Count = 128)
v -1024 -608 0
v -1056 -608 0
v -1056 -576 0
v -1024 -576 0
v -1056 -608 0
v -1088 -608 0
v -1088 -576 0
v -1056 -576 0
v -1088 -640 0
v -1120 -640 0
v -1120 -608 0
v -1088 -608 0
v -1120 -672 0
v -1152 -672 0
v -1152 -640 0
v -1120 -640 0
v -1152 -704 0
v -1184 -704 0
v -1184 -672 0
v -1152 -672 0
v -1184 -736 0
v -1216 -736 0
v -1216 -704 0
v -1184 -704 0
v -1184 -768 0
v -1216 -768 0
v -1216 -736 0
v -1184 -736 0
v -1216 -768 0
v -1248 -768 0
v -1248 -736 0
v -1216 -736 0
v -1152 -800 0
v -1184 -800 0
v -1184 -768 0
v -1152 -768 0
v -1120 -832 0
v -1152 -832 0
v -1152 -800 0
v -1120 -800 0
v -1088 -864 0
v -1120 -864 0
v -1120 -832 0
v -1088 -832 0
v -1056 -896 0
v -1088 -896 0
v -1088 -864 0
v -1056 -864 0
v -1088 -896 0
v -1120 -896 0
v -1120 -864 0
v -1088 -864 0
v -1120 -928 0
v -1152 -928 0
v -1152 -896 0
v -1120 -896 0
v -1088 -1024 0
v -1120 -1024 0
v -1120 -992 0
v -1088 -992 0
v -1120 -1024 0
v -1152 -1024 0
v -1152 -992 0
v -1120 -992 0
v -1376 -1024 0
v -1408 -1024 0
v -1408 -992 0
v -1376 -992 0
v -1056 -1056 0
v -1088 -1056 0
v -1088 -1024 0
v -1056 -1024 0
v -1376 -1056 0
v -1408 -1056 0
v -1408 -1024 0
v -1376 -1024 0
v -1024 -1088 0
v -1056 -1088 0
v -1056 -1056 0
v -1024 -1056 0
v -640 -1216 0
v -672 -1216 0
v -672 -1184 0
v -640 -1184 0
v -672 -1216 0
v -704 -1216 0
v -704 -1184 0
v -672 -1184 0
v -608 -1248 0
v -640 -1248 0
v -640 -1216 0
v -608 -1216 0
v -640 -1728 0
v -672 -1728 0
v -672 -1696 0
v -640 -1696 0
v -672 -1728 0
v -704 -1728 0
v -704 -1696 0
v -672 -1696 0
v -608 -1760 0
v -640 -1760 0
v -640 -1728 0
v -608 -1728 0
v -576 -1792 0
v -608 -1792 0
v -608 -1760 0
v -576 -1760 0
v -544 -1824 0
v -576 -1824 0
v -576 -1792 0
v -544 -1792 0
v -544 -1888 0
v -576 -1888 0
v -576 -1856 0
v -544 -1856 0
v -576 -1920 0
v -608 -1920 0
v -608 -1888 0
v -576 -1888 0
v -608 -1952 0
v -640 -1952 0
v -640 -1920 0
v -608 -1920 0
v -640 -1984 0
v -672 -1984 0
v -672 -1952 0
v -640 -1952 0

# Texture cooridinates (Count = 10)
vt 0.7 0.5
vt 0.8 0.5
vt 0.8 0.6
vt 0.7 0.6
vt 0.7 0.7
vt 0.6 0.7
vt 0.6 0.8
vt 0.7 0.8
vt 0.6 0.5
vt 0.6 0.6

# Normal
vn 0 0 -1

# Mesh description
g CT_Corridor_mesh_0002

# Faces
f 1/1/1 2/2/1 3/3/1 4/4/1
f 5/5/1 6/6/1 7/7/1 8/8/1
f 9/5/1 10/6/1 11/7/1 12/8/1
f 13/5/1 14/6/1 15/7/1 16/8/1
f 17/5/1 18/6/1 19/7/1 20/8/1
f 21/5/1 22/6/1 23/7/1 24/8/1
f 25/6/1 26/5/1 27/8/1 28/7/1
f 29/9/1 30/1/1 31/4/1 32/10/1
f 33/6/1 34/5/1 35/8/1 36/7/1
f 37/6/1 38/5/1 39/8/1 40/7/1
f 41/6/1 42/5/1 43/8/1 44/7/1
f 45/1/1 46/2/1 47/3/1 48/4/1
f 49/7/1 50/8/1 51/5/1 52/6/1
f 53/7/1 54/8/1 55/5/1 56/6/1
f 57/6/1 58/5/1 59/8/1 60/7/1
f 61/2/1 62/1/1 63/4/1 64/3/1
f 65/1/1 66/2/1 67/3/1 68/4/1
f 69/6/1 70/5/1 71/8/1 72/7/1
f 73/1/1 74/2/1 75/3/1 76/4/1
f 77/6/1 78/5/1 79/8/1 80/7/1
f 81/6/1 82/5/1 83/8/1 84/7/1
f 85/2/1 86/1/1 87/4/1 88/3/1
f 89/6/1 90/5/1 91/8/1 92/7/1
f 93/6/1 94/5/1 95/8/1 96/7/1
f 97/2/1 98/1/1 99/4/1 100/3/1
f 101/6/1 102/5/1 103/8/1 104/7/1
f 105/6/1 106/5/1 107/8/1 108/7/1
f 109/6/1 110/5/1 111/8/1 112/7/1
f 113/4/1 114/3/1 115/2/1 116/1/1
f 117/7/1 118/8/1 119/5/1 120/6/1
f 121/7/1 122/8/1 123/5/1 124/6/1
f 125/7/1 126/8/1 127/5/1 128/6/1

