# Tiled2Unity generated file. Do not modify by hand.
# Wavefront file for 'LB_Furnace_mesh_0003.obj'

# Vertices (Count = 32)
v -1952 -256 0
v -1984 -256 0
v -1984 -224 0
v -1952 -224 0
v -2912 -256 0
v -2944 -256 0
v -2944 -224 0
v -2912 -224 0
v -1408 -448 0
v -1440 -448 0
v -1440 -416 0
v -1408 -416 0
v -1440 -448 0
v -1472 -448 0
v -1472 -416 0
v -1440 -416 0
v -1472 -448 0
v -1504 -448 0
v -1504 -416 0
v -1472 -416 0
v -2912 -768 0
v -2944 -768 0
v -2944 -736 0
v -2912 -736 0
v -2944 -768 0
v -2976 -768 0
v -2976 -736 0
v -2944 -736 0
v -2368 -832 0
v -2400 -832 0
v -2400 -800 0
v -2368 -800 0

# Texture cooridinates (Count = 10)
vt 0 0.6666666
vt 0.1 0.6666666
vt 0.1 1
vt 0 1
vt 0 0.3333333
vt 0.1 0.3333333
vt 0.9 0.6666666
vt 1 0.6666666
vt 1 1
vt 0.9 1

# Normal
vn 0 0 -1

# Mesh description
g LB_Furnace_mesh_0003

# Faces
f 1/1/1 2/2/1 3/3/1 4/4/1
f 5/5/1 6/6/1 7/2/1 8/1/1
f 9/7/1 10/8/1 11/9/1 12/10/1
f 13/7/1 14/8/1 15/9/1 16/10/1
f 17/7/1 18/8/1 19/9/1 20/10/1
f 21/5/1 22/6/1 23/2/1 24/1/1
f 25/5/1 26/6/1 27/2/1 28/1/1
f 29/5/1 30/6/1 31/2/1 32/1/1

