# Tiled2Unity generated file. Do not modify by hand.
# Wavefront file for 'LB_Furnace_mesh_0001.obj'

# Vertices (Count = 168)
v -1216 -288 0
v -1248 -288 0
v -1248 -256 0
v -1216 -256 0
v -1248 -288 0
v -1280 -288 0
v -1280 -256 0
v -1248 -256 0
v -1280 -288 0
v -1312 -288 0
v -1312 -256 0
v -1280 -256 0
v -1312 -288 0
v -1344 -288 0
v -1344 -256 0
v -1312 -256 0
v -1344 -288 0
v -1376 -288 0
v -1376 -256 0
v -1344 -256 0
v -1376 -288 0
v -1408 -288 0
v -1408 -256 0
v -1376 -256 0
v -1408 -288 0
v -1440 -288 0
v -1440 -256 0
v -1408 -256 0
v -1440 -288 0
v -1472 -288 0
v -1472 -256 0
v -1440 -256 0
v -1472 -288 0
v -1504 -288 0
v -1504 -256 0
v -1472 -256 0
v -1184 -320 0
v -1216 -320 0
v -1216 -288 0
v -1184 -288 0
v -1216 -320 0
v -1248 -320 0
v -1248 -288 0
v -1216 -288 0
v -1248 -320 0
v -1280 -320 0
v -1280 -288 0
v -1248 -288 0
v -1280 -320 0
v -1312 -320 0
v -1312 -288 0
v -1280 -288 0
v -1312 -320 0
v -1344 -320 0
v -1344 -288 0
v -1312 -288 0
v -1344 -320 0
v -1376 -320 0
v -1376 -288 0
v -1344 -288 0
v -1376 -320 0
v -1408 -320 0
v -1408 -288 0
v -1376 -288 0
v -1408 -320 0
v -1440 -320 0
v -1440 -288 0
v -1408 -288 0
v -1440 -320 0
v -1472 -320 0
v -1472 -288 0
v -1440 -288 0
v -1472 -320 0
v -1504 -320 0
v -1504 -288 0
v -1472 -288 0
v -1504 -320 0
v -1536 -320 0
v -1536 -288 0
v -1504 -288 0
v -1536 -320 0
v -1568 -320 0
v -1568 -288 0
v -1536 -288 0
v -928 -384 0
v -960 -384 0
v -960 -352 0
v -928 -352 0
v -352 -448 0
v -384 -448 0
v -384 -416 0
v -352 -416 0
v -800 -448 0
v -832 -448 0
v -832 -416 0
v -800 -416 0
v -1792 -576 0
v -1824 -576 0
v -1824 -544 0
v -1792 -544 0
v -1824 -576 0
v -1856 -576 0
v -1856 -544 0
v -1824 -544 0
v -1856 -576 0
v -1888 -576 0
v -1888 -544 0
v -1856 -544 0
v -1888 -576 0
v -1920 -576 0
v -1920 -544 0
v -1888 -544 0
v -1920 -576 0
v -1952 -576 0
v -1952 -544 0
v -1920 -544 0
v -1952 -576 0
v -1984 -576 0
v -1984 -544 0
v -1952 -544 0
v -1792 -608 0
v -1824 -608 0
v -1824 -576 0
v -1792 -576 0
v -1824 -608 0
v -1856 -608 0
v -1856 -576 0
v -1824 -576 0
v -1856 -608 0
v -1888 -608 0
v -1888 -576 0
v -1856 -576 0
v -1888 -608 0
v -1920 -608 0
v -1920 -576 0
v -1888 -576 0
v -1920 -608 0
v -1952 -608 0
v -1952 -576 0
v -1920 -576 0
v -1952 -608 0
v -1984 -608 0
v -1984 -576 0
v -1952 -576 0
v -1792 -640 0
v -1824 -640 0
v -1824 -608 0
v -1792 -608 0
v -1824 -640 0
v -1856 -640 0
v -1856 -608 0
v -1824 -608 0
v -1856 -640 0
v -1888 -640 0
v -1888 -608 0
v -1856 -608 0
v -1888 -640 0
v -1920 -640 0
v -1920 -608 0
v -1888 -608 0
v -1920 -640 0
v -1952 -640 0
v -1952 -608 0
v -1920 -608 0
v -1952 -640 0
v -1984 -640 0
v -1984 -608 0
v -1952 -608 0

# Texture cooridinates (Count = 26)
vt 0.1 0.2
vt 0.2 0.2
vt 0.2 0.3
vt 0.1 0.3
vt 0.5 0
vt 0.6 0
vt 0.6 0.1
vt 0.5 0.1
vt 0.4 0
vt 0.4 0.1
vt 0 0.4
vt 0.1 0.4
vt 0.1 0.5
vt 0 0.5
vt 0.2 0.4
vt 0.2 0.5
vt 0.3 0.4
vt 0.3 0.5
vt 0 0.3
vt 0.4 0.4
vt 0.4 0.5
vt 0.3 0.2
vt 0.4 0.2
vt 0.4 0.3
vt 0.3 0.3
vt 0 0.2

# Normal
vn 0 0 -1

# Mesh description
g LB_Furnace_mesh_0001

# Faces
f 1/1/1 2/2/1 3/3/1 4/4/1
f 5/1/1 6/2/1 7/3/1 8/4/1
f 9/1/1 10/2/1 11/3/1 12/4/1
f 13/1/1 14/2/1 15/3/1 16/4/1
f 17/1/1 18/2/1 19/3/1 20/4/1
f 21/1/1 22/2/1 23/3/1 24/4/1
f 25/1/1 26/2/1 27/3/1 28/4/1
f 29/1/1 30/2/1 31/3/1 32/4/1
f 33/1/1 34/2/1 35/3/1 36/4/1
f 37/1/1 38/2/1 39/3/1 40/4/1
f 41/1/1 42/2/1 43/3/1 44/4/1
f 45/1/1 46/2/1 47/3/1 48/4/1
f 49/1/1 50/2/1 51/3/1 52/4/1
f 53/1/1 54/2/1 55/3/1 56/4/1
f 57/1/1 58/2/1 59/3/1 60/4/1
f 61/1/1 62/2/1 63/3/1 64/4/1
f 65/1/1 66/2/1 67/3/1 68/4/1
f 69/1/1 70/2/1 71/3/1 72/4/1
f 73/1/1 74/2/1 75/3/1 76/4/1
f 77/1/1 78/2/1 79/3/1 80/4/1
f 81/1/1 82/2/1 83/3/1 84/4/1
f 85/5/1 86/6/1 87/7/1 88/8/1
f 89/5/1 90/6/1 91/7/1 92/8/1
f 93/9/1 94/5/1 95/8/1 96/10/1
f 97/11/1 98/12/1 99/13/1 100/14/1
f 101/12/1 102/15/1 103/16/1 104/13/1
f 105/12/1 106/15/1 107/16/1 108/13/1
f 109/12/1 110/15/1 111/16/1 112/13/1
f 113/12/1 114/15/1 115/16/1 116/13/1
f 117/15/1 118/17/1 119/18/1 120/16/1
f 121/19/1 122/4/1 123/12/1 124/11/1
f 125/17/1 126/20/1 127/21/1 128/18/1
f 129/4/1 130/3/1 131/15/1 132/12/1
f 133/17/1 134/20/1 135/21/1 136/18/1
f 137/22/1 138/23/1 139/24/1 140/25/1
f 141/3/1 142/25/1 143/17/1 144/15/1
f 145/26/1 146/1/1 147/4/1 148/19/1
f 149/1/1 150/2/1 151/3/1 152/4/1
f 153/1/1 154/2/1 155/3/1 156/4/1
f 157/1/1 158/2/1 159/3/1 160/4/1
f 161/1/1 162/2/1 163/3/1 164/4/1
f 165/2/1 166/22/1 167/25/1 168/3/1

